<?xml version="1.0" standalone="no"?>
<!DOCTYPE svg PUBLIC "-//W3C//DTD SVG 1.1//EN" "http://www.w3.org/Graphics/SVG/1.1/DTD/svg11.dtd" >
<svg xmlns="http://www.w3.org/2000/svg">
<metadata></metadata>
<defs>
<font id="dilo_55_roman65bold" horiz-adv-x="158" >
<font-face units-per-em="256" ascent="205" descent="-51" />
<missing-glyph horiz-adv-x="500" />
<glyph horiz-adv-x="0" />
<glyph horiz-adv-x="0" />
<glyph unicode="&#xd;" horiz-adv-x="85" />
<glyph unicode="!" horiz-adv-x="66" d="M16 0v32h34v-32h-34zM16 52v119h34v-119h-34z" />
<glyph unicode="&#x22;" horiz-adv-x="105" d="M14 101v67h29v-67h-29zM64 101v67h28v-67h-28z" />
<glyph unicode="#" d="M0 44l7 20h27l14 42h-26l7 21h27l15 44h25l-15 -44h26l15 44h26l-16 -44h26l-6 -21h-27l-15 -42h27l-7 -20h-28l-15 -44h-25l15 44h-25l-16 -44h-26l16 44h-26zM59 64h25l15 42h-25z" />
<glyph unicode="$" horiz-adv-x="163" d="M9 24l21 28q20 -20 45 -22v34q-6 1 -11 2t-11 2.5t-10.5 4t-9 6t-7 7.5t-4.5 9.5t-2 12.5q0 20 14.5 32.5t40.5 15.5v21h23v-21q32 -3 56 -24l-21 -27q-16 14 -35 18v-31q6 -2 11 -3.5t11.5 -3.5t11 -4.5t8.5 -6.5t7 -8t5 -10t2 -13q0 -19 -14.5 -31t-41.5 -14v-22h-23 v21q-40 2 -66 27zM58 111q0 -5 4.5 -8t12.5 -6v27q-9 -1 -13 -4t-4 -9zM98 30q18 3 18 15q0 10 -18 14v-29z" />
<glyph unicode="%" horiz-adv-x="198" d="M3 130q0 18 12.5 30.5t33.5 12.5t33 -12q13 -13 13 -31t-12.5 -30t-33.5 -12q-20 0 -33 12t-13 30zM28 130q0 -10 6 -16t15 -6q10 0 16 6t6 16t-6.5 16.5t-15.5 6.5t-15 -6.5t-6 -16.5zM47 7q0 2 1 4l94 156q3 3 6 3h4q4 -2 4 -7q0 -2 -1 -4l-94 -155q-2 -3 -6 -4 q-2 0 -4 1q-4 2 -4 6zM103 39q0 18 12.5 30.5t33.5 12.5q20 0 33 -12t13 -31q0 -18 -13 -30t-33 -12t-33 12t-13 30zM127 39q0 -10 6 -16t16 -6t15.5 6t5.5 16t-6 16.5t-15 6.5t-15.5 -6.5t-6.5 -16.5z" />
<glyph unicode="&#x26;" d="M4 38q0 7 3 14t8 12.5t10 9.5t12 9q-5 6 -9 10.5t-7 11t-3 13.5q0 8 3 15t8.5 12.5t14.5 9t20 3.5q20 0 32.5 -11t12.5 -29q0 -6 -2 -11.5t-5.5 -10.5t-7.5 -8.5t-9 -7.5q6 -6 22 -19l11 28l30 -12q-10 -26 -16 -37q9 -7 24 -17l-17 -27q-18 12 -26 18q-8 -8 -21.5 -12.5 t-27.5 -4.5q-11 0 -21 2.5t-19 7.5t-14.5 13t-5.5 18zM38 38q0 -4 3 -6t7 -3.5t8 -2t8 -0.5q8 0 15 2t11 6q-27 26 -31 31q-5 -3 -8 -5t-6.5 -5.5t-5 -7.5t-1.5 -9zM50 117q0 -3 1.5 -6.5t3.5 -5.5l5 -5l4 -4l2 2l4.5 4.5t3 4t2.5 5t1 5.5q0 5 -3.5 8.5t-9.5 3.5 q-5 0 -9.5 -4t-4.5 -8z" />
<glyph unicode="'" horiz-adv-x="51" d="M8 123l11 16h-11v42h35v-42l-14 -16h-21z" />
<glyph unicode="(" horiz-adv-x="77" d="M10 62q0 31 11.5 61.5t31.5 51.5l21 -15q-14 -24 -20.5 -47t-6.5 -51t6.5 -50.5t20.5 -46.5l-21 -16q-20 21 -31.5 51.5t-11.5 61.5z" />
<glyph unicode=")" horiz-adv-x="77" d="M4 -35q14 24 20.5 46.5t6.5 50.5t-6.5 51t-20.5 47l21 15q20 -21 31.5 -51.5t11.5 -61.5t-11.5 -61.5t-31.5 -51.5z" />
<glyph unicode="*" horiz-adv-x="91" d="M12 123l19 10l-19 11l8 12l19 -10v20h14v-20l19 10l7 -12l-18 -11l18 -10l-7 -12l-19 10v-20h-14v20l-19 -10z" />
<glyph unicode="+" horiz-adv-x="131" d="M13 62v20h41v41h24v-41h40v-20h-40v-43h-24v43h-41z" />
<glyph unicode="," horiz-adv-x="67" d="M16 0v42h35v-42l-14 -16h-21l11 16h-11z" />
<glyph unicode="-" horiz-adv-x="78" d="M4 44v28h71v-28h-71z" />
<glyph unicode="." horiz-adv-x="67" d="M16 0v42h35v-42h-35z" />
<glyph unicode="/" horiz-adv-x="76" d="M-2 5l58 164l22 -7l-58 -164z" />
<glyph unicode="0" horiz-adv-x="161" d="M9 77q0 17 4.5 31t13 25t22.5 17t32 6q15 0 27 -4t20 -11t14 -17t8.5 -22t2.5 -25q0 -17 -4.5 -31.5t-13 -25.5t-22.5 -17t-32 -6t-32 6t-22.5 17t-13 25.5t-4.5 31.5zM47 77q0 -24 8 -36t26 -12t26 11.5t8 36t-8 36t-26 11.5t-26 -11.5t-8 -35.5z" />
<glyph unicode="1" horiz-adv-x="107" d="M3 121v32h87v-153h-37v121h-50z" />
<glyph unicode="2" horiz-adv-x="150" d="M11 128q12 14 29 21q18 7 36 7q29 0 46 -13.5t17 -38.5q0 -9 -2.5 -16t-6.5 -13t-13.5 -13.5t-17.5 -13l-24 -16.5h64v-32h-127v29q10 7 21.5 15t18.5 12.5t14.5 10t12 8.5t9 7t6.5 6.5l4 5t3 5.5t1 5q0 20 -26 20q-14 0 -24 -5t-20 -15z" />
<glyph unicode="3" horiz-adv-x="153" d="M5 24l20 25q9 -9 22 -14.5t26 -5.5q16 0 24.5 6t8.5 16t-8.5 15t-26.5 5h-9l-8 23l36 27h-80v32h130v-25l-49 -38q24 -2 38 -14t14 -29q0 -22 -19 -36t-50 -14q-23 0 -41 7.5t-28 19.5z" />
<glyph unicode="4" horiz-adv-x="155" d="M11 28v28l65 97h51v-93h22v-32h-22v-28h-37v28h-79zM47 60h43v61z" />
<glyph unicode="5" d="M13 22l21 26q18 -19 46 -19q15 0 23.5 6.5t8.5 16.5q0 11 -8 17t-23 6q-22 0 -37 -14h-26v92h120v-32h-83v-32q17 9 39 9q11 0 21 -2.5t17.5 -7.5t12.5 -14q5 -8 5 -20q0 -27 -19 -42t-51 -15q-43 -1 -67 25z" />
<glyph unicode="6" d="M9 77q0 17 5.5 31.5t15.5 25t25.5 16.5t34.5 6q31 0 52 -17l-16 -29q-8 7 -16.5 10.5t-19.5 3.5q-20 0 -32 -11t-12 -31l2 2t5.5 4t9 5t12.5 3.5t16 1.5q16 0 28.5 -4.5t20.5 -15t8 -25.5q0 -25 -17.5 -40.5t-46.5 -15.5q-17 0 -30 5t-21.5 13t-13.5 18.5t-7.5 21.5 t-2.5 22zM48 52q0 -10 9.5 -16.5t23.5 -6.5q13 0 21.5 6.5t8.5 16.5t-8.5 16.5t-21.5 6.5q-14 0 -23.5 -6.5t-9.5 -16.5z" />
<glyph unicode="7" horiz-adv-x="142" d="M6 121v32h131v-25l-57 -128h-41l55 121h-88z" />
<glyph unicode="8" horiz-adv-x="155" d="M11 42q0 15 9 25t25 16q-9 3 -14.5 9t-7.5 12t-2 12q0 17 16.5 28.5t40.5 11.5q25 0 41 -12q16 -10 16 -28q0 -6 -2 -12t-7.5 -12t-14.5 -9q16 -6 25 -16t9 -25q0 -12 -5 -20.5t-14.5 -14t-21.5 -8t-26 -2.5t-26 2.5t-21.5 8t-14.5 14t-5 20.5zM48 46q0 -9 8.5 -14.5 t21.5 -5.5t21.5 5.5t8.5 14.5q0 10 -8 15t-22 5t-22 -5t-8 -15zM54 111q0 -8 6.5 -12.5t17.5 -4.5t17.5 4.5t6.5 12.5t-7 13t-17 5t-17 -5t-7 -13z" />
<glyph unicode="9" d="M9 100q0 25 17.5 40.5t46.5 15.5q17 0 30 -5t21.5 -13t14 -18.5t7.5 -21.5t2 -22q0 -17 -5.5 -31.5t-15.5 -25t-25.5 -16.5t-34.5 -6q-15 0 -28.5 4.5t-22.5 13.5l16 28q8 -7 16 -10.5t19 -3.5q20 0 32 11t12 31l-2 -2t-5.5 -3.5l-9 -5t-12.5 -4t-16 -1.5 q-16 0 -28.5 4.5t-20.5 15t-8 25.5zM47 101q0 -10 8 -16t21 -6q14 0 23.5 6t9.5 16t-9.5 16.5t-23.5 6.5q-13 0 -21 -6.5t-8 -16.5z" />
<glyph unicode=":" horiz-adv-x="66" d="M16 0v42h34v-42h-34zM16 81v43h34v-43h-34z" />
<glyph unicode=";" horiz-adv-x="66" d="M16 0v42h34v-42l-14 -16h-20l11 16h-11zM16 81v43h34v-43h-34z" />
<glyph unicode="&#x3c;" horiz-adv-x="129" d="M10 62v20l99 47l10 -19l-79 -38l79 -37l-10 -19z" />
<glyph unicode="=" horiz-adv-x="129" d="M7 38v20h115v-20h-115zM7 86v21h115v-21h-115z" />
<glyph unicode="&#x3e;" horiz-adv-x="129" d="M10 35l79 37l-79 38l10 19l99 -47v-20l-99 -46z" />
<glyph unicode="?" horiz-adv-x="119" d="M0 148q11 12 26.5 18.5t32.5 6.5q13 0 24 -4t18 -11t11 -16t4 -19t-5 -18.5t-12 -13.5t-14.5 -8.5t-13.5 -3.5v-27h-34v48q11 0 19.5 2t14.5 7t6 14q0 7 -5.5 12.5t-15.5 5.5q-20 0 -34 -16zM37 0v32h34v-32h-34z" />
<glyph unicode="@" horiz-adv-x="203" d="M8 72.5q0 18.5 7.5 35.5t20 29t30 19t36.5 7q26 0 47 -12t33 -32.5t12 -45.5q0 -15 -3 -25t-8 -16t-11 -8t-14 -2q-15 0 -26 15q-14 -15 -35 -15q-24 0 -38 15t-14 37t14.5 37t37.5 15q5 0 10.5 -1t12 -5t10.5 -11v15h25v-61v-5.5v-5t0.5 -5.5t2 -4.5t3 -3.5t4.5 -1 q9 0 13 8t4 26q0 22 -10 40.5t-28 29t-42 10.5q-18 0 -33 -6.5t-26 -17t-17 -24.5q-6 -16 -6 -32q0 -22 10.5 -40t29.5 -28.5t42 -10.5q20 0 38 9l7 -10q-21 -10 -45 -10q-20 0 -37 7t-29.5 19.5t-20 29t-7.5 35zM72 74q0 -12 8 -19.5t21 -7.5q14 0 21.5 7.5t7.5 19.5 t-7.5 20t-21.5 8t-21.5 -8t-7.5 -20z" />
<glyph unicode="A" horiz-adv-x="166" d="M0 0l60 153h46l60 -153h-40l-10 25h-66l-9 -25h-41zM60 57h46l-23 60z" />
<glyph unicode="B" horiz-adv-x="170" d="M17 0v153h90q22 0 33.5 -11.5t11.5 -29.5q0 -11 -7 -20t-18 -12q14 0 24.5 -10.5t10.5 -25.5q0 -9 -3 -16.5t-8.5 -14t-14.5 -10t-20 -3.5h-99zM54 32h50q20 0 20 16q0 7 -5 11t-15 4h-50v-31zM54 92h42q18 0 18 15q0 7 -5 10.5t-13 3.5h-42v-29z" />
<glyph unicode="C" horiz-adv-x="168" d="M9 76q0 23 11.5 41.5t30.5 28.5t43 10q44 0 65 -38l-28 -13q-5 9 -15 14t-22 5q-22 0 -34.5 -13t-12.5 -34.5t12.5 -34.5t34.5 -13q12 0 22 5t15 14l28 -13q-22 -38 -65 -38q-24 0 -43 10t-30.5 28t-11.5 41z" />
<glyph unicode="D" horiz-adv-x="177" d="M17 0v153h69q37 0 60 -21t23 -56q0 -23 -10.5 -40t-29.5 -26.5t-43 -9.5h-69zM54 32h28q23 0 36 12t13 32q0 21 -12.5 33t-36.5 12h-28v-89z" />
<glyph unicode="E" horiz-adv-x="149" d="M17 0v153h123v-32h-86v-28h76v-32h-76v-29h86v-32h-123z" />
<glyph unicode="F" horiz-adv-x="149" d="M17 0v153h123v-32h-86v-28h76v-32h-76v-61h-37z" />
<glyph unicode="G" horiz-adv-x="177" d="M9 76.5q0 22.5 10.5 41t29.5 28.5t42 10q44 0 65 -38l-28 -13q-5 9 -15 14t-22 5q-20 0 -32 -13.5t-12 -33.5q0 -21 12 -34.5t32 -13.5q29 0 39 26h-39v32h77v-3q0 -40 -21 -63.5t-56 -23.5q-23 0 -42 10t-29.5 28.5t-10.5 41z" />
<glyph unicode="H" horiz-adv-x="179" d="M17 0v153h37v-58h72v58h36v-153h-36v63h-72v-63h-37z" />
<glyph unicode="I" horiz-adv-x="70" d="M17 0v153h37v-153h-37z" />
<glyph unicode="J" horiz-adv-x="154" d="M0 21l20 26q9 -8 21 -13.5t24 -5.5q35 0 35 49v76h37v-76v-8t-0.5 -9.5t-2 -11.5t-4 -12t-6 -12t-9 -10.5t-12.5 -9t-16.5 -5.5t-21.5 -2q-38 0 -65 24z" />
<glyph unicode="K" d="M17 0v153h37v-69l55 69h46l-63 -73l66 -80h-46l-44 58l-14 -16v-42h-37z" />
<glyph unicode="L" horiz-adv-x="130" d="M17 0v153h37v-121h74v-32h-111z" />
<glyph unicode="M" horiz-adv-x="222" d="M17 0v153h45l49 -68l49 68h46v-153h-38v106l-54 -75h-6l-54 75v-106h-37z" />
<glyph unicode="N" horiz-adv-x="176" d="M17 0v153h38l67 -89v89h37v-153h-35l-70 94v-94h-37z" />
<glyph unicode="O" horiz-adv-x="181" d="M9 76.5q0 22.5 10.5 41t29.5 28.5t42 10t42 -10t29 -28.5t10 -41t-10 -41t-29 -28.5t-42 -10t-42 10t-29.5 28.5t-10.5 41zM47 77q0 -21 12 -34.5t32 -13.5t32 13.5t12 34.5q0 20 -12.5 33.5t-31.5 13.5q-20 0 -32 -13.5t-12 -33.5z" />
<glyph unicode="P" horiz-adv-x="169" d="M17 0v153h83q14 0 26 -4.5t19.5 -12t11.5 -17.5t4 -21t-4 -21t-11.5 -17.5t-19.5 -12t-26 -4.5h-46v-43h-37zM54 75h42q12 0 19.5 6t7.5 17t-7.5 17t-19.5 6h-42v-46z" />
<glyph unicode="Q" horiz-adv-x="181" d="M9 76q0 23 10.5 41.5t29.5 28.5t42 10t42 -10t29 -28q10 -20 10 -42q0 -31 -18.5 -52.5t-48.5 -25.5v-28h-29v28q-30 4 -48.5 25.5t-18.5 52.5zM47 77q0 -16 8 -29q7 -12 21 -17v17h29v-17q14 4 22 16.5t8 29.5q0 20 -12.5 33.5t-31.5 13.5q-20 0 -32 -13.5t-12 -33.5z " />
<glyph unicode="R" horiz-adv-x="169" d="M17 0v153h83q28 0 44.5 -15.5t16.5 -39.5q0 -11 -3.5 -20t-9.5 -15t-12.5 -10t-14.5 -6l30 -47h-44l-25 43h-28v-43h-37zM54 75h42q12 0 19.5 6t7.5 17q0 10 -7.5 16.5t-19.5 6.5h-42v-46z" />
<glyph unicode="S" horiz-adv-x="163" d="M9 24l21 28q23 -23 53 -23h2q30 0 31 16q0 4 -3.5 7.5t-9 5t-12.5 3t-15 3l-16 3t-15 5t-12.5 8t-9 11.5t-3.5 17q0 22 17.5 35t48.5 13q41 0 68 -24l-21 -27q-22 19 -50 19q-13 0 -19 -3t-6 -10q0 -4 3.5 -7t9 -5t12.5 -3.5t15 -3.5t16 -4.5t15 -6t12.5 -8.5t9 -12.5 t3.5 -17.5q0 -21 -18 -33q-18 -13 -52 -13q-25 0 -43 7t-32 20z" />
<glyph unicode="T" horiz-adv-x="152" d="M4 121v32h144v-32h-53v-121h-38v121h-53z" />
<glyph unicode="U" horiz-adv-x="168" d="M9 68v85h38v-84q0 -40 37 -40q20 0 28.5 10.5t8.5 29.5v84h38v-85q0 -71 -73 -71h-2q-20 0 -34.5 5t-23.5 14.5t-13 22.5t-4 29z" />
<glyph unicode="V" horiz-adv-x="173" d="M0 153h43l44 -113l43 113h44l-63 -153h-49z" />
<glyph unicode="W" horiz-adv-x="238" d="M0 153h42l28 -106l34 106h30l35 -106l27 106h42l-46 -153h-41l-32 100l-31 -100h-41z" />
<glyph unicode="X" horiz-adv-x="170" d="M0 0l59 79l-55 74h46l35 -49l35 49h46l-55 -74l59 -79h-46l-39 54l-39 -54h-46z" />
<glyph unicode="Y" horiz-adv-x="165" d="M0 153h43l40 -60l39 60h43l-63 -93v-60h-38v60z" />
<glyph unicode="Z" horiz-adv-x="156" d="M17 0v30l72 91h-72v32h123v-29l-73 -92h73v-32h-123z" />
<glyph unicode="[" horiz-adv-x="72" d="M11 -49v223h59v-22h-34v-179h34v-22h-59z" />
<glyph unicode="\" horiz-adv-x="76" d="M-2 162l22 7l58 -164l-22 -7z" />
<glyph unicode="]" horiz-adv-x="73" d="M4 -27h33v179h-33v22h58v-223h-58v22z" />
<glyph unicode="^" horiz-adv-x="83" d="M0 142l24 37h36l24 -37h-28l-14 17l-14 -17h-28z" />
<glyph unicode="_" horiz-adv-x="147" d="M7 -10h133v-22h-133v22z" />
<glyph unicode="`" horiz-adv-x="59" d="M0 179h35l25 -37h-28z" />
<glyph unicode="a" horiz-adv-x="143" d="M6 33q0 8 3.5 15t8.5 12t13 8.5t16 5.5t17.5 3.5t16.5 2t15 0.5q0 9 -5.5 14t-18.5 5h-7t-6 -0.5t-5.5 -1.5t-4.5 -2t-3.5 -1.5t-3.5 -1.5l-3 -1.5t-3 -2.5l-1 -1l-15 21q8 7 23.5 13t28.5 6q27 0 42.5 -14t15.5 -40v-73h-34v19q-8 -11 -19 -16.5t-23 -5.5q-10 0 -18.5 2 t-15 6.5t-10.5 11.5t-4 16zM41 37q0 -16 22 -16q7 0 12 2t8.5 5.5t6 7.5t3.5 8.5t2 8t1 5.5v2q-11 0 -20.5 -1.5t-17.5 -4t-12.5 -7t-4.5 -10.5z" />
<glyph unicode="b" horiz-adv-x="156" d="M14 0v166h34v-64q16 24 41 25q18 0 32.5 -9t22 -23.5t7.5 -32.5t-7 -32.5t-21.5 -23.5t-33.5 -9q-4 0 -8.5 1t-10.5 3t-12 6.5t-10 11.5v-19h-34zM48 62q0 -15 9 -25.5t24.5 -10.5t25 10.5t9.5 25.5t-9.5 25.5t-25 10.5t-24.5 -10.5t-9 -25.5z" />
<glyph unicode="c" horiz-adv-x="130" d="M6 62q0 28 19.5 46.5t49.5 18.5q19 0 32 -6.5t20 -16.5l-22 -20q-10 13 -28 14q-16 0 -26 -10t-10 -26t10 -26t26 -10q18 0 28 13l22 -19q-7 -10 -20 -16.5t-32 -6.5q-30 0 -49.5 18.5t-19.5 46.5z" />
<glyph unicode="d" horiz-adv-x="156" d="M6 62q0 18 7.5 32.5t22 23.5t32.5 9q25 0 41 -25v64h34v-166h-34v19q-4 -7 -10 -11.5t-12 -6.5t-10.5 -3t-8.5 -1q-14 0 -26 5t-20 14t-12 21t-4 25zM41 62q0 -15 9.5 -25.5t25 -10.5t24.5 10.5t9 25.5t-9 25.5t-24.5 10.5t-25 -10.5t-9.5 -25.5z" />
<glyph unicode="e" horiz-adv-x="145" d="M6 62q0 18 8.5 32.5t24 23.5t35.5 9q30 0 48 -19t18 -49v-8h-98q2 -12 12 -19.5t26 -7.5q9 0 18.5 3t15.5 9l16 -22q-10 -8 -24 -12.5t-30 -4.5q-30 0 -50 18t-20 47zM42 74h64q0 5 -2 9t-5.5 8t-10 6.5t-14.5 2.5q-15 0 -23 -7.5t-9 -18.5z" />
<glyph unicode="f" horiz-adv-x="86" d="M6 90v28h15q0 14 9 26t23 18.5t29 6.5v-29q-10 0 -18.5 -6t-8.5 -16h27v-28h-27v-90h-34v90h-15z" />
<glyph unicode="g" horiz-adv-x="156" d="M6 62q0 18 7.5 32.5t22 23.5t32.5 9q24 0 41 -25v22h34v-113q0 -13 -4.5 -24t-13 -19.5t-22 -13t-31.5 -4.5q-10 0 -19.5 2t-16 4t-12.5 5l-9 4.5t-3 2.5l14 23q19 -15 40 -15q24 0 33.5 10.5t9.5 32.5q-4 -7 -10 -11.5t-11.5 -6.5t-10.5 -3t-9 -1q-14 0 -26 5t-20 14 t-12 21t-4 25zM42 62q0 -15 9 -25.5t24 -10.5q16 0 25 10.5t9 25.5t-9 25.5t-25 10.5t-24.5 -10.5t-8.5 -25.5z" />
<glyph unicode="h" d="M14 0v166h34v-64q7 11 17.5 18t25.5 7q24 0 38.5 -14.5t14.5 -39.5v-73h-34v64q0 18 -7 26t-23 8q-5 0 -10.5 -2t-10.5 -6t-8 -11t-3 -16v-63h-34z" />
<glyph unicode="i" horiz-adv-x="66" d="M16 0v124h34v-124h-34zM16 139v32h34v-32h-34z" />
<glyph unicode="j" horiz-adv-x="67" d="M-54 -44l10 24q1 0 2.5 -0.5t2.5 -1t3 -1t3.5 -0.5t3.5 -0.5t4 -0.5q24 0 33 10.5t9 32.5v105h35v-113q0 -13 -4.5 -24t-13 -19.5t-22.5 -13t-31 -4.5t-35 6zM17 139v32h35v-32h-35z" />
<glyph unicode="k" horiz-adv-x="144" d="M14 0v166h34v-97l50 55h42l-51 -56l53 -68h-43l-35 48l-16 -16v-32h-34z" />
<glyph unicode="l" horiz-adv-x="66" d="M16 0v166h34v-166h-34z" />
<glyph unicode="m" horiz-adv-x="254" d="M14 0v124h34v-22q7 11 17.5 18t25.5 7q16 0 27.5 -6.5t18.5 -17.5q18 24 50 24q24 0 39 -14.5t15 -39.5v-73h-35v64q0 18 -6.5 26t-22.5 8q-5 0 -11 -2t-11 -6t-8 -11t-3 -16v-63h-34v64q0 18 -7 26t-23 8q-5 0 -10.5 -2t-10.5 -6t-8 -11t-3 -16v-63h-34z" />
<glyph unicode="n" d="M14 0v124h34v-22q7 11 17.5 18t25.5 7q24 0 38.5 -14.5t14.5 -39.5v-73h-34v64q0 18 -7 26t-23 8q-5 0 -10.5 -2t-10.5 -6t-8 -11t-3 -16v-63h-34z" />
<glyph unicode="o" horiz-adv-x="150" d="M6 62q0 13 5 25t13.5 20.5t21.5 14t29 5.5t29 -5.5t22 -14t13.5 -20.5t4.5 -25t-4.5 -25t-13.5 -21t-22 -14t-29 -5t-29 5t-21.5 14t-13.5 21t-5 25zM41 62q0 -15 9 -25.5t25 -10.5t25 10.5t9 25.5t-9 25.5t-25 10.5t-25 -10.5t-9 -25.5z" />
<glyph unicode="p" horiz-adv-x="156" d="M14 -47v171h34v-19q4 7 10 11.5t12 6.5t10.5 3t8.5 1q19 0 33.5 -9t21.5 -23.5t7 -32.5t-7.5 -32.5t-22 -23.5t-32.5 -9q-25 0 -41 24v-68h-34zM48 62q0 -15 9 -25.5t24.5 -10.5t25 10.5t9.5 25.5t-9.5 25.5t-24.5 10.5q-16 0 -25 -10.5t-9 -25.5z" />
<glyph unicode="q" horiz-adv-x="156" d="M6 62q0 18 7 32.5t21.5 23.5t33.5 9q4 0 8.5 -1t10.5 -3t11.5 -7t10.5 -11v19h34v-171h-34v68q-16 -24 -41 -24q-18 0 -32.5 9t-22 23.5t-7.5 32.5zM41 62q0 -15 9.5 -25.5t25 -10.5t24.5 10.5t9 25.5t-9 25.5t-25 10.5t-25 -10.5t-9 -25.5z" />
<glyph unicode="r" horiz-adv-x="93" d="M14 0v124h34v-22q17 24 42 24v-31q-3 1 -7 1h-5q-5 0 -10.5 -2t-9.5 -5.5t-7 -10t-3 -15.5v-63h-34z" />
<glyph unicode="s" horiz-adv-x="124" d="M3 16l15 24q8 -7 21 -12.5t25 -5.5q11 0 16.5 4t5.5 10q0 4 -4.5 6.5t-11.5 4t-15 3t-16.5 4t-15.5 6.5t-11 11t-4 17q0 16 14.5 27.5t39.5 11.5q30 0 52 -17l-13 -23q-6 6 -17 10t-22 4q-9 0 -15 -3.5t-6 -8.5q0 -3 3 -5t7.5 -3t10 -2.5t12 -2.5t13 -3t12.5 -5t10.5 -7 t7 -10.5t2.5 -14.5q0 -18 -15 -28.5t-42 -10.5q-17 0 -33 5t-26 14z" />
<glyph unicode="t" horiz-adv-x="86" d="M6 90v28h15v35h34v-35h27v-28h-27v-38q0 -11 8 -18.5t19 -7.5v-29q-17 0 -31 8t-22 21.5t-8 29.5v34h-15z" />
<glyph unicode="u" d="M14 51v73h34v-64q0 -18 7 -26t23 -8q5 0 10.5 2t10.5 6t8 11t3 15v64h34v-124h-34v21q-7 -11 -17.5 -17.5t-24.5 -6.5q-24 0 -39 14t-15 40z" />
<glyph unicode="v" horiz-adv-x="147" d="M2 124h37l35 -86l34 86h37l-53 -124h-37z" />
<glyph unicode="w" horiz-adv-x="214" d="M2 124h37l24 -84l29 84h30l29 -84l25 84h36l-40 -124h-37l-28 84l-27 -84h-38z" />
<glyph unicode="x" horiz-adv-x="141" d="M2 0l47 64l-44 60h39l27 -38l27 38h38l-43 -60l46 -64h-38l-30 42l-30 -42h-39z" />
<glyph unicode="y" horiz-adv-x="159" d="M14 -32l14 23q7 -5 18 -10t23 -5q24 0 33 10.5t9 32.5v2q-7 -11 -17.5 -17.5t-24.5 -6.5q-24 0 -39 14t-15 40v73h34v-64q0 -18 7 -26t23 -8q5 0 10.5 2t10.5 6t8 11t3 15v64h34v-113q0 -13 -4.5 -24t-13 -19.5t-22 -13t-31.5 -4.5q-10 0 -19.5 2t-16 4t-12.5 5t-8.5 4.5 t-3.5 2.5z" />
<glyph unicode="z" horiz-adv-x="139" d="M16 0v24l59 71h-59v29h106v-24l-60 -72h61v-28h-107z" />
<glyph unicode="{" horiz-adv-x="75" d="M0 53v19q7 0 10.5 4.5t3.5 12.5v44q0 12 6 21.5t15.5 14.5t20.5 5h16v-22h-16q-7 0 -12 -5.5t-5 -13.5v-47q0 -18 -12 -24q12 -5 12 -23v-47q0 -8 5 -13.5t12 -5.5h16v-22h-16q-17 0 -29.5 11.5t-12.5 29.5v44q0 8 -3.5 12.5t-10.5 4.5z" />
<glyph unicode="|" horiz-adv-x="56" d="M17 -5v181h23v-181h-23z" />
<glyph unicode="}" horiz-adv-x="75" d="M3 -27h17q7 0 12 5.5t5 13.5v47q0 17 12 23q-12 6 -12 24v47q0 8 -5 13.5t-12 5.5h-17v22h17q17 0 29.5 -11.5t12.5 -29.5v-44q0 -8 3.5 -12.5t10.5 -4.5v-19q-7 0 -10.5 -4.5t-3.5 -12.5v-44q0 -18 -12.5 -29.5t-29.5 -11.5h-17v22z" />
<glyph unicode="~" horiz-adv-x="80" d="M0 142v25h80v-25h-80z" />
<glyph unicode="&#xa8;" horiz-adv-x="87" d="M0 139v32h34v-32h-34zM53 139v32h34v-32h-34z" />
<glyph unicode="&#xa9;" horiz-adv-x="203" d="M8 86q0 24 12.5 44t34 32t47.5 12q19 0 36.5 -7t30 -19t19.5 -28t7 -34t-7 -34.5t-19.5 -28.5t-30 -19t-36.5 -7q-26 0 -47.5 12t-34 32.5t-12.5 44.5zM18 86q0 -21 11 -39.5t30.5 -29.5t42.5 -11t42 11t30.5 29t11.5 40q0 21 -11.5 39t-31 29t-42 11t-42 -11t-30.5 -29 t-11 -39zM44 85.5q0 23.5 17 38.5t42 15q12 0 21.5 -3.5t15 -9t9.5 -12.5l-20 -10q-3 7 -10 11.5t-16 4.5q-15 0 -24.5 -10t-9.5 -24q0 -15 9.5 -24.5t24.5 -9.5q8 0 15 4t11 10l20 -9q-15 -25 -46 -25q-25 0 -42 15t-17 38.5z" />
<glyph unicode="&#xab;" horiz-adv-x="134" d="M8 62l41 46h30l-41 -46l41 -46h-30zM56 62l41 46h30l-41 -46l41 -46h-30z" />
<glyph unicode="&#xae;" horiz-adv-x="129" d="M7 119q0 23 17 39q16 15 40 15t41 -15.5t17 -38.5q0 -22 -17 -38t-41 -16q-16 0 -29 7t-20.5 19.5t-7.5 27.5zM16 119q0 -19 14 -32.5t34.5 -13.5t34.5 13.5t14 32.5t-14 32.5t-34.5 13.5t-34.5 -13.5t-14 -32.5zM42 88v62h27q9 0 15.5 -5t6.5 -14q0 -5 -2 -8.5t-5 -5.5 t-5.5 -3t-4.5 -1l18 -25h-12l-17 24h-11v-24h-10zM52 120h17q5 0 8.5 3t3.5 8t-3.5 8t-8.5 3h-17v-22z" />
<glyph unicode="&#xb4;" horiz-adv-x="59" d="M0 142l24 37h36l-32 -37h-28z" />
<glyph unicode="&#xb8;" horiz-adv-x="31" d="M-2 -30l11 28h23l-11 -28h-23z" />
<glyph unicode="&#xbb;" horiz-adv-x="134" d="M8 16l41 46l-41 46h30l41 -46l-41 -46h-30zM56 16l41 46l-41 46h30l41 -46l-41 -46h-30z" />
<glyph unicode="&#xc0;" horiz-adv-x="166" d="M0 0l60 153h46l60 -153h-40l-10 25h-66l-9 -25h-41zM53 208h36l24 -36h-28zM60 57h46l-23 60z" />
<glyph unicode="&#xc2;" horiz-adv-x="166" d="M0 0l60 153h46l60 -153h-40l-10 25h-66l-9 -25h-41zM41 172l25 36h35l24 -36h-28l-14 16l-14 -16h-28zM60 57h46l-23 60z" />
<glyph unicode="&#xc6;" horiz-adv-x="228" d="M2 0l73 153h147v-32h-86v-28h76v-32h-76v-29h86v-32h-124v25h-43l-11 -25h-42zM70 57h28v60z" />
<glyph unicode="&#xc7;" horiz-adv-x="179" d="M12 76q0 23 11 41.5t31 28.5q18 10 42 10q44 0 66 -38l-29 -13q-5 9 -15 14t-22 5q-22 0 -34.5 -13t-12.5 -34.5t13 -34.5q12 -13 34 -13q12 0 22 5t15 14l29 -13q-19 -33 -56 -37l-10 -28h-23l10 28q-31 4 -51 25t-20 53z" />
<glyph unicode="&#xc8;" horiz-adv-x="149" d="M17 0v153h123v-32h-86v-28h76v-32h-76v-29h86v-32h-123zM37 208h35l25 -36h-28z" />
<glyph unicode="&#xc9;" horiz-adv-x="149" d="M17 0v153h123v-32h-86v-28h76v-32h-76v-29h86v-32h-123zM58 172l24 36h35l-31 -36h-28z" />
<glyph unicode="&#xca;" horiz-adv-x="149" d="M17 0v153h123v-32h-86v-28h76v-32h-76v-29h86v-32h-123zM38 172l24 36h35l25 -36h-28l-14 16l-14 -16h-28z" />
<glyph unicode="&#xcb;" horiz-adv-x="149" d="M17 0v153h123v-32h-86v-28h76v-32h-76v-29h86v-32h-123zM36 168v32h34v-32h-34zM89 168v32h34v-32h-34z" />
<glyph unicode="&#xce;" horiz-adv-x="70" d="M-6 172l24 36h35l25 -36h-28l-14 16l-14 -16h-28zM17 0v153h37v-153h-37z" />
<glyph unicode="&#xcf;" horiz-adv-x="70" d="M-8 168v32h34v-32h-34zM17 0v153h37v-153h-37zM45 168v32h34v-32h-34z" />
<glyph unicode="&#xd4;" horiz-adv-x="181" d="M9 76.5q0 22.5 10.5 41t29.5 28.5t42 10t42 -10t29 -28.5t10 -41t-10 -41t-29 -28.5t-42 -10t-42 10t-29.5 28.5t-10.5 41zM47 77q0 -21 12 -34.5t32 -13.5t32 13.5t12 34.5q0 20 -12.5 33.5t-31.5 13.5q-20 0 -32 -13.5t-12 -33.5zM49 172l24 36h35l25 -36h-28l-14 16 l-15 -16h-27z" />
<glyph unicode="&#xd9;" horiz-adv-x="168" d="M9 68v85h38v-84q0 -40 37 -40q20 0 28.5 10.5t8.5 29.5v84h38v-85q0 -72 -75 -71q-20 0 -34.5 5t-23.5 14.5t-13 22.5t-4 29zM42 208h35l24 -36h-28z" />
<glyph unicode="&#xdb;" horiz-adv-x="168" d="M9 68v85h38v-84q0 -40 37 -40q20 0 28.5 10.5t8.5 29.5v84h38v-85q0 -72 -75 -71q-20 0 -34.5 5t-23.5 14.5t-13 22.5t-4 29zM42 172l24 36h36l24 -36h-28l-14 16l-14 -16h-28z" />
<glyph unicode="&#xdc;" horiz-adv-x="168" d="M9 68v85h38v-84q0 -40 37 -40q20 0 28.5 10.5t8.5 29.5v84h38v-85q0 -72 -75 -71q-20 0 -34.5 5t-23.5 14.5t-13 22.5t-4 29zM40 168v32h34v-32h-34zM93 168v32h34v-32h-34z" />
<glyph unicode="&#xe0;" horiz-adv-x="143" d="M6 33q0 8 3.5 15t8.5 12t13 8.5t16 5.5t17.5 3.5t16.5 2t15 0.5q0 9 -5.5 14t-18.5 5h-7t-6 -0.5t-5.5 -1.5t-4.5 -2t-3.5 -1.5t-3.5 -1.5l-3 -1.5t-3 -2.5l-1 -1l-15 21q8 7 23.5 13t28.5 6q27 0 42.5 -14t15.5 -40v-73h-34v19q-8 -11 -19 -16.5t-23 -5.5q-10 0 -18.5 2 t-15 6.5t-10.5 11.5t-4 16zM32 179h35l24 -37h-27zM41 37q0 -16 22 -16q7 0 12 2t8.5 5.5t6 7.5t3.5 8.5t2 8t1 5.5v2q-11 0 -20.5 -1.5t-17.5 -4t-12.5 -7t-4.5 -10.5z" />
<glyph unicode="&#xe2;" horiz-adv-x="143" d="M6 33q0 8 3.5 15t8.5 12t13 8.5t16 5.5t17.5 3.5t16.5 2t15 0.5q0 9 -5.5 14t-18.5 5h-7t-6 -0.5t-5.5 -1.5t-4.5 -2t-3.5 -1.5t-3.5 -1.5l-3 -1.5t-3 -2.5l-1 -1l-15 21q8 7 23.5 13t28.5 6q27 0 42.5 -14t15.5 -40v-73h-34v19q-8 -11 -19 -16.5t-23 -5.5q-10 0 -18.5 2 t-15 6.5t-10.5 11.5t-4 16zM30 142l24 37h36l24 -37h-28l-14 17l-14 -17h-28zM41 37q0 -16 22 -16q7 0 12 2t8.5 5.5t6 7.5t3.5 8.5t2 8t1 5.5v2q-11 0 -20.5 -1.5t-17.5 -4t-12.5 -7t-4.5 -10.5z" />
<glyph unicode="&#xe6;" horiz-adv-x="233" d="M6 33q0 8 3.5 15t8.5 12t13 8.5t16 5.5t17.5 3.5t16.5 2t15 0.5q0 9 -5.5 14t-18.5 5h-7t-6 -0.5t-5.5 -1.5t-4.5 -2t-3.5 -1.5t-3.5 -1.5l-3 -1.5t-3 -2.5l-1 -1l-15 21q8 7 23.5 13t28.5 6q32 1 48 -19q14 19 42 19q30 0 48 -19t18 -49v-8h-98q2 -12 12 -19.5t26 -7.5 q9 0 19 3t16 9l15 -22q-10 -8 -24 -12.5t-30 -4.5q-19 0 -34 13v-10h-34v19q-8 -11 -19 -16.5t-23 -5.5q-10 0 -18.5 2t-15 6.5t-10.5 11.5t-4 16zM41 37q0 -16 22 -16q7 0 12 2t8.5 5.5t6 7.5t3.5 8.5t2 8t1 5.5v2q-11 0 -20.5 -1.5t-17.5 -4t-12.5 -7t-4.5 -10.5zM130 74 h64q0 5 -2 9t-5.5 8t-10 6.5t-14.5 2.5q-15 0 -23 -7.5t-9 -18.5z" />
<glyph unicode="&#xe7;" horiz-adv-x="130" d="M6 62q0 28 19.5 46.5t49.5 18.5q19 0 32 -6.5t20 -16.5l-22 -20q-10 13 -28 14q-16 0 -26 -10t-10 -26t10 -26t26 -10q18 0 28 13l22 -19q-14 -18 -40 -22l-11 -28h-22l10 28q-26 4 -42 21t-16 43z" />
<glyph unicode="&#xe8;" horiz-adv-x="145" d="M6 62q0 18 8.5 32.5t24 23.5t35.5 9q30 0 48 -19t18 -49v-8h-98q2 -12 12 -19.5t26 -7.5q9 0 18.5 3t15.5 9l16 -22q-10 -8 -24 -12.5t-30 -4.5q-30 0 -50 18t-20 47zM35 179h35l25 -37h-28zM42 74h64q0 5 -2 9t-5.5 8t-10 6.5t-14.5 2.5q-15 0 -23 -7.5t-9 -18.5z" />
<glyph unicode="&#xe9;" horiz-adv-x="145" d="M6 62q0 18 8.5 32.5t24 23.5t35.5 9q30 0 48 -19t18 -49v-8h-98q2 -12 12 -19.5t26 -7.5q9 0 18.5 3t15.5 9l16 -22q-10 -8 -24 -12.5t-30 -4.5q-30 0 -50 18t-20 47zM42 74h64q0 5 -2 9t-5.5 8t-10 6.5t-14.5 2.5q-15 0 -23 -7.5t-9 -18.5zM56 142l24 37h35l-31 -37h-28 z" />
<glyph unicode="&#xea;" horiz-adv-x="145" d="M6 62q0 18 8.5 32.5t24 23.5t35.5 9q30 0 48 -19t18 -49v-8h-98q2 -12 12 -19.5t26 -7.5q9 0 18.5 3t15.5 9l16 -22q-10 -8 -24 -12.5t-30 -4.5q-30 0 -50 18t-20 47zM32 142l24 37h35l25 -37h-28l-14 17l-14 -17h-28zM42 74h64q0 5 -2 9t-5.5 8t-10 6.5t-14.5 2.5 q-15 0 -23 -7.5t-9 -18.5z" />
<glyph unicode="&#xeb;" horiz-adv-x="145" d="M6 62q0 18 8.5 32.5t24 23.5t35.5 9q30 0 48 -19t18 -49v-8h-98q2 -12 12 -19.5t26 -7.5q9 0 18.5 3t15.5 9l16 -22q-10 -8 -24 -12.5t-30 -4.5q-30 0 -50 18t-20 47zM30 139v32h34v-32h-34zM42 74h64q0 5 -2 9t-5.5 8t-10 6.5t-14.5 2.5q-15 0 -23 -7.5t-9 -18.5z M83 139v32h34v-32h-34z" />
<glyph unicode="&#xee;" horiz-adv-x="66" d="M-9 142l24 37h36l24 -37h-28l-14 17l-14 -17h-28zM16 0v124h34v-124h-34z" />
<glyph unicode="&#xef;" horiz-adv-x="66" d="M-10 139v32h34v-32h-34zM16 0v124h34v-124h-34zM43 139v32h34v-32h-34z" />
<glyph unicode="&#xf4;" horiz-adv-x="150" d="M6 62q0 13 5 25t13.5 20.5t21.5 14t29 5.5t29 -5.5t22 -14t13.5 -20.5t4.5 -25t-4.5 -25t-13.5 -21t-22 -14t-29 -5t-29 5t-21.5 14t-13.5 21t-5 25zM33 142l24 37h36l24 -37h-28l-14 17l-14 -17h-28zM41 62q0 -15 9 -25.5t25 -10.5t25 10.5t9 25.5t-9 25.5t-25 10.5 t-25 -10.5t-9 -25.5z" />
<glyph unicode="&#xf9;" d="M14 51v73h34v-64q0 -18 7 -26t23 -8q5 0 10.5 2t10.5 6t8 11t3 15v64h34v-124h-34v21q-7 -11 -17.5 -17.5t-24.5 -6.5q-24 0 -39 14t-15 40zM39 179h35l24 -37h-27z" />
<glyph unicode="&#xfb;" d="M14 51v73h34v-64q0 -18 7 -26t23 -8q5 0 10.5 2t10.5 6t8 11t3 15v64h34v-124h-34v21q-7 -11 -17.5 -17.5t-24.5 -6.5q-24 0 -39 14t-15 40zM37 142l25 37h35l24 -37h-28l-14 17l-14 -17h-28z" />
<glyph unicode="&#xfc;" d="M14 51v73h34v-64q0 -18 7 -26t23 -8q5 0 10.5 2t10.5 6t8 11t3 15v64h34v-124h-34v21q-7 -11 -17.5 -17.5t-24.5 -6.5q-24 0 -39 14t-15 40zM36 139v32h34v-32h-34zM88 139v32h35v-32h-35z" />
<glyph unicode="&#xff;" horiz-adv-x="159" d="M14 -32l14 23q7 -5 18 -10t23 -5q24 0 33 10.5t9 32.5v2q-7 -11 -17.5 -17.5t-24.5 -6.5q-24 0 -39 14t-15 40v73h34v-64q0 -18 7 -26t23 -8q5 0 10.5 2t10.5 6t8 11t3 15v64h34v-113q0 -13 -4.5 -24t-13 -19.5t-22 -13t-31.5 -4.5q-10 0 -19.5 2t-16 4t-12.5 5t-8.5 4.5 t-3.5 2.5zM35 139v32h35v-32h-35zM88 139v32h34v-32h-34z" />
<glyph unicode="&#x152;" horiz-adv-x="273" d="M9 76.5q0 22.5 10.5 41t29.5 28.5t42 10q25 0 44 -17v14h123v-32h-86v-28h77v-32h-77v-29h86v-32h-123v14q-19 -17 -44 -17q-23 0 -42 10t-29.5 28.5t-10.5 41zM47 77q0 -21 12 -34.5t32 -13.5t32 13.5t12 34.5q0 20 -12 33.5t-32 13.5t-32 -13.5t-12 -33.5z" />
<glyph unicode="&#x153;" horiz-adv-x="242" d="M4 62q0 13 4.5 25t13.5 20.5t22 14t29 5.5q10 0 18.5 -2.5t14.5 -7t10 -8.5t8 -10q20 27 51 28q29 0 47 -19t18 -49v-8h-97q2 -12 11.5 -19.5t25.5 -7.5q9 0 19 3t16 9l16 -22q-10 -8 -24.5 -12.5t-29.5 -4.5q-10 0 -19 2.5t-15.5 7t-10.5 8.5t-8 9q-20 -28 -51 -27 q-16 0 -29 5t-22 14t-13.5 21t-4.5 25zM40 62q0 -16 9 -26t24 -10t24.5 10t9.5 26t-9.5 26t-24.5 10t-24 -10t-9 -26zM142 74h65q0 5 -2 9t-6 8t-10 6.5t-14 2.5q-10 0 -17.5 -4t-11 -9.5t-4.5 -12.5z" />
<glyph unicode="&#x178;" horiz-adv-x="165" d="M0 153h43l40 -60l39 60h43l-63 -93v-60h-38v60zM39 168v32h35v-32h-35zM92 168v32h34v-32h-34z" />
<glyph unicode="&#x2c6;" horiz-adv-x="83" d="M0 142l24 37h36l24 -37h-28l-14 17l-14 -17h-28z" />
<glyph unicode="&#x2dc;" horiz-adv-x="80" d="M0 142v25h80v-25h-80z" />
<glyph unicode="&#x2013;" horiz-adv-x="142" d="M10 48v28h123v-28h-123z" />
<glyph unicode="&#x2014;" horiz-adv-x="197" d="M5 48v28h187v-28h-187z" />
<glyph unicode="&#x2018;" horiz-adv-x="51" d="M8 123v42l14 16h21l-11 -16h11v-42h-35z" />
<glyph unicode="&#x2019;" horiz-adv-x="51" d="M8 123l11 16h-11v42h35v-42l-14 -16h-21z" />
<glyph unicode="&#x201a;" horiz-adv-x="67" d="M16 0v42h35v-42l-14 -16h-21l11 16h-11z" />
<glyph unicode="&#x201c;" horiz-adv-x="94" d="M9 123v42l14 16h21l-11 -16h11v-42h-35zM52 123v42l14 16h20l-11 -16h11v-42h-34z" />
<glyph unicode="&#x201d;" horiz-adv-x="94" d="M9 123l11 16h-11v42h35v-42l-14 -16h-21zM52 123l10 16h-10v42h34v-42l-14 -16h-20z" />
<glyph unicode="&#x201e;" horiz-adv-x="94" d="M9 0v42h35v-42l-14 -16h-21l11 16h-11zM52 0v42h34v-42l-14 -16h-20l10 16h-10z" />
<glyph unicode="&#x2026;" horiz-adv-x="191" d="M9 0v42h34v-42h-34zM79 0v42h34v-42h-34zM148 0v42h34v-42h-34z" />
<glyph unicode="&#x2039;" horiz-adv-x="86" d="M8 62l41 46h30l-41 -46l41 -46h-30z" />
<glyph unicode="&#x203a;" horiz-adv-x="86" d="M8 16l41 46l-41 46h30l41 -46l-41 -46h-30z" />
<glyph unicode="&#x20ac;" horiz-adv-x="179" d="M6 51v20h15q-1 1 -1 5q0 5 1 8h-15v20h19q8 24 30 38q23 14 51 14q44 0 65 -38l-29 -13q-5 9 -14.5 14t-21.5 5q-14 0 -24.5 -5t-16.5 -15h46v-20h-52q0 -2 -1 -8v-5h53v-20h-47q6 -11 16 -17q12 -5 26 -5q12 0 21.5 5t14.5 14l29 -13q-21 -38 -65 -38q-29 0 -51 14.5 t-30 39.5h-19z" />
<glyph unicode="&#x2122;" horiz-adv-x="132" d="M4 160v10h52v-10h-21v-48h-10v48h-21zM61 112v58h12l21 -32q2 3 10 14.5t12 17.5h12v-58h-11v42q-4 -6 -11 -16t-10 -15h-3l-21 31v-42h-11z" />
<glyph unicode="&#x25fc;" horiz-adv-x="123" d="M0 0v124h124v-124h-124z" />
</font>
</defs>
</svg>
