<?xml version="1.0" standalone="no"?>
<!DOCTYPE svg PUBLIC "-//W3C//DTD SVG 1.1//EN" "http://www.w3.org/Graphics/SVG/1.1/DTD/svg11.dtd" >
<svg xmlns="http://www.w3.org/2000/svg">
<metadata></metadata>
<defs>
<font id="dilo_45_light45light" horiz-adv-x="147" >
<font-face units-per-em="256" ascent="205" descent="-51" />
<missing-glyph horiz-adv-x="500" />
<glyph horiz-adv-x="0" />
<glyph horiz-adv-x="0" />
<glyph unicode="&#xd;" horiz-adv-x="85" />
<glyph unicode="!" horiz-adv-x="45" d="M16 0v32h14v-32h-14zM16 52v101h14v-101h-14z" />
<glyph unicode="&#x22;" horiz-adv-x="66" d="M10 106v66h13v-66h-13zM44 106v66h13v-66h-13z" />
<glyph unicode="#" horiz-adv-x="156" d="M6 48l4 10h30l20 55h-31l3 10h32l16 48h13l-17 -48h32l16 48h14l-18 -48h30l-2 -10h-31l-20 -55h32l-4 -10h-31l-17 -48h-13l17 48h-32l-17 -48h-12l17 48h-31zM53 58h31l20 55h-32z" />
<glyph unicode="$" horiz-adv-x="137" d="M10 23l10 9q7 -9 18 -15q11 -5 24 -7v65q-8 2 -14 4t-12.5 5.5t-10.5 7.5t-6.5 10t-2.5 14q0 17 13 27.5t33 12.5v19h13v-19q30 -2 47 -24l-9 -9q-15 18 -38 20v-58q9 -2 15 -4.5t13 -6.5t11.5 -8t7.5 -11t3 -15q0 -5 -1.5 -10.5t-5 -11.5t-9 -10t-14.5 -7t-20 -4v-17 h-13v17q-16 1 -30 8t-22 18zM30 116q0 -6 2.5 -10.5t7 -7.5t9.5 -5.5t13 -4.5v56q-14 -1 -23 -8.5t-9 -19.5zM75 9q9 0 15.5 2.5t10 5.5t6 7t3.5 8t1 8q0 7 -3 12.5t-8.5 9t-11 6t-13.5 4.5v-63z" />
<glyph unicode="%" horiz-adv-x="185" d="M5 129q0 18 12 30.5t31 12.5q18 0 30 -12.5t12 -30.5t-12 -30t-30 -12q-19 0 -31 12t-12 30zM18 129q0 -13 8.5 -22t21.5 -9q12 0 20.5 9t8.5 22t-8.5 22t-20.5 9q-13 0 -21.5 -9t-8.5 -22zM33 10l109 156l10 -6l-110 -158zM92 39q0 18 12 30.5t30 12.5t30.5 -12 t12.5 -31q0 -18 -12 -30t-31 -12q-18 0 -30 12t-12 30zM105 39q0 -13 8.5 -22t20.5 -9q13 0 21 9t8 22t-8 22.5t-21 9.5t-21 -9.5t-8 -22.5z" />
<glyph unicode="&#x26;" horiz-adv-x="169" d="M12 35q0 7 2.5 14t9 13t10 9t11.5 9q2 2 4 2q-10 12 -15.5 22.5t-5.5 20.5q0 16 10 26t26 10t26.5 -10.5t10.5 -25.5q0 -5 -1.5 -10t-4.5 -9t-5.5 -7.5t-7.5 -7t-7.5 -5.5t-8.5 -6q18 -20 46 -41q11 16 20 40l11 -5q-11 -26 -21 -42q13 -9 22.5 -14.5t13.5 -6.5l-3 -11 q-5 1 -16 7q-11 5 -24 15q-12 -14 -24.5 -19.5t-26.5 -5.5q-9 0 -17.5 2.5t-16.5 7t-13 12t-5 16.5zM26 35q0 -7 4 -12t10 -8t12 -5q6 -1 12 -1q12 0 23.5 5.5t17.5 15.5q-28 20 -48 43q-7 -5 -12 -8.5t-9.5 -8.5t-7 -10t-2.5 -11zM42 125q0 -14 17 -36q7 4 11 8t8 8.5 t6 9.5t2 10q0 10 -5 17t-17 7q-10 0 -16 -7t-6 -17z" />
<glyph unicode="'" horiz-adv-x="42" d="M12 122l8 16h-5v33h13v-33l-12 -16h-4z" />
<glyph unicode="(" horiz-adv-x="53" d="M10 62.5q0 58.5 34 112.5l8 -6q-14 -28 -21.5 -52t-7.5 -55q0 -21 4 -40t9.5 -33.5t15.5 -32.5l-8 -6q-34 54 -34 112.5z" />
<glyph unicode=")" horiz-adv-x="53" d="M1 -45q7 14 11.5 25t9 24.5t6.5 27.5t2 30q0 30 -7.5 54t-21.5 53l8 6q35 -54 35 -113q0 -58 -35 -112z" />
<glyph unicode="*" horiz-adv-x="86" d="M12 125l21 11l-21 12l4 8l22 -12v23h9v-23l21 11l5 -7l-21 -12l21 -11l-5 -8l-21 11v-22h-9v22l-22 -11z" />
<glyph unicode="+" horiz-adv-x="126" d="M10 65v12h47v47h13v-47h46v-12h-46v-48h-13v48h-47z" />
<glyph unicode="," horiz-adv-x="39" d="M12 -16l8 16h-5v32h13v-32l-12 -16h-4z" />
<glyph unicode="-" horiz-adv-x="78" d="M11 46v12h55v-12h-55z" />
<glyph unicode="." horiz-adv-x="37" d="M12 0v32h13v-32h-13z" />
<glyph unicode="/" horiz-adv-x="68" d="M-1 3l59 167l12 -3l-60 -168z" />
<glyph unicode="0" horiz-adv-x="157" d="M13 76q0 12 2 23.5t7 22t12.5 18t18.5 12t25 4.5t25 -4.5t18 -12t12 -18t7 -22t2 -23.5t-2 -23t-7 -21.5t-12 -18t-18 -12t-25 -4.5t-25.5 4.5t-18.5 12t-12 18t-7 21.5t-2 23zM27 76.5q0 -10.5 1.5 -20t5 -18.5t9.5 -15t15 -10t20 -4t20 4t14.5 10t9 15t5 18.5t1.5 20 t-1 20t-5 18.5t-9.5 15t-14.5 10t-20 4t-20 -4t-15 -10t-9.5 -15t-5 -18.5t-1.5 -20z" />
<glyph unicode="1" horiz-adv-x="72" d="M4 141v12h48v-153h-14v141h-34z" />
<glyph unicode="2" horiz-adv-x="150" d="M12 0v10q12 9 26.5 20t24.5 18t20.5 15t16 14.5t9.5 14.5t4 17q0 7 -2.5 13t-6.5 10t-9.5 7t-11 4t-11.5 1q-15 0 -27.5 -6t-20.5 -17l-10 7q9 13 24.5 20.5t33.5 7.5q7 0 14.5 -1.5t14.5 -5t13 -9t9 -13.5t3 -18q0 -9 -3.5 -18t-9 -15.5t-15.5 -15t-18.5 -14.5 t-22.5 -16t-24 -18h93v-12h-114z" />
<glyph unicode="3" horiz-adv-x="135" d="M5 28l11 6q7 -11 19.5 -18t29.5 -7q21 0 33 10t12 27q0 7 -2.5 13.5t-7 10.5t-10.5 6.5t-13 4t-15 1.5h-13l-5 12l55 47h-83v12h103v-12l-55 -47q26 0 42.5 -13t16.5 -35t-15.5 -35.5t-42.5 -13.5q-20 0 -36 9t-24 22z" />
<glyph unicode="4" horiz-adv-x="136" d="M6 32v11l82 110h14v-109h26v-12h-26v-32h-13v32h-83zM22 44h67v91z" />
<glyph unicode="5" horiz-adv-x="149" d="M16 27l11 8q9 -13 21 -19.5t28 -6.5q20 0 32.5 9.5t12.5 27.5t-12.5 27.5t-32.5 9.5q-24 0 -43 -18l-10 1v87h100v-12h-87v-59q18 13 40 13q12 0 22 -3t18.5 -9t13 -15.5t4.5 -21.5t-4.5 -21.5t-13 -15.5t-18.5 -9t-22 -3q-21 0 -35.5 7.5t-24.5 22.5z" />
<glyph unicode="6" horiz-adv-x="150" d="M13 74q0 13 2 24.5t6.5 22t12 18.5t18.5 12.5t26 4.5q17 0 28 -6.5t21 -18.5l-10 -8q-8 10 -17 15.5t-22 5.5q-11 0 -20.5 -4t-15 -11t-9.5 -16t-5.5 -19.5t-1.5 -22.5v-4v-4q1 5 5.5 10t10.5 10t15.5 8t19.5 3q24 0 39.5 -13t15.5 -35q0 -21 -15 -35t-41 -14 q-32 0 -47.5 20.5t-15.5 56.5zM32 46q0 -17 12 -27t32 -10q19 0 31 10t12 27t-11.5 27t-30.5 10t-32 -10t-13 -27z" />
<glyph unicode="7" horiz-adv-x="127" d="M6 141v12h114v-8l-70 -145h-15l69 141h-98z" />
<glyph unicode="8" horiz-adv-x="146" d="M16 41q0 15 10 25q8 11 26 16q-15 5 -21.5 13.5t-6.5 22.5q0 17 14 28q12 10 34 10t35.5 -11t13.5 -27q0 -13 -7 -22t-22 -14q17 -5 26.5 -15.5t9.5 -25.5q0 -19 -16 -31q-16 -13 -40 -13t-40 12.5t-16 31.5zM30 41q0 -14 12 -23q10 -9 30 -9q19 0 31.5 9t12.5 23t-12 23 t-32 9q-19 0 -30.5 -9t-11.5 -23zM37 118q0 -12 9.5 -20t25.5 -8q17 0 26 8q10 8 10 20t-10 20q-10 7 -26 7q-17 0 -26 -7.5t-9 -19.5z" />
<glyph unicode="9" horiz-adv-x="150" d="M13 107q0 21 15 35t41 14q32 0 47.5 -20.5t15.5 -56.5q0 -13 -2 -24.5t-6.5 -22t-12 -18.5t-18.5 -12.5t-26 -4.5q-17 0 -28 6.5t-21 18.5l10 8q5 -7 10 -11t12.5 -7t16.5 -3q11 0 20.5 4t15 10.5t9.5 16t5.5 20t1.5 21.5v5v4q-1 -5 -5.5 -10t-11 -10t-15.5 -8.5 t-19 -3.5q-24 0 -39.5 13.5t-15.5 35.5zM26 107q0 -17 11.5 -27t30.5 -10t32 10t13 27t-12.5 27t-32.5 10q-19 0 -30.5 -10t-11.5 -27z" />
<glyph unicode=":" horiz-adv-x="45" d="M16 0v32h14v-32h-14zM16 92v32h14v-32h-14z" />
<glyph unicode=";" horiz-adv-x="45" d="M14 -16l7 16h-5v32h14v-32l-13 -16h-3zM16 92v32h14v-32h-14z" />
<glyph unicode="&#x3c;" horiz-adv-x="129" d="M7 66v11l107 54l6 -10l-96 -50l96 -48l-6 -11z" />
<glyph unicode="=" horiz-adv-x="126" d="M7 42v11h113v-11h-113zM7 92v11h113v-11h-113z" />
<glyph unicode="&#x3e;" horiz-adv-x="129" d="M10 23l96 48l-96 50l5 10l107 -54v-11l-107 -54z" />
<glyph unicode="?" horiz-adv-x="124" d="M2 136q22 29 60 30q23 0 37 -13.5t14 -31.5q0 -11 -5.5 -20.5t-13.5 -15t-17.5 -9t-19.5 -3.5v-21h-13v32q14 0 25 3.5t17.5 8.5t9.5 11.5t3 13.5q0 13 -10 23t-27 10q-18 0 -29 -6q-11 -8 -21 -20zM44 0v32h13v-32h-13z" />
<glyph unicode="@" horiz-adv-x="193" d="M4 73.5q0 18.5 7 35t19.5 29t30 19.5t37.5 7t37 -7t29 -19.5t19 -29t7 -35.5q0 -11 -2 -19.5t-5.5 -14t-7.5 -9.5t-8.5 -6t-8.5 -2q-6 0 -11 2t-7.5 4.5t-4 6t-1.5 6.5v5q-4 -9 -11.5 -14.5t-13.5 -7.5t-12 -2q-23 0 -38 15.5t-15 37.5t14 37t37 15q6 0 12.5 -2.5t14 -8 t12.5 -13.5v21h10v-70v-6t0.5 -6t2 -6t4.5 -3t7 -1q9 0 15.5 10t6.5 31q0 22 -10.5 41t-29 30t-42.5 11t-43.5 -11t-30.5 -30t-11 -41t11 -41t30.5 -30t43.5 -11q21 0 39 9l5 -7q-21 -10 -44 -10q-20 0 -37.5 7t-30 19t-19.5 29t-7 35.5zM55 75q0 -18 10.5 -30.5t29.5 -12.5 q18 0 28.5 12.5t10.5 30.5q0 11 -4.5 20.5t-13.5 16t-21 6.5t-21.5 -6.5t-14 -16t-4.5 -20.5z" />
<glyph unicode="A" horiz-adv-x="153" d="M2 0l68 153h13l67 -153h-14l-15 34h-89l-15 -34h-15zM37 46h79l-40 90z" />
<glyph unicode="B" horiz-adv-x="155" d="M20 0v153h60q24 0 37 -10t13 -31q0 -12 -6 -19.5t-15 -11.5q6 -1 11.5 -4t10.5 -7.5t9 -11.5q3 -8 3 -16q0 -22 -14 -32t-39 -10h-70zM33 12h57q39 0 39 30q0 14 -10 22.5t-29 8.5h-57v-61zM33 85h47q36 0 36 27q0 14 -9 21.5t-27 7.5h-47v-56z" />
<glyph unicode="C" horiz-adv-x="160" d="M13 76q0 23 11 41.5t29.5 28.5t40.5 10q35 0 59 -26l-9 -9q-9 11 -22 17q-14 6 -28 6q-29 0 -48 -18.5t-19 -49.5q0 -30 19 -48q18 -19 48 -19q14 0 27.5 6t22.5 17l9 -9q-25 -26 -59 -26q-22 0 -40.5 10t-29.5 28t-11 41z" />
<glyph unicode="D" horiz-adv-x="162" d="M20 0v153h49q18 0 33.5 -6.5t26 -17t16 -24t5.5 -29.5t-5.5 -29.5t-16 -24t-26 -16.5t-33.5 -6h-49zM33 12h36q16 0 28.5 5t21 13.5t13 20.5t4.5 25q0 18 -8 32.5t-23 23.5t-36 9h-36v-129z" />
<glyph unicode="E" horiz-adv-x="133" d="M20 0v153h106v-12h-93v-55h77v-12h-77v-62h93v-12h-106z" />
<glyph unicode="F" horiz-adv-x="133" d="M20 0v153h106v-12h-93v-55h77v-12h-77v-74h-13z" />
<glyph unicode="G" horiz-adv-x="182" d="M13 76q0 23 11 41.5t29.5 28.5t40.5 10q34 0 59 -26l-9 -9q-9 11 -22 17q-14 6 -28 6q-29 0 -48 -18.5t-19 -49.5q0 -20 9.5 -35t25.5 -23.5t35 -8.5q16 0 28.5 6.5t20.5 19.5t8 29h-60v12h75q0 -19 -5.5 -34.5t-15.5 -25t-23 -14.5t-28 -5q-23 0 -42 10t-30.5 28 t-11.5 41z" />
<glyph unicode="H" horiz-adv-x="169" d="M20 0v153h13v-77h103v77h14v-153h-14v64h-103v-64h-13z" />
<glyph unicode="I" horiz-adv-x="53" d="M20 0v153h13v-153h-13z" />
<glyph unicode="J" horiz-adv-x="131" d="M-14 14l9 11q7 -7 19 -11q12 -5 28 -5q9 0 17 1.5t13.5 4.5t9.5 7.5t7 8.5t5 9.5t2.5 9.5t1 10t0.5 9v7v77h14v-77v-8t-1 -9.5t-2 -11.5t-3.5 -11.5t-5.5 -11.5t-8.5 -10.5t-12 -9t-16 -5.5t-21.5 -2q-18 0 -32.5 4.5t-23.5 12.5z" />
<glyph unicode="K" horiz-adv-x="141" d="M20 0v153h13v-83l80 83h18l-71 -73l79 -80h-18l-69 72q-14 -14 -19 -20v-52h-13z" />
<glyph unicode="L" horiz-adv-x="111" d="M20 0v153h13v-141h76v-12h-89z" />
<glyph unicode="M" horiz-adv-x="201" d="M20 0v153h17l64 -94l63 94h18v-153h-13v138l-67 -99h-2l-67 98v-137h-13z" />
<glyph unicode="N" horiz-adv-x="167" d="M20 0v153h12l102 -130v130h13v-153h-12l-102 131v-131h-13z" />
<glyph unicode="O" horiz-adv-x="181" d="M13 76q0 17 5.5 31.5t15.5 25.5t24.5 17t32.5 6q17 0 32 -6t24.5 -17t15 -25.5t5.5 -31.5q0 -16 -5.5 -30.5t-15 -25.5t-24.5 -17t-32 -6q-18 0 -32.5 6t-24.5 17t-15.5 25.5t-5.5 30.5zM27 76q0 -30 17.5 -48.5t46.5 -18.5t46 19t17 48q0 30 -17 49t-46 19t-46.5 -19 t-17.5 -49z" />
<glyph unicode="P" horiz-adv-x="150" d="M20 0v153h64q13 0 23 -4t16.5 -10.5t10.5 -15.5t4 -19q0 -21 -15 -35.5t-39 -14.5h-51v-54h-13zM33 66h50q18 0 29 10.5t11 27.5q0 16 -11 26.5t-29 10.5h-50v-75z" />
<glyph unicode="Q" horiz-adv-x="181" d="M13 76q0 17 5.5 31.5t15.5 25.5t24.5 17t32.5 6q17 0 31.5 -6t24.5 -17t15.5 -25.5t5.5 -31.5q0 -21 -8.5 -38.5t-25 -28t-37.5 -12.5v-27h-13v27q-21 2 -37.5 12.5t-25 28t-8.5 38.5zM27 76q0 -28 15.5 -46t41.5 -21v36h13v-36q26 2 41.5 21t15.5 46q0 30 -17.5 49 t-45.5 19q-29 0 -46.5 -19t-17.5 -49z" />
<glyph unicode="R" horiz-adv-x="145" d="M20 0v153h63q24 0 39.5 -13t15.5 -36q0 -22 -14 -36q-14 -13 -36 -14l40 -54h-16l-40 54h-39v-54h-13zM33 66h50q18 0 29 10.5t11 27.5q0 16 -11 26.5t-29 10.5h-50v-75z" />
<glyph unicode="S" horiz-adv-x="137" d="M10 23l10 9q8 -10 21 -16.5t28 -6.5q10 0 18 2t12.5 5t7 7t3.5 8t1 9t-1.5 8.5t-3.5 6.5t-5.5 6t-7 4.5t-8.5 3.5t-9 3t-10 2q-7 2 -12.5 3.5t-11.5 4t-10.5 5.5t-8.5 7t-5.5 9.5t-1.5 12.5q0 12 7 21.5t19 14t26 4.5q35 0 54 -24l-9 -9q-17 20 -46 21q-17 0 -27 -8 t-10 -20q0 -5 2 -9.5t5.5 -7.5t9.5 -5.5t10.5 -4t12.5 -3.5t13.5 -3.5t12.5 -4.5t11.5 -6.5t8.5 -8t6.5 -10.5t2.5 -13q0 -6 -1.5 -11.5t-5.5 -11.5t-10.5 -10.5t-16.5 -7t-23 -2.5q-18 0 -33 7t-25 19z" />
<glyph unicode="T" horiz-adv-x="140" d="M4 141v12h132v-12h-60v-141h-13v141h-59z" />
<glyph unicode="U" horiz-adv-x="172" d="M20 59v94h13v-93q0 -24 15 -37.5t38 -13.5t38 13.5t15 37.5v93h13v-94q0 -29 -17 -45.5t-49 -16.5t-49 16.5t-17 45.5z" />
<glyph unicode="V" horiz-adv-x="153" d="M2 153h15l59 -136q7 17 27.5 62t32.5 74h14l-67 -153h-13z" />
<glyph unicode="W" horiz-adv-x="212" d="M2 153h15l39 -130l44 130h13l45 -130l38 130h14l-46 -153h-14l-44 127l-44 -127h-13z" />
<glyph unicode="X" horiz-adv-x="154" d="M2 0l68 78l-65 75h19l53 -65l54 65h18l-64 -75l67 -78h-17l-58 68l-57 -68h-18z" />
<glyph unicode="Y" horiz-adv-x="164" d="M2 153h17l63 -85l63 85h17l-73 -97v-56h-13v56z" />
<glyph unicode="Z" horiz-adv-x="140" d="M13 0v10l98 131h-98v12h115v-10l-98 -131h98v-12h-115z" />
<glyph unicode="[" horiz-adv-x="55" d="M6 -47v219h43q2 0 4 -2t2 -4.5t-1.5 -4t-4.5 -1.5h-31v-195h31q2 0 4 -2t2 -4t-1.5 -4t-4.5 -2h-43z" />
<glyph unicode="\" horiz-adv-x="68" d="M-1 167q-1 2 0 4t4 3q2 1 4.5 0t2.5 -4l60 -167q1 -2 -0.5 -4.5t-3.5 -3.5q-3 -1 -5 0.5t-2 3.5z" />
<glyph unicode="]" horiz-adv-x="55" d="M-1 -41q0 2 2 4t4 2h31v195h-31q-3 0 -4.5 1.5t-1.5 4t2 4.5t4 2h43v-219h-43q-2 0 -4 2t-2 4z" />
<glyph unicode="^" horiz-adv-x="66" d="M0 142l24 37h18l24 -37h-10l-23 27l-23 -27h-10z" />
<glyph unicode="_" d="M3 -5h141v-12h-141v12z" />
<glyph unicode="`" horiz-adv-x="46" d="M2 179h18l24 -37h-10z" />
<glyph unicode="a" horiz-adv-x="139" d="M11 36q0 45 89 45h8q0 8 -2.5 14t-6 10t-9 6.5t-11.5 3.5t-13 1q-6 0 -13 -2t-11.5 -4t-8.5 -4.5t-5.5 -3.5t-2.5 -2l-6 10q21 17 47 17q27 0 40 -12q14 -13 14 -39v-76h-12v26q-6 -13 -19.5 -21t-28.5 -8q-10 0 -18.5 2t-14 6t-9.5 9t-5.5 10.5t-1.5 11.5zM25 36 q0 -13 9.5 -20.5t25.5 -7.5q10 0 18 3.5t13.5 9t9.5 13t5.5 15t1.5 14.5v6h-4q-8 0 -13.5 -0.5t-14 -1t-15 -2t-14 -4t-12 -5.5t-7.5 -8.5t-3 -11.5z" />
<glyph unicode="b" horiz-adv-x="154" d="M19 0v166h13v-69q4 8 10 14t13 9.5t13.5 5t11.5 1.5q18 0 33 -8.5t22.5 -23.5t7.5 -33q0 -28 -17.5 -46.5t-45.5 -18.5q-6 0 -11.5 1.5t-12.5 4.5t-13.5 9t-10.5 14v-26h-13zM32 62q0 -14 5.5 -26t16.5 -20t26 -8q12 0 21.5 4.5t15.5 12t9.5 17t3.5 20.5q0 10 -3.5 20 t-9.5 17.5t-15.5 12t-21.5 4.5q-11 0 -20.5 -4.5t-15.5 -12t-9 -17.5t-3 -20z" />
<glyph unicode="c" horiz-adv-x="127" d="M11 62q0 18 7.5 32.5t22 23.5t32.5 9q16 0 26.5 -5.5t20.5 -17.5l-9 -7q-14 19 -37 19q-22 0 -35.5 -15.5t-13.5 -38.5t13 -38.5t36 -15.5q22 0 37 19l9 -7q-10 -11 -20.5 -17t-26.5 -6q-18 0 -32.5 9t-22 23.5t-7.5 32.5z" />
<glyph unicode="d" horiz-adv-x="154" d="M11 62q0 18 8 33t22.5 23.5t32.5 8.5q6 0 12 -1.5t13 -5t13 -9.5t11 -14v69h12v-166h-12v26q-4 -8 -10.5 -14t-13.5 -9t-13 -4.5t-12 -1.5q-28 0 -45.5 18.5t-17.5 46.5zM25 62q0 -11 3 -20.5t9.5 -17t15.5 -12t21 -4.5q15 0 26.5 8t17 20t5.5 26q0 10 -3.5 20t-9.5 17.5 t-15.5 12t-20.5 4.5q-12 0 -21 -4.5t-15.5 -12t-9.5 -17.5t-3 -20z" />
<glyph unicode="e" horiz-adv-x="145" d="M11 62q0 18 8 32.5t22.5 23.5t31.5 9q12 0 22 -3.5t17 -9.5t12 -14.5t7.5 -18t2.5 -19.5v-5h-109q2 -21 15.5 -35t35.5 -14q26 0 44 19l8 -8q-11 -11 -23.5 -16.5t-28.5 -5.5q-28 0 -46.5 18.5t-18.5 46.5zM25 68h96q0 8 -3.5 16.5t-9 15.5t-15 11.5t-20.5 4.5t-20 -4.5 t-15 -11.5t-9 -15.5t-4 -16.5z" />
<glyph unicode="f" horiz-adv-x="70" d="M2 108v11h14q0 20 15.5 34t36.5 14v-11q-16 0 -27.5 -11t-11.5 -26h32v-11h-32v-108h-13v108h-14z" />
<glyph unicode="g" horiz-adv-x="154" d="M11 62q0 18 8 33t22.5 23.5t32.5 8.5q6 0 12 -1.5t13 -5t13 -9.5t11 -14v27h12v-111q0 -13 -3.5 -24t-10.5 -19.5t-19 -13t-28 -4.5q-8 0 -17 1.5t-15 4t-11.5 5.5t-8 4t-2.5 2l7 10q7 -5 20 -10.5t27 -5.5t23 3.5t15 11t8.5 16.5t2.5 20v12q-4 -8 -10.5 -14t-13.5 -9 t-13 -4.5t-12 -1.5q-28 0 -45.5 18.5t-17.5 46.5zM25 62q0 -11 3 -20.5t9.5 -17t15.5 -12t21 -4.5q15 0 26.5 8t17 20t5.5 26q0 10 -3.5 20t-9.5 17.5t-15.5 12t-20.5 4.5q-12 0 -21 -4.5t-15.5 -12t-9.5 -17.5t-3 -20z" />
<glyph unicode="h" d="M19 0v166h13v-69q4 8 10 14t13 9.5t13.5 5t11.5 1.5q3 0 6.5 -0.5t8.5 -1.5t9 -3.5t8.5 -6.5t8 -9.5t5.5 -14.5t2 -20v-71h-12v71q0 5 -0.5 9.5t-2 10t-3.5 9.5t-6 8t-10 6t-14 2q-11 0 -20.5 -4.5t-15.5 -12t-9 -17.5t-3 -20v-62h-13z" />
<glyph unicode="i" horiz-adv-x="50" d="M19 0v124h13v-124h-13zM19 139v32h13v-32h-13z" />
<glyph unicode="j" horiz-adv-x="51" d="M-52 -45l5 11q9 -3 18 -3q14 0 23.5 4t15 11t8 16t2.5 20v110h13v-111q0 -13 -3.5 -24t-11 -19.5t-19.5 -13t-28 -4.5q-11 0 -23 3zM20 139v32h13v-32h-13z" />
<glyph unicode="k" horiz-adv-x="130" d="M19 0v166h13v-112q13 12 39.5 35t38.5 35h19l-64 -56l63 -68h-18l-55 59l-23 -20v-39h-13z" />
<glyph unicode="l" horiz-adv-x="50" d="M19 0v166h13v-166h-13z" />
<glyph unicode="m" horiz-adv-x="243" d="M19 0v124h13v-27q4 8 10 14t13 9.5t13.5 5t11.5 1.5q4 0 7.5 -0.5t9 -2.5t10.5 -4.5t10 -8.5t7 -14q8 14 22 22t31 8q3 0 6 -0.5t8 -1.5t9 -3.5t9 -6.5t8 -9.5t5.5 -14.5t2.5 -20v-71h-13v71q0 5 -0.5 9.5t-1.5 10t-3.5 9.5t-6 8t-9.5 6t-14 2q-11 0 -21 -4.5t-15.5 -11 t-9 -14.5t-3.5 -15v-71h-12v71q0 5 -0.5 9.5t-2 10t-3.5 9.5t-6 8t-10 6t-14 2q-11 0 -20.5 -4.5t-15.5 -12t-9 -17.5t-3 -20v-62h-13z" />
<glyph unicode="n" d="M19 0v124h13v-27q4 8 10 14t13 9.5t13.5 5t11.5 1.5q3 0 6.5 -0.5t8.5 -1.5t9 -3.5t8.5 -6.5t8 -9.5t5.5 -14.5t2 -20v-71h-12v71q0 5 -0.5 9.5t-2 10t-3.5 9.5t-6 8t-10 6t-14 2q-11 0 -20.5 -4.5t-15.5 -12t-9 -17.5t-3 -20v-62h-13z" />
<glyph unicode="o" d="M11 62q0 18 8 33t22.5 23.5t32.5 8.5q28 0 45 -18.5t17 -46.5q0 -18 -7.5 -33t-22 -23.5t-32.5 -8.5q-28 0 -45.5 18.5t-17.5 46.5zM25 62q0 -11 3 -20.5t9.5 -17t15.5 -12t21 -4.5q15 0 26.5 8t17 20t5.5 26q0 10 -3.5 20t-9.5 17.5t-15.5 12t-20.5 4.5q-12 0 -21 -4.5 t-15.5 -12t-9.5 -17.5t-3 -20z" />
<glyph unicode="p" horiz-adv-x="154" d="M19 -47v171h13v-26q4 8 10.5 14t13.5 9t13 4.5t11 1.5q28 0 45.5 -18.5t17.5 -46.5q0 -18 -7.5 -33t-22 -23.5t-33.5 -8.5q-6 0 -12 1.5t-13 5t-13 9.5t-10 14v-74h-13zM32 62q0 -10 3 -20t9 -17.5t15.5 -12t20.5 -4.5q12 0 21.5 4.5t15.5 12t9.5 17t3.5 20.5t-3.5 20.5 t-9.5 17t-15.5 12t-21.5 4.5q-15 0 -26 -8t-16.5 -20t-5.5 -26z" />
<glyph unicode="q" horiz-adv-x="154" d="M11 62q0 18 8 33t22.5 23.5t32.5 8.5q6 0 12 -1.5t13 -5t13 -9.5t11 -14v27h12v-171h-12v73q-4 -8 -10.5 -14t-13.5 -9t-13 -4.5t-12 -1.5q-28 0 -45.5 18.5t-17.5 46.5zM25 62q0 -11 3 -20.5t9.5 -17t15.5 -12t21 -4.5q15 0 26.5 8t17 20t5.5 26q0 10 -3.5 20t-9.5 17.5 t-15.5 12t-20.5 4.5q-12 0 -21 -4.5t-15.5 -12t-9.5 -17.5t-3 -20z" />
<glyph unicode="r" horiz-adv-x="83" d="M19 0v124h13v-24q6 11 19 19t25 8v-14q-8 0 -16 -2.5t-14.5 -8t-10 -14.5t-3.5 -21v-67h-13z" />
<glyph unicode="s" horiz-adv-x="119" d="M11 18l10 9q16 -19 40 -19q16 0 25.5 7t9.5 19q0 3 -1 5t-2.5 4l-3 4t-5 3.5t-5.5 2.5t-6.5 2t-6.5 1.5t-7 2.5q-6 2 -9 2.5t-8.5 2.5t-8.5 3.5t-7 4t-6 5.5t-3.5 7t-1.5 9q0 14 12 24t33 10q30 0 47 -21l-9 -8q-6 8 -16 13t-22 5q-15 0 -24 -7t-9 -16q0 -4 2 -7t5 -5 t8 -4t9 -3t10 -3q6 -1 10 -2t9.5 -3t9 -4t7.5 -5t6 -6t3 -7q2 -4 2 -10q0 -16 -12 -26.5t-35 -10.5q-15 0 -27 5t-23 16z" />
<glyph unicode="t" horiz-adv-x="70" d="M2 108v11h14v34h13v-34h39v-11h-39v-62q0 -15 11.5 -26.5t27.5 -11.5v-11q-21 0 -36.5 14.5t-15.5 34.5v62h-14z" />
<glyph unicode="u" d="M19 53v71h13v-71q0 -5 0.5 -9.5t1.5 -10t3.5 -9.5t6 -8t9.5 -6t14 -2q11 0 20.5 4.5t15.5 12t9.5 17.5t3.5 20v62h12v-124h-12v27q-4 -8 -10.5 -14t-13 -9.5t-13 -5t-12.5 -1.5q-3 0 -6 0.5t-8 1.5t-9 3t-9 6.5t-8 10t-5.5 14.5t-2.5 20z" />
<glyph unicode="v" horiz-adv-x="127" d="M1 124h15l48 -107q32 71 48 107h14l-56 -124h-12z" />
<glyph unicode="w" horiz-adv-x="182" d="M1 124h14l35 -102l36 102h10l36 -102l35 102h15l-44 -124h-10l-37 103q-4 -12 -16.5 -48t-19.5 -55h-10z" />
<glyph unicode="x" horiz-adv-x="124" d="M1 0l54 64q-2 2 -51 60h16l42 -52l42 52h17l-51 -60l53 -64h-16l-45 55q-5 -6 -20.5 -25.5t-24.5 -29.5h-16z" />
<glyph unicode="y" horiz-adv-x="146" d="M11 -31l8 10q7 -5 20 -10.5t26 -5.5q14 0 23.5 3.5t15 11t8 16.5t2.5 20v13q-4 -8 -10 -14t-13 -9.5t-13 -5t-12 -1.5q-3 0 -6 0.5t-8 1.5t-9.5 3t-9 6.5t-8 10t-5.5 14.5t-2 20v71h12v-71q0 -5 0.5 -9.5t2 -10t4 -9.5t6 -8t9.5 -6t14 -2q11 0 20.5 4.5t15.5 12t9 17.5 t3 20v62h13v-111q0 -13 -3.5 -24t-10.5 -19.5t-19.5 -13t-28.5 -4.5q-8 0 -16.5 1.5t-14.5 4t-11.5 5.5t-8 4t-3.5 2z" />
<glyph unicode="z" horiz-adv-x="118" d="M11 0v10l79 103h-79v11h95v-10l-79 -103h80v-11h-96z" />
<glyph unicode="{" horiz-adv-x="61" d="M-1 57v11q7 0 10 5t3 11v58q0 13 9 21.5t20 8.5h12v-12h-12q-6 0 -11 -5t-5 -13v-58q0 -16 -9 -22q9 -6 9 -21v-58q0 -8 4.5 -13t11.5 -5h12v-12h-12q-11 0 -20 8.5t-9 21.5v58q0 6 -3 11t-10 5z" />
<glyph unicode="|" horiz-adv-x="53" d="M20 0v169h12v-169h-12z" />
<glyph unicode="}" horiz-adv-x="61" d="M-1 -35h12q6 0 11 5.5t5 12.5v58q0 15 9 21q-9 6 -9 22v58q0 8 -4.5 13t-11.5 5h-12v12h12q11 0 20 -8.5t9 -21.5v-58q0 -6 3.5 -11t9.5 -5v-11q-7 0 -10 -4.5t-3 -11.5v-58q0 -13 -9 -21.5t-20 -8.5h-12v12z" />
<glyph unicode="~" horiz-adv-x="129" d="M10 140v13h107v-13h-107z" />
<glyph unicode="&#xa8;" horiz-adv-x="57" d="M0 139v32h12v-32h-12zM45 139v32h13v-32h-13z" />
<glyph unicode="&#xa9;" horiz-adv-x="203" d="M12 86q0 24 12.5 44t34 32t47.5 12q19 0 36.5 -7t30 -19t19.5 -28t7 -34t-7 -34.5t-19.5 -28.5t-30 -19t-36.5 -7q-26 0 -47.5 12t-34 32.5t-12.5 44.5zM20 85.5q0 -16.5 7 -31t18.5 -25.5t27.5 -17.5t33 -6.5t33 6.5t27 17.5t18 25q7 16 7 32q0 22 -11.5 40t-31 29 t-42.5 11q-17 0 -33 -6.5t-27.5 -17t-18.5 -25.5t-7 -31.5zM50 86q0 23 16.5 38.5t39.5 15.5q24 0 40 -16l-7 -7q-5 7 -14 11t-19 4q-19 0 -32.5 -13t-13.5 -33t13.5 -33.5t32.5 -13.5q10 0 19 4.5t14 10.5l7 -6q-16 -17 -40 -17t-40 16t-16 39z" />
<glyph unicode="&#xab;" horiz-adv-x="102" d="M8 62l41 46h14l-41 -46l41 -46h-14zM40 62l41 46h14l-41 -46l41 -46h-14z" />
<glyph unicode="&#xae;" horiz-adv-x="129" d="M10 119q0 23 16.5 38.5t40.5 15.5t41 -15.5t17 -38.5q0 -22 -17 -38t-41 -16q-16 0 -29 7t-20.5 19.5t-7.5 27.5zM17 119q0 -19 15 -33t35.5 -14t35 14t14.5 33q0 20 -14.5 33.5t-35.5 13.5t-35.5 -13.5t-14.5 -33.5zM45 88v62h27q9 0 15 -5t6 -14q0 -5 -2 -8.5t-5 -5.5 t-5.5 -3t-4.5 -1l18 -25h-11l-17 24h-12v-24h-9zM54 120h18q5 0 8.5 3t3.5 8t-4 8.5t-8 3.5h-18v-23z" />
<glyph unicode="&#xb4;" horiz-adv-x="41" d="M0 142l24 37h18l-32 -37h-10z" />
<glyph unicode="&#xb8;" horiz-adv-x="23" d="M0 -30l10 28h13l-11 -28h-12z" />
<glyph unicode="&#xbb;" horiz-adv-x="102" d="M8 16l41 46l-41 46h14l41 -46l-41 -46h-14zM40 16l41 46l-41 46h14l41 -46l-41 -46h-14z" />
<glyph unicode="&#xc0;" horiz-adv-x="153" d="M2 0l68 153h13l67 -153h-14l-15 34h-89l-15 -34h-15zM37 46h79l-40 90zM48 208h17l25 -37h-10z" />
<glyph unicode="&#xc2;" horiz-adv-x="153" d="M2 0l68 153h13l67 -153h-14l-15 34h-89l-15 -34h-15zM37 46h79l-40 90zM47 168l25 36h9l25 -36h-10l-20 24l-19 -24h-10z" />
<glyph unicode="&#xc6;" horiz-adv-x="200" d="M2 0l78 153h113v-12h-93v-55h77v-12h-77v-62h93v-12h-106v34h-53l-17 -34h-15zM41 46h46v90z" />
<glyph unicode="&#xc7;" horiz-adv-x="158" d="M12 76q0 23 11 41.5t29.5 28.5t41.5 10q35 0 58 -26l-9 -9q-9 11 -22 17t-27 6q-29 0 -48.5 -18.5t-19.5 -49.5q0 -30 19 -48.5t49 -18.5q14 0 27 6t22 17l9 -9q-24 -25 -57 -26l-10 -27h-13l11 28q-15 2 -28 8t-22.5 16t-15 24t-5.5 30z" />
<glyph unicode="&#xc8;" horiz-adv-x="139" d="M20 0v153h106v-12h-93v-55h77v-12h-77v-62h93v-12h-106zM41 208h18l24 -37h-10z" />
<glyph unicode="&#xc9;" horiz-adv-x="139" d="M20 0v153h106v-12h-93v-55h77v-12h-77v-62h93v-12h-106zM57 171l24 37h17l-32 -37h-9z" />
<glyph unicode="&#xca;" horiz-adv-x="139" d="M20 0v153h106v-12h-93v-55h77v-12h-77v-62h93v-12h-106zM41 168l24 36h10l24 -36h-10l-19 24l-19 -24h-10z" />
<glyph unicode="&#xcb;" horiz-adv-x="139" d="M20 0v153h106v-12h-93v-55h77v-12h-77v-62h93v-12h-106zM41 168v32h13v-32h-13zM86 168v32h12v-32h-12z" />
<glyph unicode="&#xce;" horiz-adv-x="53" d="M-2 168l24 36h10l24 -36h-10l-19 24l-20 -24h-9zM20 0v153h13v-153h-13z" />
<glyph unicode="&#xcf;" horiz-adv-x="53" d="M-2 168v32h12v-32h-12zM20 0v153h13v-153h-13zM43 168v32h13v-32h-13z" />
<glyph unicode="&#xd4;" horiz-adv-x="181" d="M13 76q0 17 5.5 31.5t15.5 25.5t24.5 17t32.5 6q17 0 32 -6t24.5 -17t15 -25.5t5.5 -31.5q0 -16 -5.5 -30.5t-15 -25.5t-24.5 -17t-32 -6q-18 0 -32.5 6t-24.5 17t-15.5 25.5t-5.5 30.5zM27 76q0 -30 17.5 -48.5t46.5 -18.5t46 19t17 48q0 30 -17 49t-46 19t-46.5 -19 t-17.5 -49zM62 168l24 36h10l24 -36h-10l-19 24l-19 -24h-10z" />
<glyph unicode="&#xd9;" horiz-adv-x="175" d="M20 59v94h13v-93q0 -24 15 -37.5t38 -13.5t38 13.5t15 37.5v93h13v-94q0 -29 -17 -45.5t-49 -16.5t-49 16.5t-17 45.5zM59 208h18l24 -37h-10z" />
<glyph unicode="&#xdb;" horiz-adv-x="175" d="M20 59v94h13v-93q0 -24 15 -37.5t38 -13.5t38 13.5t15 37.5v93h13v-94q0 -29 -17 -45.5t-49 -16.5t-49 16.5t-17 45.5zM56 168l24 36h10l24 -36h-10l-19 24l-19 -24h-10z" />
<glyph unicode="&#xdc;" horiz-adv-x="175" d="M20 59v94h13v-93q0 -24 15 -37.5t38 -13.5t38 13.5t15 37.5v93h13v-94q0 -29 -17 -45.5t-49 -16.5t-49 16.5t-17 45.5zM59 168v32h13v-32h-13zM104 168v32h13v-32h-13z" />
<glyph unicode="&#xe0;" horiz-adv-x="139" d="M11 36q0 45 89 45h8q0 8 -2.5 14t-6 10t-9 6.5t-11.5 3.5t-13 1q-6 0 -13 -2t-11.5 -4t-8.5 -4.5t-5.5 -3.5t-2.5 -2l-6 10q21 17 47 17q27 0 40 -12q14 -13 14 -39v-76h-12v26q-6 -13 -19.5 -21t-28.5 -8q-10 0 -18.5 2t-14 6t-9.5 9t-5.5 10.5t-1.5 11.5zM25 36 q0 -13 9.5 -20.5t25.5 -7.5q10 0 18 3.5t13.5 9t9.5 13t5.5 15t1.5 14.5v6h-4q-8 0 -13.5 -0.5t-14 -1t-15 -2t-14 -4t-12 -5.5t-7.5 -8.5t-3 -11.5zM39 179h17l24 -37h-10z" />
<glyph unicode="&#xe2;" horiz-adv-x="139" d="M11 36q0 45 89 45h8q0 8 -2.5 14t-6 10t-9 6.5t-11.5 3.5t-13 1q-6 0 -13 -2t-11.5 -4t-8.5 -4.5t-5.5 -3.5t-2.5 -2l-6 10q21 17 47 17q27 0 40 -12q14 -13 14 -39v-76h-12v26q-6 -13 -19.5 -21t-28.5 -8q-10 0 -18.5 2t-14 6t-9.5 9t-5.5 10.5t-1.5 11.5zM25 36 q0 -13 9.5 -20.5t25.5 -7.5q10 0 18 3.5t13.5 9t9.5 13t5.5 15t1.5 14.5v6h-4q-8 0 -13.5 -0.5t-14 -1t-15 -2t-14 -4t-12 -5.5t-7.5 -8.5t-3 -11.5zM38 139l24 37h10l24 -37h-10l-19 24l-19 -24h-10z" />
<glyph unicode="&#xe6;" horiz-adv-x="241" d="M12 36q0 45 89 45h7q0 8 -2 14t-6 10t-9.5 6.5t-11 3.5t-13.5 1q-6 0 -13 -2t-11.5 -4t-8.5 -4.5t-5.5 -3.5t-1.5 -2l-6 10q21 17 46 17q44 0 53 -33q7 15 20 24t30 9q12 0 22 -3.5t17 -9.5t12 -14.5t7.5 -18t2.5 -19.5v-5h-109q2 -21 15.5 -35t35.5 -14q26 0 44 19l8 -8 q-11 -11 -23.5 -16.5t-28.5 -5.5q-17 0 -30.5 7.5t-20.5 20.5v-25h-13v26q-6 -13 -19 -21t-29 -8q-10 0 -18.5 2t-14 6t-9 9t-5 10.5t-1.5 11.5zM25 36q0 -13 9.5 -20.5t25.5 -7.5q10 0 18.5 3.5t14 9t9 13t5 15t1.5 14.5v6h-3q-8 0 -13.5 -0.5t-14.5 -1t-15.5 -2t-13.5 -4 t-11.5 -5.5t-8 -8.5t-3.5 -11.5zM121 68h96q0 8 -3.5 16.5t-9 15.5t-15 11.5t-20.5 4.5t-20 -4.5t-15 -11.5t-9 -15.5t-4 -16.5z" />
<glyph unicode="&#xe7;" horiz-adv-x="127" d="M11 62q0 18 7.5 32.5t22 23.5t32.5 9q16 0 26.5 -5.5t20.5 -17.5l-9 -7q-14 19 -37 19q-22 0 -35.5 -15.5t-13.5 -38.5t13 -38.5t36 -15.5q22 0 37 19l9 -7q-9 -10 -18.5 -16t-21.5 -7l-11 -27h-12l10 27q-25 2 -40.5 20.5t-15.5 44.5z" />
<glyph unicode="&#xe8;" horiz-adv-x="145" d="M11 62q0 18 8 32.5t22.5 23.5t31.5 9q12 0 22 -3.5t17 -9.5t12 -14.5t7.5 -18t2.5 -19.5v-5h-109q2 -21 15.5 -35t35.5 -14q26 0 44 19l8 -8q-11 -11 -23.5 -16.5t-28.5 -5.5q-28 0 -46.5 18.5t-18.5 46.5zM25 68h96q0 8 -3.5 16.5t-9 15.5t-15 11.5t-20.5 4.5t-20 -4.5 t-15 -11.5t-9 -15.5t-4 -16.5zM42 179h17l24 -37h-10z" />
<glyph unicode="&#xe9;" horiz-adv-x="145" d="M11 62q0 18 8 32.5t22.5 23.5t31.5 9q12 0 22 -3.5t17 -9.5t12 -14.5t7.5 -18t2.5 -19.5v-5h-109q2 -21 15.5 -35t35.5 -14q26 0 44 19l8 -8q-11 -11 -23.5 -16.5t-28.5 -5.5q-28 0 -46.5 18.5t-18.5 46.5zM25 68h96q0 8 -3.5 16.5t-9 15.5t-15 11.5t-20.5 4.5t-20 -4.5 t-15 -11.5t-9 -15.5t-4 -16.5zM62 142h10l32 37h-18z" />
<glyph unicode="&#xea;" horiz-adv-x="145" d="M11 62q0 18 8 32.5t22.5 23.5t31.5 9q12 0 22 -3.5t17 -9.5t12 -14.5t7.5 -18t2.5 -19.5v-5h-109q2 -21 15.5 -35t35.5 -14q26 0 44 19l8 -8q-11 -11 -23.5 -16.5t-28.5 -5.5q-28 0 -46.5 18.5t-18.5 46.5zM25 68h96q0 8 -3.5 16.5t-9 15.5t-15 11.5t-20.5 4.5t-20 -4.5 t-15 -11.5t-9 -15.5t-4 -16.5zM44 139l24 37h10l24 -37h-10l-19 24l-19 -24h-10z" />
<glyph unicode="&#xeb;" horiz-adv-x="145" d="M11 62q0 18 8 32.5t22.5 23.5t31.5 9q12 0 22 -3.5t17 -9.5t12 -14.5t7.5 -18t2.5 -19.5v-5h-109q2 -21 15.5 -35t35.5 -14q26 0 44 19l8 -8q-11 -11 -23.5 -16.5t-28.5 -5.5q-28 0 -46.5 18.5t-18.5 46.5zM25 68h96q0 8 -3.5 16.5t-9 15.5t-15 11.5t-20.5 4.5t-20 -4.5 t-15 -11.5t-9 -15.5t-4 -16.5zM44 139v32h12v-32h-12zM89 139v32h12v-32h-12z" />
<glyph unicode="&#xee;" horiz-adv-x="52" d="M-3 139l24 37h10l24 -37h-10l-19 24l-19 -24h-10zM20 0v124h12v-124h-12z" />
<glyph unicode="&#xef;" horiz-adv-x="52" d="M-2 139v32h12v-32h-12zM20 0v124h12v-124h-12zM42 139v32h13v-32h-13z" />
<glyph unicode="&#xf4;" d="M11 62q0 18 8 33t22.5 23.5t32.5 8.5q28 0 45 -18.5t17 -46.5q0 -18 -7.5 -33t-22 -23.5t-32.5 -8.5q-28 0 -45.5 18.5t-17.5 46.5zM25 62q0 -11 3 -20.5t9.5 -17t15.5 -12t21 -4.5q15 0 26.5 8t17 20t5.5 26q0 10 -3.5 20t-9.5 17.5t-15.5 12t-20.5 4.5q-12 0 -21 -4.5 t-15.5 -12t-9.5 -17.5t-3 -20zM45 139l24 37h10l24 -37h-10l-19 24l-19 -24h-10z" />
<glyph unicode="&#xf9;" d="M19 53v71h13v-71q0 -5 0.5 -9.5t1.5 -10t3.5 -9.5t6 -8t9.5 -6t14 -2q11 0 20.5 4.5t15.5 12t9.5 17.5t3.5 20v62h12v-124h-12v27q-4 -8 -10.5 -14t-13 -9.5t-13 -5t-12.5 -1.5q-3 0 -6 0.5t-8 1.5t-9 3t-9 6.5t-8 10t-5.5 14.5t-2.5 20zM40 179h17l25 -37h-10z" />
<glyph unicode="&#xfb;" d="M19 53v71h13v-71q0 -5 0.5 -9.5t1.5 -10t3.5 -9.5t6 -8t9.5 -6t14 -2q11 0 20.5 4.5t15.5 12t9.5 17.5t3.5 20v62h12v-124h-12v27q-4 -8 -10.5 -14t-13 -9.5t-13 -5t-12.5 -1.5q-3 0 -6 0.5t-8 1.5t-9 3t-9 6.5t-8 10t-5.5 14.5t-2.5 20zM42 139l24 37h10l24 -37h-10 l-19 24l-19 -24h-10z" />
<glyph unicode="&#xfc;" d="M19 53v71h13v-71q0 -5 0.5 -9.5t1.5 -10t3.5 -9.5t6 -8t9.5 -6t14 -2q11 0 20.5 4.5t15.5 12t9.5 17.5t3.5 20v62h12v-124h-12v27q-4 -8 -10.5 -14t-13 -9.5t-13 -5t-12.5 -1.5q-3 0 -6 0.5t-8 1.5t-9 3t-9 6.5t-8 10t-5.5 14.5t-2.5 20zM45 139v32h13v-32h-13zM90 139 v32h13v-32h-13z" />
<glyph unicode="&#xff;" horiz-adv-x="146" d="M11 -31l8 10q7 -5 20 -10.5t26 -5.5q14 0 23.5 3.5t15 11t8 16.5t2.5 20v13q-4 -8 -10 -14t-13 -9.5t-13 -5t-12 -1.5q-3 0 -6 0.5t-8 1.5t-9.5 3t-9 6.5t-8 10t-5.5 14.5t-2 20v71h12v-71q0 -5 0.5 -9.5t2 -10t4 -9.5t6 -8t9.5 -6t14 -2q11 0 20.5 4.5t15.5 12t9 17.5 t3 20v62h13v-111q0 -13 -3.5 -24t-10.5 -19.5t-19.5 -13t-28.5 -4.5q-8 0 -16.5 1.5t-14.5 4t-11.5 5.5t-8 4t-3.5 2zM44 139v32h13v-32h-13zM89 139v32h13v-32h-13z" />
<glyph unicode="&#x152;" horiz-adv-x="267" d="M13 76q0 17 5.5 31.5t15.5 25.5t24.5 17t32.5 6q21 0 37.5 -9t25.5 -26v32h106v-12h-92v-55h77v-12h-77v-62h92v-12h-106v31q-10 -16 -26 -25t-37 -9q-18 0 -32.5 6t-24.5 17t-15.5 25.5t-5.5 30.5zM27 76q0 -30 17.5 -48.5t46.5 -18.5t46 19t17 48q0 30 -17 49t-46 19 t-46.5 -19t-17.5 -49z" />
<glyph unicode="&#x153;" horiz-adv-x="258" d="M11 62q0 28 17 46.5t44 18.5q12 0 21.5 -3.5t16 -9t10.5 -11.5t7 -12q3 6 7 12t11 11.5t16.5 9t20.5 3.5q15 0 26.5 -5.5t19 -14.5t11.5 -20.5t4 -24.5v-5h-109q1 -21 15 -35t36 -14q25 0 43 19l8 -8q-11 -11 -23.5 -16.5t-27.5 -5.5q-12 0 -22.5 3t-17.5 8.5t-11 11.5 t-7 13q-3 -6 -7 -12t-11 -11.5t-16 -9t-21 -3.5q-18 0 -32 8.5t-21.5 23.5t-7.5 33zM24 62q0 -14 5.5 -26.5t16.5 -20t26 -7.5t26 7.5t16.5 20t5.5 26.5q0 10 -3.5 20t-9 17.5t-15 12t-20.5 4.5q-15 0 -26 -8t-16.5 -20t-5.5 -26zM134 68h96q0 8 -3.5 16.5t-9 15.5t-15.5 12 q-8 4 -20 4q-11 0 -20.5 -4.5t-15 -11.5t-9 -15.5t-3.5 -16.5z" />
<glyph unicode="&#x178;" horiz-adv-x="164" d="M2 153h17l63 -85l63 85h17l-73 -97v-56h-13v56zM54 168v32h12v-32h-12zM98 168v32h13v-32h-13z" />
<glyph unicode="&#x2c6;" horiz-adv-x="58" d="M0 139l24 37h10l24 -37h-10l-19 24l-19 -24h-10z" />
<glyph unicode="&#x2dc;" horiz-adv-x="86" d="M0 143v10h86v-10h-86z" />
<glyph unicode="&#x2013;" horiz-adv-x="154" d="M10 56v12h132v-12h-132z" />
<glyph unicode="&#x2014;" horiz-adv-x="217" d="M9 56v12h195v-12h-195z" />
<glyph unicode="&#x2018;" horiz-adv-x="42" d="M12 122v33l12 16h4l-8 -16h5v-33h-13z" />
<glyph unicode="&#x2019;" horiz-adv-x="42" d="M12 122l8 16h-5v33h13v-33l-12 -16h-4z" />
<glyph unicode="&#x201a;" horiz-adv-x="39" d="M12 -16l8 16h-5v32h13v-32l-12 -16h-4z" />
<glyph unicode="&#x201c;" horiz-adv-x="76" d="M16 122v33l12 16h4l-8 -16h6v-33h-14zM44 122v33l13 16h3l-8 -16h6v-33h-14z" />
<glyph unicode="&#x201d;" horiz-adv-x="76" d="M16 122l8 16h-5v33h13v-33l-12 -16h-4zM44 122l8 16h-5v33h13v-33l-12 -16h-4z" />
<glyph unicode="&#x201e;" horiz-adv-x="76" d="M16 -16l8 16h-5v32h13v-32l-12 -16h-4zM44 -16l8 16h-5v32h13v-32l-12 -16h-4z" />
<glyph unicode="&#x2026;" horiz-adv-x="121" d="M14 0v32h13v-32h-13zM54 0v32h13v-32h-13zM94 0v32h14v-32h-14z" />
<glyph unicode="&#x2039;" horiz-adv-x="70" d="M8 62l41 46h14l-41 -46l41 -46h-14z" />
<glyph unicode="&#x203a;" horiz-adv-x="70" d="M8 16l41 46l-41 46h14l41 -46l-41 -46h-14z" />
<glyph unicode="&#x20ac;" horiz-adv-x="166" d="M5 57v12h15q0 2 -1 7q1 5 1 8h-15v12h16q6 27 28 43.5t52 16.5q35 0 58 -26l-9 -9q-9 11 -22 17t-27 6q-24 0 -42 -13t-23 -35h80v-12h-82q0 -2 -1 -8q1 -5 1 -7h82v-12h-80q6 -22 23 -35t42 -13q14 0 27 6t22 17l9 -9q-24 -26 -58 -26q-29 0 -51 16.5t-29 43.5h-16z" />
<glyph unicode="&#x2122;" horiz-adv-x="132" d="M5 164v7h50v-7h-21v-50h-8v50h-21zM63 114v57h10l23 -34l22 34h10v-57h-8v46l-24 -34h-1l-24 34v-46h-8z" />
<glyph unicode="&#x25fc;" horiz-adv-x="123" d="M0 0v124h124v-124h-124z" />
</font>
</defs>
</svg>
