<?xml version="1.0" standalone="no"?>
<!DOCTYPE svg PUBLIC "-//W3C//DTD SVG 1.1//EN" "http://www.w3.org/Graphics/SVG/1.1/DTD/svg11.dtd" >
<svg xmlns="http://www.w3.org/2000/svg">
<metadata></metadata>
<defs>
<font id="dilo_rounded_romanroman" horiz-adv-x="1286" >
<font-face units-per-em="2048" ascent="1536" descent="-512" />
<missing-glyph horiz-adv-x="500" />
<glyph horiz-adv-x="0" />
<glyph horiz-adv-x="0" />
<glyph unicode="&#xd;" horiz-adv-x="682" />
<glyph unicode="!" horiz-adv-x="419" d="M129 80v115q0 34 23 57.5t57 23.5t58 -23.5t24 -57.5v-115q0 -34 -24 -57t-58 -23t-57 23t-23 57zM129 455v686q0 34 23 58t57 24t58 -24t24 -58v-686q0 -34 -24 -57t-58 -23t-57 23t-23 57z" />
<glyph unicode="&#x22;" horiz-adv-x="589" d="M76 926v368q0 34 23 58t57 24t58 -24t24 -58v-368q0 -34 -24 -57t-58 -23t-57 23t-23 57zM352 926v368q0 34 23 58t57 24t58 -24t24 -58v-368q0 -34 -24 -57t-58 -23t-57 23t-23 57z" />
<glyph unicode="#" horiz-adv-x="1370" d="M43 426q0 22 15.5 37.5t37.5 15.5h223l138 406h-189q-22 0 -37.5 15.5t-15.5 37.5t15.5 37.5t37.5 15.5h226l116 338q10 37 49 37q13 0 19 -2q37 -15 37 -51q0 -7 -4 -19l-105 -303h348l115 338q13 37 51 37q13 0 19 -2q35 -12 35 -53q0 -8 -3 -17l-104 -303h205 q23 0 39 -15.5t16 -37.5t-16 -37.5t-39 -15.5h-242l-139 -406h209q23 0 39 -15.5t16 -37.5t-16 -37.5t-39 -15.5h-244l-115 -334q-13 -37 -51 -37q-10 0 -16 2q-37 13 -37 53q0 11 2 15l104 301h-348l-114 -334q-13 -37 -52 -37q-10 0 -16 2q-17 6 -27 20t-10 29q0 7 4 19 l103 301h-187q-22 0 -37.5 15.5t-15.5 37.5zM432 479h346l140 406h-349z" />
<glyph unicode="$" horiz-adv-x="1087" d="M84.5 172q-4.5 33 15.5 59q22 27 56 31.5t63 -16.5q115 -96 264 -115v434q-49 13 -83.5 23t-78.5 27t-74 34.5t-61.5 43.5t-50.5 55.5t-31 69.5t-12 87q0 138 109 231.5t282 108.5v101q0 26 17 43.5t43 17.5t43.5 -17.5t17.5 -43.5v-101q203 -15 338 -117q28 -20 32 -53 t-18 -59q-20 -26 -53 -30.5t-59 15.5q-102 75 -240 91v-375q53 -15 89 -26t85 -30.5t82 -39t68.5 -48.5t56.5 -62t35 -78t14 -97q0 -66 -24 -125.5t-73 -110.5t-134.5 -84t-198.5 -39v-100q0 -25 -17.5 -43t-43.5 -18t-43 18t-17 43v103q-219 17 -368 137q-26 22 -30.5 55z M281 913q0 -60 51.5 -96.5t150.5 -66.5v344q-97 -9 -149.5 -56t-52.5 -125zM604 129q70 4 120 22.5t76 47t37 59.5t11 68q0 43 -18 76.5t-54.5 57.5t-75.5 40t-96 32v-403z" />
<glyph unicode="%" horiz-adv-x="1527" d="M63 1047q0 147 95 243t243 96t242 -96t94 -243q0 -143 -94 -238.5t-242 -95.5t-243 95.5t-95 238.5zM190 1047q0 -98 59 -164t152 -66t152 66t59 164q0 102 -59 168.5t-152 66.5t-152 -66.5t-59 -168.5zM332 57q0 18 8 31l719 1245q17 31 51 31q16 0 29 -8q28 -16 28 -51 q0 -18 -8 -31l-719 -1245q-17 -27 -49 -27q-18 0 -31 8q-28 16 -28 47zM791 311q0 144 94.5 241t240.5 97q147 0 241.5 -97t94.5 -241t-94 -240t-242 -96q-146 0 -240.5 96t-94.5 240zM913 311q0 -99 59.5 -165t153.5 -66t153.5 66t59.5 165q0 101 -59.5 167.5t-153.5 66.5 t-153.5 -66.5t-59.5 -167.5z" />
<glyph unicode="&#x26;" horiz-adv-x="1259" d="M53 285q0 67 24.5 125.5t72.5 106.5t93.5 81.5t112.5 73.5q-84 77 -130 153.5t-46 173.5q0 124 80.5 209.5t233.5 85.5q142 0 226.5 -80.5t84.5 -214.5q0 -108 -56.5 -185t-158.5 -148q142 -146 297 -289q40 82 88 207q10 29 38 40.5t58 0.5q26 -10 37 -39t0 -58 q-60 -144 -113 -245q23 -19 75 -57t75 -58q27 -22 31.5 -52.5t-15.5 -58.5t-51 -32t-57 16l-146 115q-153 -181 -413 -181q-81 0 -157.5 19t-141 55t-103.5 97.5t-39 138.5zM225 285q0 -55 45.5 -96t105 -58.5t118.5 -17.5q192 0 309 137q-57 54 -177.5 173t-166.5 159 q-55 -35 -90 -61.5t-71.5 -63.5t-54.5 -80t-18 -92zM352 999q0 -62 38 -119.5t104 -119.5q139 106 139 239q0 71 -35.5 114.5t-103.5 43.5q-64 0 -103 -46t-39 -112z" />
<glyph unicode="'" horiz-adv-x="317" d="M87.5 985q-3.5 12 2.5 23l39 82q-18 0 -29.5 10.5t-11.5 27.5v156q0 34 24 58t56 24q34 0 58 -24t24 -58v-164q0 -31 -27 -61l-73 -86q-12 -12 -29 -12q-12 0 -21 6t-12.5 18z" />
<glyph unicode="(" horiz-adv-x="518" d="M96 498q0 211 75.5 463t195.5 393q17 20 42.5 23.5t45.5 -11.5q20 -13 25.5 -36.5t-5.5 -45.5q-101 -196 -151 -378t-50 -408t50 -408.5t151 -378.5q11 -22 5.5 -45.5t-25.5 -36.5q-20 -15 -46.5 -11t-41.5 24q-126 157 -198.5 393.5t-72.5 462.5z" />
<glyph unicode=")" horiz-adv-x="518" d="M37.5 -334.5q-5.5 23.5 5.5 45.5q101 196 151 378.5t50 408.5t-50 408t-151 378q-11 22 -5.5 45.5t25.5 36.5q20 15 46 11.5t43 -23.5q120 -141 195 -393t75 -463q0 -227 -72 -463t-198 -393q-15 -20 -42 -24t-47 11q-20 13 -25.5 36.5z" />
<glyph unicode="*" horiz-adv-x="708" d="M92 969q0 28 21 37l155 86l-155 86q-21 12 -21 36q0 15 4 21q13 22 37 22q11 0 23 -6l155 -88v180q0 18 12.5 30.5t30.5 12.5t30.5 -12.5t12.5 -30.5v-180l156 88q9 6 20 6q26 0 39 -22q4 -6 4 -21q0 -25 -22 -36l-154 -86l154 -86q22 -8 22 -37q0 -15 -4 -21 q-11 -20 -39 -20q-14 0 -20 4l-156 88v-184q0 -14 -13 -26.5t-30 -12.5t-30 13t-13 30v180l-155 -88q-8 -4 -23 -4q-26 0 -37 20q-4 6 -4 21z" />
<glyph unicode="+" horiz-adv-x="1042" d="M86 571q0 22 15.5 38t37.5 16h344v321q0 23 17.5 40.5t40.5 17.5t40 -17.5t17 -40.5v-321h346q22 0 37.5 -16t15.5 -38t-15.5 -37.5t-37.5 -15.5h-346v-325q0 -23 -17 -40.5t-40 -17.5t-40.5 17.5t-17.5 40.5v325h-344q-22 0 -37.5 15.5t-15.5 37.5z" />
<glyph unicode="," horiz-adv-x="440" d="M149.5 -105q-3.5 12 2.5 23l38 82q-17 0 -28.5 11t-11.5 28v156q0 34 23.5 57.5t55.5 23.5q34 0 58 -23.5t24 -57.5v-164q0 -33 -26 -62l-74 -86q-12 -12 -29 -12q-11 0 -20 6t-12.5 18z" />
<glyph unicode="-" horiz-adv-x="626" d="M66 496q0 28 19.5 47.5t47.5 19.5h385q28 0 48 -19.5t20 -47.5t-20 -48t-48 -20h-385q-28 0 -47.5 20t-19.5 48z" />
<glyph unicode="." horiz-adv-x="419" d="M129 80v115q0 34 23 57.5t57 23.5t58 -23.5t24 -57.5v-115q0 -34 -24 -57t-58 -23t-57 23t-23 57z" />
<glyph unicode="/" horiz-adv-x="571" d="M2 39q0 12 2 18l451 1311q12 39 55 39q14 0 20 -2q39 -12 39 -55q0 -9 -4 -21l-450 -1311q-12 -38 -54 -38q-8 0 -20 4q-39 12 -39 55z" />
<glyph unicode="0" horiz-adv-x="1226" d="M59 637q0 103 19 194.5t61.5 173t106 140.5t157 93t209.5 34t210 -34t157.5 -93t106.5 -140.5t62 -173t19 -194.5q0 -102 -19 -194t-62 -173.5t-106.5 -141t-157.5 -94t-210 -34.5t-209.5 34.5t-157 94t-106 141t-61.5 173.5t-19 194zM246 637q0 -107 19 -191.5t60 -152 t114 -104.5t173 -37q369 0 369 485q0 483 -369 483q-366 0 -366 -483z" />
<glyph unicode="1" horiz-adv-x="714" d="M57 1147q0 31 23.5 53.5t58.5 22.5h359q31 0 53 -22.5t22 -53.5v-1057q0 -37 -26.5 -63.5t-63.5 -26.5t-63.5 27.5t-26.5 68.5v975h-260q-31 0 -53.5 22.5t-22.5 53.5z" />
<glyph unicode="2" horiz-adv-x="1112" d="M72 1014q0 35 26 61q175 172 467 172q92 0 177.5 -25t156 -73t112.5 -126.5t42 -176.5q0 -67 -27 -134.5t-79.5 -130t-112.5 -118t-143.5 -113.5t-153.5 -101.5t-162 -96.5h602q31 0 53.5 -22.5t22.5 -53.5t-22.5 -53.5t-53.5 -22.5h-750q-44 0 -75 31t-31 75 q0 30 14.5 56t38.5 39q149 85 249.5 147t191.5 128.5t142.5 123.5t81 119t29.5 127q0 63 -26.5 112.5t-70.5 78.5t-96.5 44t-109.5 15q-224 0 -362 -138q-23 -20 -56 -20q-31 0 -53 22.5t-22 53.5z" />
<glyph unicode="3" horiz-adv-x="1144" d="M88 182.5q-4 34.5 18 57.5q23 29 58 31.5t61 -23.5q73 -62 152 -91.5t188 -29.5q157 0 247.5 69t90.5 187q0 123 -96.5 182.5t-263.5 59.5h-84q-48 0 -70 32q-21 27 -17 63.5t31 57.5l402 293h-572q-31 0 -53 22.5t-22 53.5t22 53.5t53 22.5h719q43 0 73 -30t30 -73 q0 -49 -39 -80l-373 -270q442 -54 442 -401q0 -173 -142 -283.5t-378 -110.5q-297 0 -444 150q-29 23 -33 57.5z" />
<glyph unicode="4" horiz-adv-x="1157" d="M59 332q0 37 23 67l547 750q48 74 137 74h74q90 0 90 -74v-772h127q31 0 53.5 -22.5t22.5 -53.5t-22.5 -52.5t-53.5 -21.5h-127v-137q0 -38 -27 -64t-65 -26t-64 26t-26 64v137h-584q-44 0 -74.5 30.5t-30.5 74.5zM242 377h506v688z" />
<glyph unicode="5" horiz-adv-x="1150" d="M94.5 182.5q-3.5 34.5 18.5 57.5q23 29 57.5 31.5t60.5 -23.5q73 -62 152 -91.5t188 -29.5q153 0 244.5 65t91.5 187q0 130 -89.5 192t-244.5 62q-175 0 -307 -105q-28 -22 -61 -22q-40 0 -68 28t-28 68v469q0 63 44 107.5t107 44.5h658q31 0 53 -22.5t22 -53.5 t-22 -53.5t-53 -22.5h-631v-397q54 44 145.5 75t192.5 31q71 0 137 -13.5t126.5 -44t104.5 -75.5t70.5 -112.5t26.5 -149.5q0 -134 -69.5 -228t-184.5 -138t-265 -44q-297 0 -444 150q-29 23 -32.5 57.5z" />
<glyph unicode="6" horiz-adv-x="1144" d="M59 604q0 140 37 256.5t109.5 203.5t188.5 135t265 48q206 0 342 -110q27 -19 32 -50t-15 -59q-20 -26 -52 -29.5t-65 21.5q-95 76 -242 76q-103 0 -183.5 -36.5t-130.5 -101t-75.5 -150t-25.5 -187.5v-29q4 8 12 20.5t40 45t72 57t111 45t154 20.5q82 0 161 -26 t144.5 -74t106 -126t40.5 -173q0 -185 -128 -295.5t-357 -110.5q-119 0 -212 32.5t-154 88.5t-101 136.5t-57 172t-17 199.5zM287 377q0 -118 85 -184t224 -66q138 0 222.5 66t84.5 184q0 119 -84.5 187.5t-222.5 68.5q-139 0 -224 -68t-85 -188z" />
<glyph unicode="7" horiz-adv-x="1097" d="M53 1147q0 31 22.5 53.5t53.5 22.5h731q63 0 107.5 -44.5t44.5 -107.5q0 -31 -15 -65l-452 -953v-2q-2 -2 -2 -4q-15 -33 -50.5 -44.5t-70.5 5.5q-34 15 -46.5 50t3.5 67l457 946h-707q-31 0 -53.5 22.5t-22.5 53.5z" />
<glyph unicode="8" horiz-adv-x="1116" d="M59 315q0 235 324 328q-128 35 -203.5 109.5t-75.5 177.5q0 98 64 171.5t166 109.5t225 36t224 -34.5t166 -108t65 -174.5q0 -103 -76 -177.5t-205 -109.5q324 -93 324 -328q0 -112 -66 -190t-176 -114t-256 -36q-103 0 -192 21t-158.5 61.5t-109.5 106.5t-40 151z M244 336q0 -98 86.5 -153.5t228.5 -55.5t227.5 55.5t85.5 153.5t-85.5 154.5t-227.5 56.5t-228.5 -56.5t-86.5 -154.5zM287 909q0 -78 73.5 -131t200.5 -53q126 0 198 52t72 132q0 79 -73 133t-197 54q-128 0 -201 -53t-73 -134z" />
<glyph unicode="9" horiz-adv-x="1144" d="M59 842q0 185 128 295t358 110q119 0 212 -32.5t154 -88.5t100.5 -136.5t56.5 -172t17 -199.5q0 -140 -37 -256.5t-109.5 -203.5t-188.5 -135t-265 -48q-205 0 -342 111q-26 19 -31 50t15 59q20 26 52 29.5t65 -21.5q95 -76 241 -76q103 0 183.5 36.5t131 101t76 150 t25.5 187.5v29q-2 -4 -6 -11t-19.5 -26.5t-34 -37.5t-51.5 -39.5t-71 -37t-92 -26.5t-115 -11q-82 0 -161 26t-145 74.5t-106.5 126.5t-40.5 173zM242 846q0 -119 84.5 -187.5t222.5 -68.5q139 0 224 68t85 188q0 118 -85 184t-224 66q-138 0 -222.5 -66t-84.5 -184z" />
<glyph unicode=":" horiz-adv-x="419" d="M129 80v115q0 34 23 57.5t57 23.5t58 -23.5t24 -57.5v-115q0 -34 -24 -57t-58 -23t-57 23t-23 57zM129 793v114q0 34 23 58t57 24t58 -24t24 -58v-114q0 -34 -24 -57t-58 -23t-57 23t-23 57z" />
<glyph unicode=";" horiz-adv-x="479" d="M128.5 -105q-3.5 12 2.5 23l39 82q-17 0 -29 11t-12 28v156q0 33 23.5 57t56.5 24q34 0 58 -23.5t24 -57.5v-164q0 -32 -27 -62l-74 -86q-12 -12 -28 -12q-12 0 -21 6t-12.5 18zM129 793v114q0 34 23 58t57 24t58 -24t24 -58v-114q0 -34 -24 -57t-58 -23t-57 23t-23 57z " />
<glyph unicode="&#x3c;" horiz-adv-x="1044" d="M61 578q0 34 33 51l807 391q22 9 44 1.5t32 -28.5q10 -22 2.5 -43t-29.5 -32l-704 -340l704 -342q22 -9 30 -31.5t-3 -44.5q-11 -20 -32.5 -27.5t-43.5 2.5l-807 391q-33 13 -33 52z" />
<glyph unicode="=" horiz-adv-x="1021" d="M59 373q0 23 15.5 39t38.5 16h794q23 0 39.5 -16t16.5 -39t-16.5 -38.5t-39.5 -15.5h-794q-23 0 -38.5 15.5t-15.5 38.5zM59 768q0 23 15.5 39t38.5 16h794q23 0 39.5 -16t16.5 -39t-16 -38t-40 -15h-794q-23 0 -38.5 15t-15.5 38z" />
<glyph unicode="&#x3e;" horiz-adv-x="1044" d="M64.5 204.5q7.5 22.5 29.5 31.5l705 342l-705 340q-22 10 -29.5 31.5t3.5 43.5q10 21 31.5 28.5t43.5 -1.5l807 -391q33 -17 33 -51q0 -39 -33 -52l-807 -391q-22 -10 -43 -3t-32 28q-11 22 -3.5 44.5z" />
<glyph unicode="?" horiz-adv-x="993" d="M70 1012q0 39 32 65q180 146 412 146q185 0 305.5 -93t120.5 -258q0 -49 -10.5 -93.5t-39.5 -93.5t-74.5 -87.5t-121.5 -70.5t-174 -48v-24q0 -34 -24 -57t-58 -23t-57 23t-23 57v86q0 34 23 58t57 24q61 0 111 12t81.5 30t55.5 43.5t36 48t19.5 48t9 40.5t1.5 27v9 q0 82 -65.5 136t-188.5 54q-193 0 -291 -106q-29 -29 -62 -29q-32 0 -53.5 22t-21.5 54zM358 80v115q0 34 23 57.5t57 23.5t58 -23.5t24 -57.5v-115q0 -34 -24 -57t-58 -23t-57 23t-23 57z" />
<glyph unicode="@" horiz-adv-x="1652" d="M74 582q0 148 58 282t157.5 231.5t240 154.5t297.5 57t294 -57t232.5 -154t150.5 -231t55 -283q0 -209 -67 -307.5t-177 -98.5q-89 0 -140.5 32.5t-87.5 86.5q-112 -119 -280 -119q-188 0 -303 120t-115 298q0 176 115 296t303 120q39 0 81 -10t95.5 -43t89.5 -85v52 q0 28 19 46.5t47 18.5t46.5 -18.5t18.5 -46.5v-498q0 -139 139 -139q63 0 102.5 72.5t39.5 220.5q0 180 -83.5 329.5t-235 237.5t-339.5 88q-142 0 -268 -52t-215.5 -139.5t-141.5 -208.5t-52 -255q0 -133 52 -253.5t141.5 -208.5t215.5 -140t268 -52q199 0 312 68 q33 18 49 -8q9 -10 7 -26t-15 -23q-132 -80 -353 -80q-157 0 -297.5 57.5t-240 155t-157.5 231t-58 281.5zM528 594q0 -129 74.5 -218t204.5 -89t204 89t74 218q0 128 -74.5 216.5t-203.5 88.5q-130 0 -204.5 -88.5t-74.5 -216.5z" />
<glyph unicode="A" horiz-adv-x="1306" d="M70 94q0 26 12 47l442 1039q8 19 27 31t43 12h121q24 0 42.5 -12t26.5 -31l443 -1039q12 -21 12 -47q0 -41 -25.5 -67.5t-64.5 -26.5q-34 0 -58 18.5t-32 49.5l-74 176h-661l-74 -176q-8 -31 -32 -49.5t-58 -18.5q-39 0 -64.5 26.5t-25.5 67.5zM381 393h545l-273 656z " />
<glyph unicode="B" horiz-adv-x="1241" d="M160 90v1043q0 37 26.5 63.5t63.5 26.5h395q195 0 301.5 -76t106.5 -227q0 -82 -37 -142q-52 -94 -154 -131q57 -15 104.5 -38.5t87 -59.5t61.5 -87.5t22 -115.5q0 -181 -112 -263.5t-306 -82.5h-469q-37 0 -63.5 26.5t-26.5 63.5zM340 152h344q266 0 266 204 q0 95 -69 150t-197 55h-344v-409zM340 713h276q248 0 248 182q0 91 -61.5 133.5t-186.5 42.5h-276v-358z" />
<glyph unicode="C" horiz-adv-x="1316" d="M104 612q0 137 49.5 255.5t136 201.5t207 130.5t257.5 47.5q144 0 293 -67.5t208 -184.5q9 -19 9 -39q0 -12 -4 -25q-10 -33 -39 -50q-29 -15 -62 -5.5t-53 39.5q-56 86 -147.5 133.5t-206.5 47.5q-203 0 -331 -137t-128 -349q0 -209 128.5 -346t330.5 -137 q118 0 211 46.5t145 133.5q18 29 50 39q13 4 26 5q19 0 37 -9q29 -14 39 -48q4 -13 4 -27q0 -20 -9 -38q-60 -121 -203 -187.5t-300 -66.5q-143 1 -264.5 50t-205 133.5t-131 201.5t-47.5 252z" />
<glyph unicode="D" horiz-adv-x="1372" d="M160 90v1043q0 37 26.5 63.5t63.5 26.5h274q343 0 543.5 -163.5t200.5 -451.5t-200 -448t-544 -160h-274q-37 0 -63.5 26.5t-26.5 63.5zM340 152h184q265 0 411 118.5t146 337.5q0 222 -144.5 342.5t-412.5 120.5h-184v-919z" />
<glyph unicode="E" horiz-adv-x="1067" d="M160 90v1043q0 37 27.5 63.5t68.5 26.5h674q31 0 53.5 -22.5t22.5 -53.5t-23.5 -53.5t-58.5 -22.5h-584v-358h467q31 0 53.5 -22.5t22.5 -53.5t-23.5 -53.5t-58.5 -22.5h-461v-409h590q31 0 53.5 -22.5t22.5 -53.5t-22.5 -53.5t-53.5 -22.5h-680q-37 0 -63.5 26.5 t-26.5 63.5z" />
<glyph unicode="F" horiz-adv-x="1067" d="M160 90v1043q0 37 27.5 63.5t68.5 26.5h674q31 0 53.5 -22.5t22.5 -53.5t-23.5 -53.5t-58.5 -22.5h-584v-358h467q31 0 53.5 -22.5t22.5 -53.5t-23.5 -53.5t-58.5 -22.5h-461v-471q0 -37 -26.5 -63.5t-63.5 -26.5t-63.5 26.5t-26.5 63.5z" />
<glyph unicode="G" horiz-adv-x="1474" d="M104 610q0 183 84.5 328.5t233 227t332.5 81.5q144 0 293 -67.5t208 -184.5q11 -22 11 -39q0 -50 -45 -75q-22 -11 -37 -11q-50 0 -78 45q-56 86 -147.5 133.5t-206.5 47.5q-209 0 -334 -136t-125 -350q0 -211 125 -347t334 -136q195 0 312.5 114.5t117.5 278.5h-355 q-31 0 -53 22.5t-22 53.5t23.5 53.5t58.5 22.5h438q38 0 66 -28t28 -66q0 -119 -32 -218.5t-88 -169.5t-133 -119t-167.5 -72.5t-191.5 -23.5q-142 0 -263.5 48.5t-206 133t-132.5 202t-48 251.5z" />
<glyph unicode="H" horiz-adv-x="1357" d="M160 90v1043q0 37 26.5 63.5t63.5 26.5t63.5 -26.5t26.5 -63.5v-420h678v420q0 37 26.5 63.5t63.5 26.5t63.5 -26.5t26.5 -63.5v-1043q0 -37 -26.5 -63.5t-63.5 -26.5t-63.5 26.5t-26.5 63.5v471h-678v-471q0 -37 -26.5 -63.5t-63.5 -26.5t-63.5 26.5t-26.5 63.5z" />
<glyph unicode="I" horiz-adv-x="499" d="M160 90v1043q0 37 26.5 63.5t63.5 26.5t63.5 -26.5t26.5 -63.5v-1043q0 -37 -26.5 -63.5t-63.5 -26.5t-63.5 26.5t-26.5 63.5z" />
<glyph unicode="J" horiz-adv-x="1077" d="M-80 126q-2 9 -2 17q0 20 12 39q15 28 45.5 37t61.5 -8q137 -84 325 -84q375 0 375 481v525q0 37 26 63.5t64 26.5q37 0 64 -26.5t27 -63.5v-523q0 -37 -0.5 -62t-5.5 -78t-14.5 -92t-29 -93.5t-46 -94.5t-69.5 -83t-96.5 -70t-129 -44.5t-165.5 -17.5q-245 0 -407 103 q-27 18 -35 48z" />
<glyph unicode="K" horiz-adv-x="1214" d="M160 90v1043q0 38 26.5 64t63.5 26t63.5 -26t26.5 -64v-543l549 606q23 25 57 26h3q32 0 57 -22q26 -24 26 -59q0 -32 -22 -56l-408 -438l467 -510q21 -23 21 -54q0 -36 -27 -60q-24 -22 -56 -22q-2 1 -4 1q-34 2 -57 27l-463 514l-143 -156v-297q0 -37 -26.5 -63.5 t-63.5 -26.5t-63.5 26.5t-26.5 63.5z" />
<glyph unicode="L" horiz-adv-x="1034" d="M160 90v1043q0 37 26.5 63.5t63.5 26.5t63.5 -26.5t26.5 -63.5v-981h598q31 0 53.5 -22.5t22.5 -53.5t-22.5 -53.5t-53.5 -22.5h-688q-37 0 -63.5 26.5t-26.5 63.5z" />
<glyph unicode="M" horiz-adv-x="1732" d="M158 90v1002q0 56 39.5 93.5t93.5 37.5q37 0 69 -20t52 -52l454 -657l455 657q20 32 52 52t69 20q54 0 93.5 -37.5t39.5 -93.5v-1002q0 -37 -26.5 -63.5t-63.5 -26.5t-63.5 26.5t-26.5 63.5v901l-492 -719q-12 -20 -37 -20t-37 20l-491 719v-901q0 -37 -26.5 -63.5 t-63.5 -26.5t-63.5 26.5t-26.5 63.5z" />
<glyph unicode="N" horiz-adv-x="1429" d="M160 90v1008q0 53 35.5 89t87.5 36q61 0 98 -47l709 -908v865q0 37 26.5 63.5t63.5 26.5t63.5 -26.5t26.5 -63.5v-1000q0 -55 -39 -94t-94 -39q-62 0 -103 47l-694 899v-856q0 -37 -26.5 -63.5t-63.5 -26.5t-63.5 26.5t-26.5 63.5z" />
<glyph unicode="O" horiz-adv-x="1505" d="M104 610q0 181 81 326t229.5 228t337.5 83q190 0 338.5 -83t229.5 -228t81 -326q0 -135 -47.5 -252t-131.5 -201.5t-205.5 -133t-264.5 -48.5q-142 0 -263.5 48.5t-205.5 133t-131.5 202t-47.5 251.5zM293 610q0 -211 125 -347t334 -136q206 0 333 136.5t127 346.5 q0 213 -126.5 349.5t-333.5 136.5q-209 0 -334 -136t-125 -350z" />
<glyph unicode="P" horiz-adv-x="1300" d="M160 90v1043q0 37 26.5 63.5t63.5 26.5h491q106 0 193.5 -33t144 -89.5t87 -131t30.5 -158.5q0 -174 -123 -293t-332 -119h-401v-309q0 -37 -26.5 -63.5t-63.5 -26.5t-63.5 26.5t-26.5 63.5zM340 551h379q129 0 209 72t80 188t-80 188t-209 72h-379v-520z" />
<glyph unicode="Q" horiz-adv-x="1507" d="M104 610q0 134 48 252t132.5 202.5t206 133.5t263.5 49t263.5 -49t206 -133.5t132 -202.5t47.5 -252q0 -254 -156.5 -429t-410.5 -201v-136q0 -34 -24 -58t-58 -24t-57 24t-23 58v136q-256 26 -413 201t-157 429zM293 610q0 -190 102 -321t279 -158v148q0 34 23 57.5 t57 23.5t58 -23.5t24 -57.5v-146q172 26 275 157t103 320q0 212 -126.5 349t-333.5 137q-210 0 -335.5 -136.5t-125.5 -349.5z" />
<glyph unicode="R" horiz-adv-x="1302" d="M160 90v1043q0 37 26.5 63.5t63.5 26.5h491q201 0 329 -112.5t128 -299.5q0 -89 -31.5 -163t-84.5 -122.5t-120.5 -77t-142.5 -34.5l197 -279q15 -21 15 -46q0 -9 -2 -18q-7 -35 -36 -57q-22 -15 -48 -15q-7 0 -15 1q-36 6 -56 35l-245 364h-289v-309q0 -37 -26.5 -63.5 t-63.5 -26.5t-63.5 26.5t-26.5 63.5zM340 549h379q129 0 210 73t81 189q0 117 -81 188.5t-210 71.5h-379v-522z" />
<glyph unicode="S" horiz-adv-x="1163" d="M109 172q-1 6 -1 11q0 27 17 48q22 27 56 31q6 1 12 1q27 0 51 -17q144 -119 340 -119q83 0 142.5 17t89.5 47t43 63t13 72q0 64 -41.5 108t-108 69t-147 45t-161.5 45t-147.5 60t-108 99t-41.5 153q0 151 128 246.5t324 95.5q242 0 398 -119q28 -20 32 -53t-18 -59 q-20 -26 -53.5 -30.5t-59.5 15.5q-126 95 -311 95q-119 0 -185.5 -48t-66.5 -135q0 -40 26 -71t69.5 -51.5t100 -37.5t119 -34t125 -36.5t119 -49.5t100 -68t69.5 -97t26 -132q0 -69 -26.5 -131t-81 -115t-150.5 -84t-223 -31q-260 0 -439 142q-26 22 -30 55z" />
<glyph unicode="T" horiz-adv-x="1161" d="M31 1147q0 31 22 53.5t53 22.5h949q31 0 53 -22.5t22 -53.5t-22 -53.5t-53 -22.5h-385v-981q0 -37 -26.5 -63.5t-63.5 -26.5t-64 26.5t-27 63.5v981h-383q-31 0 -53 22.5t-22 53.5z" />
<glyph unicode="U" horiz-adv-x="1376" d="M160 473v660q0 37 26.5 63.5t63.5 26.5t63.5 -26.5t26.5 -63.5v-656q0 -350 348 -350q176 0 262 90t86 260v656q0 37 26.5 63.5t63.5 26.5t64 -26.5t27 -63.5v-658q0 -234 -134.5 -367t-394.5 -133q-258 0 -393 133t-135 365z" />
<glyph unicode="V" horiz-adv-x="1306" d="M76 1165q14 36 49 49q18 8 36 8q17 0 35 -7q36 -14 50 -48l407 -981l408 981q14 34 50 48q17 7 35 7t36 -8q34 -12 48 -48q7 -19 7 -38q0 -17 -6 -34q-375 -874 -420 -983q-18 -49 -61 -80t-97 -31t-96.5 31t-60.5 80l-420 983q-8 18 -8 36q1 17 8 35z" />
<glyph unicode="W" horiz-adv-x="1812" d="M55 1104q-5 14 -5 28q0 23 12 44q20 34 59 45q13 3 25 3q24 0 46 -12q34 -20 44 -57l262 -928l309 926q11 31 37 50.5t61 19.5q33 0 59 -19t37 -49l312 -928l260 928q11 37 45 57q22 13 47 12q12 0 25 -3q37 -11 56 -45q12 -21 12 -43q0 -14 -5 -29l-303 -1002 q-14 -45 -49 -73.5t-80 -28.5q-44 0 -79.5 28.5t-49.5 69.5l-287 860l-289 -860q-11 -42 -47.5 -70t-81.5 -28q-46 0 -82 29t-47 73z" />
<glyph unicode="X" horiz-adv-x="1288" d="M112 74q-1 6 0 12q0 28 19 51l395 492l-366 456q-19 24 -19 52q0 5 1 11q4 34 32 56q25 19 54 19h8q34 -3 55 -31l352 -442l348 440q23 28 57 32q5 1 10 1q28 0 52 -19q27 -20 31 -54q1 -5 1 -11q0 -28 -18 -54l-364 -456l393 -492q20 -24 20 -54q-1 -5 -1 -9 q-4 -34 -31 -56q-23 -18 -52 -18h-11q-36 4 -58 33l-377 477l-379 -477q-22 -29 -56 -33q-6 -1 -12 0q-28 0 -51 18q-29 22 -33 56z" />
<glyph unicode="Y" horiz-adv-x="1257" d="M102 1151q5 35 33 55q23 16 49 16q7 0 14 -2q34 -5 56 -34l377 -527l375 527q22 29 56 34q7 2 14 2q25 0 48 -16q28 -21 34 -55q1 -8 1 -15q0 -26 -16 -49l-422 -581v-416q0 -38 -26.5 -64t-63.5 -26q-38 0 -64 26t-26 64v416l-424 581q-16 23 -16 50q0 7 1 14z" />
<glyph unicode="Z" horiz-adv-x="1163" d="M104 104q0 37 25 66l694 901h-643q-31 0 -53.5 22t-22.5 54q0 31 22.5 53.5t53.5 22.5h772q43 0 74 -31.5t31 -75.5q0 -39 -25 -67l-698 -897h649q32 0 54 -22.5t22 -53.5q0 -32 -22 -54t-54 -22h-772q-44 0 -75.5 30.5t-31.5 73.5z" />
<glyph unicode="[" horiz-adv-x="507" d="M84 -389v1778h332q23 0 40 -17.5t17 -40.5t-17 -39t-40 -16h-209v-1552h209q23 0 40 -17.5t17 -40.5t-17 -39t-40 -16h-332z" />
<glyph unicode="\" horiz-adv-x="573" d="M2 1366q0 43 39 55q6 2 20 2q19 0 34.5 -10.5t21.5 -28.5l450 -1310q2 -6 2 -19q0 -43 -39 -55q-12 -4 -20 -4q-18 0 -32.5 10.5t-20.5 28.5l-451 1311q-4 12 -4 20z" />
<glyph unicode="]" horiz-adv-x="507" d="M37 -334q0 23 17 40.5t40 17.5h209v1552h-209q-23 0 -40 16t-17 39t17 40.5t40 17.5h332v-1778h-332q-23 0 -40 16t-17 39z" />
<glyph unicode="^" horiz-adv-x="495" d="M0 1200q0 20 12 35l115 172q24 27 55 27h131q32 0 56 -27l114 -172q13 -16 13 -35q0 -27 -23 -47q-14 -14 -39 -14q-30 0 -47 20l-131 154l-8 12l-8 -12l-131 -154q-17 -20 -48 -20q-24 0 -38 14q-23 20 -23 47z" />
<glyph unicode="_" horiz-adv-x="1179" d="M35 -139q0 23 16 40t39 17h997q23 0 39.5 -17t16.5 -40t-16.5 -39.5t-39.5 -16.5h-997q-23 0 -39 16.5t-16 39.5z" />
<glyph unicode="`" horiz-adv-x="471" d="M109 1366.5q3 28.5 26 48.5t53.5 17.5t49.5 -25.5l114 -172q14 -19 11 -43t-21 -39q-19 -17 -44 -15t-42 21l-131 154q-19 25 -16 53.5z" />
<glyph unicode="a" horiz-adv-x="1157" d="M90 287q0 68 25 122.5t65 91t99.5 64t119 42.5t134 24t133 11.5t127.5 2.5h49v14q-1 37 -6.5 65t-23 58.5t-46 50t-79.5 32t-120 12.5q-142 0 -274 -82q-23 -14 -51 -7t-41 31q-14 23 -7 51t31 41q168 103 342 103q98 0 176 -23t137.5 -70t91.5 -125.5t32 -183.5v-532 q0 -34 -24 -57t-58 -23t-57 23t-23 57v65q-135 -170 -346 -170q-94 0 -168.5 21.5t-117.5 54.5t-71.5 76.5t-38.5 82.5t-10 77zM260 287q0 -81 71.5 -127.5t178.5 -46.5q88 0 155.5 34t104 88.5t54.5 112.5t18 117v49h-49q-533 0 -533 -227z" />
<glyph unicode="b" horiz-adv-x="1257" d="M154 80v1163q0 34 23 58t56 24q34 0 58 -24t24 -58v-401q45 65 112 106t119.5 53.5t100.5 12.5q155 0 275 -70t182.5 -187t62.5 -261t-62.5 -262t-182.5 -188.5t-275 -70.5q-83 0 -175 39t-157 131v-65q0 -34 -24 -57t-58 -23t-56.5 23t-22.5 57zM301 496q0 -103 39 -189 t119 -140t188 -54q162 0 255 111.5t93 271.5q0 103 -39 188t-120 139t-189 54q-160 0 -253 -111t-93 -270z" />
<glyph unicode="c" horiz-adv-x="1087" d="M90 496q0 146 65 263.5t185.5 186t273.5 68.5q207 0 334 -121q20 -20 20 -49t-22 -49t-50 -20t-48 20q-85 82 -225 82q-163 0 -262 -107t-99 -274t99 -275t262 -108q143 0 225 82q20 20 49 19t49 -21q20 -22 20 -51.5t-22 -49.5q-126 -117 -330 -117q-153 0 -273.5 69 t-185.5 187.5t-65 264.5z" />
<glyph unicode="d" horiz-adv-x="1257" d="M90 496q0 144 62.5 261t182.5 187t275 70q48 0 100.5 -12.5t119.5 -53.5t112 -106v401q0 34 24 58t58 24t57 -24t23 -58v-1163q0 -34 -23 -57t-57 -23t-58 23t-24 57v65q-65 -92 -157 -131t-175 -39q-155 0 -275 70.5t-182.5 188.5t-62.5 262zM262 496q0 -160 93 -271.5 t255 -111.5q108 0 188 54t119 140t39 189q0 159 -93 270t-253 111q-108 0 -189 -54t-120 -139t-39 -188z" />
<glyph unicode="e" horiz-adv-x="1159" d="M90 496q0 218 142 368t356 150q108 0 199.5 -39.5t152 -104.5t94 -146t33.5 -165q0 -46 -34.5 -80.5t-80.5 -34.5h-690q8 -144 102.5 -237.5t251.5 -93.5q139 0 252 80q20 19 48 17t47 -24t17 -50.5t-24 -47.5q-56 -56 -153 -84.5t-197 -28.5q-227 0 -371.5 145 t-144.5 376zM262 559h647q-1 57 -20 111.5t-56.5 101.5t-101.5 76t-145 29q-63 0 -116 -18.5t-90 -50t-63.5 -73t-39.5 -86t-15 -90.5z" />
<glyph unicode="f" horiz-adv-x="583" d="M20 866q0 28 20 48t48 20h43q0 162 106 280.5t273 118.5q29 0 49.5 -20t20.5 -49q0 -26 -19 -46.5t-45 -21.5q-60 -8 -104 -34.5t-66 -56.5t-35 -68.5t-15.5 -60.5t-2.5 -42h125q28 0 47.5 -20t19.5 -48t-19.5 -47.5t-47.5 -19.5h-125v-719q0 -34 -24 -57t-58 -23t-57 23 t-23 57v719h-43q-28 0 -48 19.5t-20 47.5z" />
<glyph unicode="g" horiz-adv-x="1257" d="M90 496q0 144 62.5 261t182.5 187t275 70q48 0 100.5 -12.5t119.5 -53.5t112 -106v65q0 34 24 58t56 24q34 0 58 -24t24 -58v-819q0 -50 -1 -79.5t-10.5 -87t-27 -95t-54 -85t-87.5 -75t-131.5 -47.5t-182.5 -20q-224 0 -377 100q-24 15 -29 44t11 52q15 24 43 30t53 -9 q128 -80 299 -80q54 0 98.5 8.5t77 20t58 34.5t41.5 42.5t27.5 53.5t17 56.5t8.5 63.5t3.5 63.5t0.5 66.5q-65 -92 -157 -131t-175 -39q-155 0 -275 70.5t-182.5 188.5t-62.5 262zM262 496q0 -160 93 -271.5t255 -111.5q108 0 188 54t119 140t39 189q0 159 -93 270t-253 111 q-108 0 -189 -54t-120 -139t-39 -188z" />
<glyph unicode="h" horiz-adv-x="1216" d="M154 80v1163q0 34 23 58t56 24q34 0 58 -24t24 -58v-401q45 65 112 106t119.5 53.5t100.5 12.5q63 0 118 -10.5t111.5 -41t96 -79t65 -130t25.5 -188.5v-485q0 -34 -24 -57t-58 -23t-57 23t-23 57v450q0 35 -0.5 53t-2.5 52t-6.5 54t-13 48.5t-21 46t-32 37.5t-44 30.5 t-59 18t-75.5 7.5q-84 0 -149.5 -31t-104.5 -84.5t-58.5 -120.5t-19.5 -145v-416q0 -34 -24 -57t-58 -23t-56.5 23t-22.5 57z" />
<glyph unicode="i" horiz-adv-x="468" d="M154 80v827q0 34 23 58t56 24q34 0 58 -24t24 -58v-827q0 -34 -24 -57t-58 -23t-56.5 23t-22.5 57zM154 1190v94q0 34 23 58t56 24q34 0 58 -24t24 -58v-94q0 -34 -24 -57t-58 -23t-56.5 23t-22.5 57z" />
<glyph unicode="j" horiz-adv-x="485" d="M-354 -343q-4 12 -4 24q0 14 6 28q10 24 33.5 34.5t48.5 4.5q52 -12 110 -12q86 0 147.5 21.5t96.5 55t54.5 89.5t25.5 110.5t6 132.5v762q0 34 23 58t57 24t58 -24t24 -58v-821q0 -104 -28.5 -190.5t-86 -154t-154 -105t-223.5 -37.5q-116 0 -157 20q-26 12 -37 38z M170 1190v94q0 34 23 58t57 24t58 -24t24 -58v-94q0 -34 -24 -57t-58 -23t-57 23t-23 57z" />
<glyph unicode="k" horiz-adv-x="1095" d="M154 80v1163q0 34 23 58t56 24q34 0 58 -24t24 -58v-780l531 506q22 22 51 21t51 -23q21 -21 20 -51.5t-24 -51.5l-334 -323l351 -408q22 -23 22 -54q0 -35 -27 -59q-22 -21 -53 -21h-3q-32 1 -54 26l-354 419l-177 -161v-203q0 -34 -24 -57t-58 -23t-56.5 23t-22.5 57z " />
<glyph unicode="l" horiz-adv-x="468" d="M154 80v1163q0 34 23 58t56 24q34 0 58 -24t24 -58v-1163q0 -34 -24 -57t-58 -23t-56.5 23t-22.5 57z" />
<glyph unicode="m" horiz-adv-x="1902" d="M154 80v827q0 34 23 58t56 24q34 0 58 -24t24 -58v-65q45 65 111 106.5t114 53.5t87 12q269 0 356 -209q50 100 147 154.5t203 54.5q63 0 118 -10.5t111.5 -41t96 -79t65 -130t25.5 -188.5v-485q0 -34 -24 -57t-58 -23t-57 23t-23 57v450q0 35 -0.5 53t-2.5 52t-6.5 54 t-13 48.5t-21 46t-32 37.5t-44 30.5t-59 18t-75.5 7.5q-79 0 -140.5 -33.5t-97.5 -89t-54.5 -121.5t-18.5 -137v-416q0 -34 -24 -57t-58 -23t-57 23t-23 57v450q0 45 -0.5 69t-5 66.5t-13 67t-25.5 55.5t-41 48t-62 29t-86 12q-67 0 -121.5 -24.5t-89 -63t-58 -89.5 t-33.5 -102t-10 -102v-416q0 -34 -24 -57t-58 -23t-56.5 23t-22.5 57z" />
<glyph unicode="n" horiz-adv-x="1216" d="M154 80v827q0 34 23 58t56 24q34 0 58 -24t24 -58v-65q45 65 112 106t119.5 53.5t100.5 12.5q63 0 118 -10.5t111.5 -41t96 -79t65 -130t25.5 -188.5v-485q0 -34 -24 -57t-58 -23t-57 23t-23 57v450q0 35 -0.5 53t-2.5 52t-6.5 54t-13 48.5t-21 46t-32 37.5t-44 30.5 t-59 18t-75.5 7.5q-84 0 -149.5 -31t-104.5 -84.5t-58.5 -120.5t-19.5 -145v-416q0 -34 -24 -57t-58 -23t-56.5 23t-22.5 57z" />
<glyph unicode="o" horiz-adv-x="1218" d="M90 496q0 144 62.5 261t182.5 187t275 70t274.5 -70t181.5 -187t62 -261q0 -221 -142.5 -371t-375.5 -150q-155 0 -275 70.5t-182.5 188.5t-62.5 262zM262 496q0 -160 93 -271.5t255 -111.5q108 0 188 54t119 140t39 189q0 159 -93 270t-253 111q-108 0 -189 -54 t-120 -139t-39 -188z" />
<glyph unicode="p" horiz-adv-x="1257" d="M154 -297v1204q0 34 23 58t56 24q34 0 58 -24t24 -58v-65q45 65 112 106t119.5 53.5t100.5 12.5q155 0 275 -70t182.5 -187t62.5 -261t-62.5 -262t-182.5 -188.5t-275 -70.5q-83 0 -175 39t-157 131v-442q0 -34 -24 -58t-58 -24q-33 0 -56 24t-23 58zM301 496 q0 -103 39 -189t119 -140t188 -54q162 0 255 111.5t93 271.5q0 103 -39 188t-120 139t-189 54q-160 0 -253 -111t-93 -270z" />
<glyph unicode="q" horiz-adv-x="1257" d="M90 496q0 144 62.5 261t182.5 187t275 70q48 0 100.5 -12.5t119.5 -53.5t112 -106v65q0 34 24 58t58 24t57 -24t23 -58v-1204q0 -34 -23 -58t-57 -24t-58 24t-24 58v442q-65 -92 -157 -131t-175 -39q-155 0 -275 70.5t-182.5 188.5t-62.5 262zM262 496q0 -160 93 -271.5 t255 -111.5q108 0 188 54t119 140t39 189q0 159 -93 270t-253 111q-108 0 -189 -54t-120 -139t-39 -188z" />
<glyph unicode="r" horiz-adv-x="753" d="M154 80v827q0 34 23 58t56 24q34 0 58 -24t24 -58v-61q61 69 163 118.5t214 49.5q35 0 60.5 -25.5t25.5 -60.5t-25.5 -59.5t-60.5 -24.5q-10 0 -31.5 2t-33.5 2q-42 0 -81.5 -8t-83 -31.5t-75 -61t-52 -102t-20.5 -149.5v-416q0 -34 -24 -57t-58 -23t-56.5 23t-22.5 57z " />
<glyph unicode="s" horiz-adv-x="1013" d="M100 147v6q0 24 17 44q20 21 47.5 22.5t48.5 -16.5q58 -48 138 -75.5t167 -27.5q117 0 183.5 47.5t66.5 122.5q0 48 -36 81t-93 51t-126 33t-138.5 35t-126.5 49t-93 82.5t-36 127.5q0 122 104 203.5t285 81.5q218 0 354 -113q23 -20 25 -47t-17 -47q-15 -19 -41 -21 t-49 15q-117 88 -272 88q-105 0 -169.5 -44.5t-64.5 -111.5q0 -38 28 -65.5t73.5 -42.5t104 -30t119.5 -27.5t119.5 -36t104 -53.5t73.5 -82.5t28 -121.5q0 -130 -108 -214.5t-302 -84.5q-241 0 -389 125q-23 19 -25 47z" />
<glyph unicode="t" horiz-adv-x="583" d="M20 866q0 28 20 48t48 20h43v207q0 34 23 58t57 24t58 -24t24 -58v-207h141q28 0 48 -20t20 -48t-20 -47.5t-48 -19.5h-141v-418q0 -16 1.5 -32t6.5 -47.5t18.5 -58t34.5 -54t57 -46.5t83 -24q30 -3 49.5 -23t19.5 -49t-20 -48t-51 -19h-11q-70 0 -127 19.5t-93 49 t-62 71.5t-38.5 77.5t-20 78t-8.5 63t-1 40.5v420h-43q-28 0 -48 19.5t-20 47.5z" />
<glyph unicode="u" horiz-adv-x="1216" d="M154 424v485q0 34 24 57t58 23t56.5 -23t22.5 -57v-450q0 -35 0.5 -53t2.5 -52t6.5 -53.5t13 -48.5t21 -46t32 -37t44 -30.5t59 -18t75.5 -7.5q84 0 149.5 31t104.5 84.5t58.5 120.5t19.5 145v415q0 34 24 57t58 23t57 -23t23 -57v-827q0 -34 -23 -58t-57 -24t-58 24 t-24 58v65q-45 -65 -112 -106t-119.5 -53.5t-100.5 -12.5q-63 0 -117.5 10.5t-111 41t-96.5 79t-65 130t-25 188.5z" />
<glyph unicode="v" horiz-adv-x="1073" d="M58 939q12 31 44 44q16 7 33 7q15 0 29 -6q32 -12 45 -44l328 -762l325 762q14 32 46 44q15 6 30 6q17 0 33 -7q31 -13 43 -44q6 -14 6 -29q0 -17 -8 -33q0 -6 -348 -791q-15 -38 -50 -62t-77 -24q-44 0 -80.5 25t-53.5 65q-41 96 -127.5 294t-151.5 345t-65 148 q-7 16 -7 33q0 14 6 29z" />
<glyph unicode="w" horiz-adv-x="1585" d="M57 885q-5 13 -5 25q0 18 10 36q16 30 47.5 39.5t61 -6t38.5 -45.5l237 -733l254 719q11 31 36 50t57 19q33 0 58 -19t36 -50l252 -719l239 733q8 32 38 47q17 9 36 9q13 0 27 -5q31 -11 46 -40q9 -17 9 -36q0 -12 -4 -24l-275 -809q-11 -33 -40.5 -54.5t-65.5 -21.5 q-37 0 -67 22.5t-42 57.5l-247 715l-246 -715q-12 -35 -42 -57.5t-67 -22.5q-36 0 -65.5 21.5t-40.5 54.5z" />
<glyph unicode="x" horiz-adv-x="1028" d="M88 74q0 25 18 47l308 387l-287 362q-19 25 -15 54.5t29 48.5q20 17 45 17h8q30 -4 50 -29l270 -349l270 349q20 25 50 29q5 1 8 0q25 0 45 -17q25 -19 29 -48.5t-15 -54.5l-287 -362l308 -387q16 -19 16 -47q0 -31 -21.5 -52.5t-52.5 -21.5q-38 0 -59 31l-291 375 l-291 -375q-24 -31 -61 -31q-30 0 -52 22t-22 52z" />
<glyph unicode="y" horiz-adv-x="1122" d="M106 424v483q0 34 23 58t57 24t58 -24t24 -58v-448q0 -35 0.5 -53t2.5 -52t6.5 -53.5t13 -48.5t21 -46t32 -37t44 -30.5t59 -18t75.5 -7.5q162 0 247 104t85 260v432q0 34 24 58t56 24q34 0 58 -24t24 -58v-819q0 -50 -1 -79.5t-10.5 -87t-27 -95t-54 -85t-87.5 -75 t-131.5 -47.5t-182.5 -20q-224 0 -377 100q-24 15 -29 44t11 52q15 24 43 30t53 -9q128 -80 299 -80q54 0 98.5 8.5t77 20t58 34.5t41.5 42.5t27.5 53.5t17 56.5t8.5 63.5t3.5 63.5t0.5 66.5q-45 -65 -112 -106t-119.5 -53.5t-100.5 -12.5q-63 0 -118 10.5t-111.5 40.5 t-96 78.5t-65 130t-25.5 189.5z" />
<glyph unicode="z" horiz-adv-x="980" d="M90 90q0 33 21 57l559 707h-512q-28 0 -48 20t-20 48t20 47.5t48 19.5h630h9q35 0 60.5 -25.5t25.5 -60.5q0 -33 -23 -59l-561 -709h524q28 0 48 -19.5t20 -47.5t-20 -48t-48 -20h-643q-37 0 -63.5 26.5t-26.5 63.5z" />
<glyph unicode="{" horiz-adv-x="544" d="M12 502q0 39 41 57q33 15 50.5 51t17.5 82v420q0 123 77.5 200t182.5 77h72q23 0 39 -17t16 -41q0 -23 -16 -39t-39 -16h-72q-58 0 -98.5 -45.5t-40.5 -116.5v-434q0 -141 -95 -180q95 -39 95 -181v-432q0 -70 40.5 -116.5t98.5 -46.5h72q23 0 39 -16.5t16 -39.5t-16 -40 t-39 -17h-72q-105 0 -182.5 76.5t-77.5 197.5v422q0 46 -17.5 83t-50.5 50q-41 16 -41 62z" />
<glyph unicode="|" horiz-adv-x="440" d="M162 16v1332q0 25 16 42t41 17t42.5 -17t17.5 -42v-1332q0 -24 -17.5 -40.5t-42.5 -16.5t-41 16t-16 41z" />
<glyph unicode="}" horiz-adv-x="544" d="M20 -332q0 23 16.5 39.5t39.5 16.5h71q58 0 99 46.5t41 116.5v432q0 142 94 181q-94 39 -94 180v434q0 71 -41 116.5t-99 45.5h-71q-23 0 -39.5 16t-16.5 39t16.5 40.5t39.5 17.5h71q105 0 183 -77t78 -200v-420q0 -46 17 -82.5t50 -50.5q41 -18 41 -57q0 -46 -41 -62 q-32 -13 -49.5 -49.5t-17.5 -83.5v-422q0 -121 -78 -197.5t-183 -76.5h-71q-23 0 -39.5 17t-16.5 40z" />
<glyph unicode="~" horiz-adv-x="690" d="M0 1178q0 28 20 47.5t48 19.5h555q28 0 47.5 -19.5t19.5 -47.5t-19.5 -48t-47.5 -20h-555q-28 0 -48 20t-20 48z" />
<glyph unicode="&#xa1;" horiz-adv-x="419" d="M129 82v686q0 34 24 57t58 23t57 -23t23 -57v-686q0 -34 -23 -58t-57 -24t-58 24t-24 58zM129 1028v115q0 34 24 57t58 23t57 -23t23 -57v-115q0 -34 -23 -58t-57 -24t-58 24t-24 58z" />
<glyph unicode="&#xa8;" horiz-adv-x="583" d="M0 1190v94q0 34 23 58t57 24t58 -24t24 -58v-94q0 -34 -24 -57t-58 -23t-57 23t-23 57zM422 1190v94q0 34 23 58t57 24t58 -24t24 -58v-94q0 -34 -24 -57t-58 -23t-57 23t-23 57z" />
<glyph unicode="&#xa9;" horiz-adv-x="1626" d="M57 678q0 142 58.5 271.5t158 223.5t237 149.5t288.5 55.5t288.5 -55.5t236.5 -149.5t157.5 -223.5t58.5 -271.5q0 -190 -99 -351t-270 -255.5t-372 -94.5q-151 0 -288.5 56t-236.5 150t-158 223.5t-59 271.5zM150 678q0 -165 87 -306t236.5 -223.5t325.5 -82.5 t325.5 82.5t236.5 223.5t87 306q0 166 -87 307t-236.5 223t-325.5 82t-325.5 -82t-236.5 -223t-87 -307zM346 680q0 194 129.5 319t325.5 125q99 0 204 -47t146 -129q11 -22 3.5 -46t-28.5 -36q-22 -11 -44.5 -3.5t-34.5 30.5q-80 125 -248 125q-142 0 -233 -96t-91 -244 q0 -146 91 -242t233 -96q82 0 147.5 32.5t102.5 92.5q11 22 33 29.5t44 -2.5q21 -10 28.5 -34t-3.5 -46q-42 -85 -142 -132t-210 -47q-134 1 -237.5 59.5t-159.5 160t-56 227.5z" />
<glyph unicode="&#xab;" horiz-adv-x="825" d="M61 498q0 22 19 41l280 305q17 19 41 19t41 -17q19 -15 19 -39t-17 -43l-245 -266l245 -271q17 -19 16 -43t-20 -41q-17 -15 -42 -14t-40 18l-282 312q-15 19 -15 39zM362 498q0 22 19 41l281 305q17 19 40.5 19t40.5 -17q19 -15 19 -39t-17 -43l-245 -266l245 -271 q17 -19 16 -43t-20 -41q-17 -15 -42 -14t-40 18l-282 312q-15 19 -15 39z" />
<glyph unicode="&#xad;" horiz-adv-x="626" d="M66 496q0 28 19.5 47.5t47.5 19.5h385q28 0 48 -19.5t20 -47.5t-20 -48t-48 -20h-385q-28 0 -47.5 20t-19.5 48z" />
<glyph unicode="&#xae;" horiz-adv-x="1032" d="M43 938q0 181 135.5 308.5t329.5 127.5q192 0 327.5 -127.5t135.5 -308.5q0 -119 -62 -220t-168.5 -159.5t-232.5 -58.5q-193 0 -329 128t-136 310zM98 932q0 -159 120 -272t290 -113q168 0 287.5 113t119.5 272q0 158 -119 270.5t-288 112.5q-170 0 -290 -112.5 t-120 -270.5zM317 719v442q0 13 11.5 25t25.5 12h209q86 0 140.5 -47t54.5 -125q0 -74 -47.5 -119t-116.5 -51l86 -119q9 -11 6.5 -25.5t-14.5 -23.5q-10 -9 -27.5 -6.5t-26.5 14.5l-102 154h-123v-131q0 -16 -11 -27.5t-28 -11.5q-14 0 -25.5 12t-11.5 27zM393 913h160 q56 0 90.5 31t34.5 82q0 48 -35 78.5t-90 30.5h-160v-222z" />
<glyph unicode="&#xb0;" horiz-adv-x="606" d="M51 1137q0 103 77 176t187 73q109 0 187 -73t78 -176q0 -104 -78 -177t-187 -73q-110 0 -187 73t-77 177zM158 1137q0 -63 45 -106.5t112 -43.5q66 0 113 43.5t47 106.5q0 62 -47 106.5t-113 44.5q-67 0 -112 -44.5t-45 -106.5z" />
<glyph unicode="&#xb1;" horiz-adv-x="1042" d="M29 717q0 23 16 39q17 14 39 14h383v379q0 19 18 37q16 16 37 16q26 -3 39 -16q17 -17 17 -37v-379h385q21 0 38 -14q15 -15 15 -45q0 -16 -15 -31q-19 -16 -40 -16h-383v-383q0 -14 -17 -31t-39 -17q-20 0 -37 17q-18 18 -18 37v377h-383q-20 0 -39 16q-16 16 -16 37z M61 53q0 22 15.5 37.5t38.5 15.5h813q22 0 37.5 -15.5t15.5 -37.5q0 -23 -15.5 -38t-37.5 -15h-813q-23 0 -38.5 15t-15.5 38z" />
<glyph unicode="&#xb4;" horiz-adv-x="471" d="M110 1192q-3 24 11 43l115 172q19 23 49 25.5t53 -17.5t26 -48.5t-16 -53.5l-131 -154q-17 -19 -42 -21t-44 15q-18 15 -21 39z" />
<glyph unicode="&#xb6;" horiz-adv-x="937" d="M57 1014q0 146 110 249t265 103h389v-1571h-96v1479h-195v-1479h-98v867q-155 0 -265 103t-110 249z" />
<glyph unicode="&#xb7;" horiz-adv-x="481" d="M129 414v114q0 34 23 58t57 24t58 -24t24 -58v-114q0 -34 -24 -57t-58 -23t-57 23t-23 57z" />
<glyph unicode="&#xb8;" horiz-adv-x="200" d="M6 -156l53 140l142 -2l-70 -185q-9 -25 -34.5 -36.5t-51.5 -2.5t-37.5 34.5t-1.5 51.5z" />
<glyph unicode="&#xbb;" horiz-adv-x="825" d="M63 807q0 24 19 39q17 17 41 17t41 -19l280 -305q19 -19 19 -41t-14 -39l-283 -312q-15 -17 -40 -18t-42 14q-19 17 -20 41t16 43l246 271l-246 266q-17 19 -17 43zM364 807q0 24 19 39q17 17 41 17t41 -19l280 -305q19 -19 19 -41t-14 -39l-283 -312q-15 -17 -40 -18 t-42 14q-19 17 -20 41t16 43l246 271l-246 266q-17 19 -17 43z" />
<glyph unicode="&#xbf;" horiz-adv-x="993" d="M70 350q0 49 10.5 93.5t39.5 93.5t74.5 87.5t121 70.5t173.5 48v25q0 34 24 57t58 23t57 -23t23 -57v-86q0 -34 -23 -58t-57 -24q-84 0 -146 -23t-93 -52.5t-49 -69.5t-21.5 -62.5t-3.5 -42.5v-8q0 -82 65.5 -136t188.5 -54q193 0 291 106q29 29 61 29t54 -22t22 -54 q0 -40 -33 -66q-179 -145 -411 -145q-121 0 -216 39.5t-152.5 120t-57.5 190.5zM489 1028v115q0 34 24 57t58 23t57 -23t23 -57v-115q0 -34 -23 -58t-57 -24t-58 24t-24 58z" />
<glyph unicode="&#xc0;" d="M59 94q0 24 13 47l442 1039q8 19 27 31t43 12h121q24 0 42.5 -12t26.5 -31l443 -1039q12 -21 12 -47q0 -41 -25.5 -67.5t-64.5 -26.5q-34 0 -58 18.5t-32 49.5l-74 176h-662l-73 -176q-8 -31 -32 -49.5t-58 -18.5q-39 0 -65 26.5t-26 67.5zM371 393h544l-272 656z M478 1600q3 29 26 49t53 17t49 -26l115 -172q14 -19 11 -43t-21 -39q-19 -17 -43.5 -14.5t-42.5 21.5l-131 153q-19 25 -16 54z" />
<glyph unicode="&#xc1;" d="M59 94q0 24 13 47l442 1039q8 19 27 31t43 12h121q24 0 42.5 -12t26.5 -31l443 -1039q12 -21 12 -47q0 -41 -25.5 -67.5t-64.5 -26.5q-34 0 -58 18.5t-32 49.5l-74 176h-662l-73 -176q-8 -31 -32 -49.5t-58 -18.5q-39 0 -65 26.5t-26 67.5zM371 393h544l-272 656z M554 1425q-3 24 11 43l115 172q19 23 49 26t53 -17t26.5 -49t-15.5 -54l-131 -153q-18 -19 -43 -21.5t-44 14.5q-18 15 -21 39z" />
<glyph unicode="&#xc2;" d="M59 94q0 24 13 47l442 1039q8 19 27 31t43 12h121q24 0 42.5 -12t26.5 -31l443 -1039q12 -21 12 -47q0 -41 -25.5 -67.5t-64.5 -26.5q-34 0 -58 18.5t-32 49.5l-74 176h-662l-73 -176q-8 -31 -32 -49.5t-58 -18.5q-39 0 -65 26.5t-26 67.5zM371 393h544l-272 656z M393 1434q0 18 13 34l114 172q24 27 55 27h132q31 0 55 -27l115 -172q12 -15 12 -34q0 -28 -23 -48q-14 -14 -39 -14q-29 0 -47 21l-131 153l-8 13l-8 -13l-131 -153q-18 -21 -47 -21q-25 0 -39 14q-23 20 -23 48z" />
<glyph unicode="&#xc3;" d="M59 94q0 24 13 47l442 1039q8 19 27 31t43 12h121q24 0 42.5 -12t26.5 -31l443 -1039q12 -21 12 -47q0 -41 -25.5 -67.5t-64.5 -26.5q-34 0 -58 18.5t-32 49.5l-74 176h-662l-73 -176q-8 -31 -32 -49.5t-58 -18.5q-39 0 -65 26.5t-26 67.5zM299 1411q0 28 20 48t48 20 h555q28 0 47.5 -20t19.5 -48t-19.5 -48t-47.5 -20h-555q-28 0 -48 20t-20 48zM371 393h544l-272 656z" />
<glyph unicode="&#xc4;" d="M59 94q0 24 13 47l442 1039q8 19 27 31t43 12h121q24 0 42.5 -12t26.5 -31l443 -1039q12 -21 12 -47q0 -41 -25.5 -67.5t-64.5 -26.5q-34 0 -58 18.5t-32 49.5l-74 176h-662l-73 -176q-8 -31 -32 -49.5t-58 -18.5q-39 0 -65 26.5t-26 67.5zM352 1423v95q0 34 23 57.5 t57 23.5t58 -23.5t24 -57.5v-95q0 -34 -24 -57t-58 -23t-57 23t-23 57zM371 393h544l-272 656zM774 1423v95q0 34 23 57.5t57 23.5t58 -23.5t24 -57.5v-95q0 -34 -24 -57t-58 -23t-57 23t-23 57z" />
<glyph unicode="&#xc6;" horiz-adv-x="1658" d="M70 90q0 21 10 41l549 1043q27 49 84 49h823q31 0 53.5 -22.5t22.5 -53.5t-22.5 -53.5t-53.5 -22.5h-590v-358h467q31 0 53.5 -22.5t22.5 -53.5t-22.5 -53.5t-53.5 -22.5h-467v-409h590q31 0 53.5 -22.5t22.5 -53.5t-22.5 -53.5t-53.5 -22.5h-770v244h-424l-104 -197 q-23 -47 -78 -47q-38 0 -64 26.5t-26 63.5zM420 393h346v656z" />
<glyph unicode="&#xc7;" horiz-adv-x="1316" d="M104 612q0 137 49.5 255.5t136 201.5t207 130.5t257.5 47.5q144 0 293 -67.5t208 -184.5q15 -31 5.5 -64t-39.5 -50q-29 -15 -62 -5.5t-53 39.5q-56 86 -147.5 133.5t-206.5 47.5q-203 0 -331 -137t-128 -349q0 -209 128.5 -346t330.5 -137q118 0 211 46.5t145 133.5 q17 29 49.5 39.5t63.5 -4.5q29 -15 39 -48.5t-5 -64.5q-60 -120 -200 -186t-295 -68l-68 -178q-9 -25 -34.5 -36.5t-51.5 -2.5t-37.5 34.5t-1.5 51.5l56 144q-236 40 -377.5 211t-141.5 413z" />
<glyph unicode="&#xc8;" horiz-adv-x="1107" d="M113 90v1043q0 37 27.5 63.5t68.5 26.5h674q31 0 53 -22.5t22 -53.5t-23 -53.5t-58 -22.5h-584v-358h467q31 0 53.5 -22.5t22.5 -53.5t-23.5 -53.5t-58.5 -22.5h-461v-409h590q31 0 53 -22.5t22 -53.5t-22 -53.5t-53 -22.5h-680q-37 0 -63.5 26.5t-26.5 63.5zM324 1600 q3 29 26 49t53.5 17t49.5 -26l114 -172q14 -19 11 -43t-21 -39q-19 -17 -43.5 -14.5t-42.5 21.5l-131 153q-19 25 -16 54z" />
<glyph unicode="&#xc9;" horiz-adv-x="1107" d="M113 90v1043q0 37 27.5 63.5t68.5 26.5h674q31 0 53 -22.5t22 -53.5t-23 -53.5t-58 -22.5h-584v-358h467q31 0 53.5 -22.5t22.5 -53.5t-23.5 -53.5t-58.5 -22.5h-461v-409h590q31 0 53 -22.5t22 -53.5t-22 -53.5t-53 -22.5h-680q-37 0 -63.5 26.5t-26.5 63.5zM466 1425 q-3 24 11 43l115 172q19 23 49 26t53 -17t26.5 -49t-15.5 -54l-132 -153q-18 -19 -42.5 -21.5t-43.5 14.5q-18 15 -21 39z" />
<glyph unicode="&#xca;" horiz-adv-x="1107" d="M113 90v1043q0 37 27.5 63.5t68.5 26.5h674q31 0 53 -22.5t22 -53.5t-23 -53.5t-58 -22.5h-584v-358h467q31 0 53.5 -22.5t22.5 -53.5t-23.5 -53.5t-58.5 -22.5h-461v-409h590q31 0 53 -22.5t22 -53.5t-22 -53.5t-53 -22.5h-680q-37 0 -63.5 26.5t-26.5 63.5zM299 1434 q0 19 12 34l115 172q24 27 55 27h131q32 0 56 -27l114 -172q13 -16 13 -34q0 -28 -23 -48q-14 -14 -39 -14q-29 0 -47 21l-131 153l-8 13l-8 -13l-131 -153q-18 -21 -48 -21q-24 0 -38 14q-23 20 -23 48z" />
<glyph unicode="&#xcb;" horiz-adv-x="1107" d="M113 90v1043q0 37 27.5 63.5t68.5 26.5h674q31 0 53 -22.5t22 -53.5t-23 -53.5t-58 -22.5h-584v-358h467q31 0 53.5 -22.5t22.5 -53.5t-23.5 -53.5t-58.5 -22.5h-461v-409h590q31 0 53 -22.5t22 -53.5t-22 -53.5t-53 -22.5h-680q-37 0 -63.5 26.5t-26.5 63.5zM242 1423 v95q0 34 23 57.5t57 23.5t57.5 -23.5t23.5 -57.5v-95q0 -34 -23.5 -57t-57.5 -23t-57 23t-23 57zM664 1423v95q0 34 22.5 57.5t56.5 23.5t58 -23.5t24 -57.5v-95q0 -34 -24 -57t-58 -23t-56.5 23t-22.5 57z" />
<glyph unicode="&#xcc;" horiz-adv-x="499" d="M86.5 1600q3.5 29 26.5 49t53 17t49 -26l115 -172q14 -19 11 -43t-22 -39q-19 -17 -43.5 -14.5t-42.5 21.5l-131 153q-19 25 -15.5 54zM160 90v1043q0 37 26.5 63.5t63.5 26.5t63.5 -26.5t26.5 -63.5v-1043q0 -37 -26.5 -63.5t-63.5 -26.5t-63.5 26.5t-26.5 63.5z" />
<glyph unicode="&#xcd;" horiz-adv-x="499" d="M160 90v1043q0 37 26.5 63.5t63.5 26.5t63.5 -26.5t26.5 -63.5v-1043q0 -37 -26.5 -63.5t-63.5 -26.5t-63.5 26.5t-26.5 63.5zM161 1425q-3 24 11 43l115 172q19 23 49 26t53 -17t26 -49t-16 -54l-131 -153q-18 -19 -42.5 -21.5t-43.5 14.5q-18 15 -21 39z" />
<glyph unicode="&#xce;" horiz-adv-x="499" d="M2 1434q0 19 12 34l115 172q24 27 55 27h131q32 0 56 -27l114 -172q13 -16 13 -34q0 -28 -23 -48q-14 -14 -39 -14q-29 0 -47 21l-131 153l-8 13l-8 -13l-131 -153q-18 -21 -48 -21q-24 0 -38 14q-23 20 -23 48zM160 90v1043q0 37 26.5 63.5t63.5 26.5t63.5 -26.5 t26.5 -63.5v-1043q0 -37 -26.5 -63.5t-63.5 -26.5t-63.5 26.5t-26.5 63.5z" />
<glyph unicode="&#xcf;" horiz-adv-x="499" d="M-41 1423v95q0 34 23 57.5t57 23.5t58 -23.5t24 -57.5v-95q0 -34 -24 -57t-58 -23t-57 23t-23 57zM160 90v1043q0 37 26.5 63.5t63.5 26.5t63.5 -26.5t26.5 -63.5v-1043q0 -37 -26.5 -63.5t-63.5 -26.5t-63.5 26.5t-26.5 63.5zM381 1423v95q0 34 23 57.5t57 23.5 t58 -23.5t24 -57.5v-95q0 -34 -24 -57t-58 -23t-57 23t-23 57z" />
<glyph unicode="&#xd1;" horiz-adv-x="1339" d="M115 90v1008q0 53 35.5 89t87.5 36q61 0 98 -47l708 -908v865q0 37 27 63.5t64 26.5t63.5 -26.5t26.5 -63.5v-1000q0 -55 -38.5 -94t-94.5 -39q-62 0 -103 47l-694 899v-856q0 -37 -26.5 -63.5t-63.5 -26.5t-63.5 26.5t-26.5 63.5zM332 1411q0 28 19.5 48t47.5 20h555 q28 0 48 -20t20 -48t-20 -48t-48 -20h-555q-28 0 -47.5 20t-19.5 48z" />
<glyph unicode="&#xd2;" horiz-adv-x="1390" d="M47 610q0 136 47.5 253.5t131.5 202t205 133t263 48.5q190 0 338.5 -83t229.5 -228t81 -326q0 -135 -47.5 -252t-131.5 -201.5t-205.5 -133t-264.5 -48.5q-142 0 -263 48.5t-205 133t-131.5 202t-47.5 251.5zM236 610q0 -211 124.5 -347t333.5 -136q207 0 334 136.5 t127 346.5q0 213 -127 349.5t-334 136.5q-209 0 -333.5 -136t-124.5 -350zM486 1600q3 29 26 49t53 17t49 -26l115 -172q14 -19 11 -43t-21 -39q-19 -17 -43.5 -14.5t-42.5 21.5l-131 153q-19 25 -16 54z" />
<glyph unicode="&#xd3;" horiz-adv-x="1390" d="M47 610q0 136 47.5 253.5t131.5 202t205 133t263 48.5q190 0 338.5 -83t229.5 -228t81 -326q0 -135 -47.5 -252t-131.5 -201.5t-205.5 -133t-264.5 -48.5q-142 0 -263 48.5t-205 133t-131.5 202t-47.5 251.5zM236 610q0 -211 124.5 -347t333.5 -136q207 0 334 136.5 t127 346.5q0 213 -127 349.5t-334 136.5q-209 0 -333.5 -136t-124.5 -350zM628 1425q-3 24 11 43l115 172q19 23 49 26t53 -17t26 -49t-16 -54l-131 -153q-18 -19 -42.5 -21.5t-43.5 14.5q-18 15 -21 39z" />
<glyph unicode="&#xd4;" horiz-adv-x="1390" d="M47 610q0 136 47.5 253.5t131.5 202t205 133t263 48.5q190 0 338.5 -83t229.5 -228t81 -326q0 -135 -47.5 -252t-131.5 -201.5t-205.5 -133t-264.5 -48.5q-142 0 -263 48.5t-205 133t-131.5 202t-47.5 251.5zM236 610q0 -211 124.5 -347t333.5 -136q207 0 334 136.5 t127 346.5q0 213 -127 349.5t-334 136.5q-209 0 -333.5 -136t-124.5 -350zM440 1434q0 18 13 34l114 172q24 27 56 27h131q31 0 55 -27l115 -172q12 -15 12 -34q0 -28 -23 -48q-14 -14 -39 -14q-29 0 -47 21l-131 153l-8 13l-8 -13l-131 -153q-18 -21 -47 -21q-25 0 -39 14 q-23 20 -23 48z" />
<glyph unicode="&#xd5;" horiz-adv-x="1390" d="M47 610q0 136 47.5 253.5t131.5 202t205 133t263 48.5q190 0 338.5 -83t229.5 -228t81 -326q0 -135 -47.5 -252t-131.5 -201.5t-205.5 -133t-264.5 -48.5q-142 0 -263 48.5t-205 133t-131.5 202t-47.5 251.5zM236 610q0 -211 124.5 -347t333.5 -136q207 0 334 136.5 t127 346.5q0 213 -127 349.5t-334 136.5q-209 0 -333.5 -136t-124.5 -350zM350 1411q0 28 20 48t48 20h555q28 0 47.5 -20t19.5 -48t-19.5 -48t-47.5 -20h-555q-28 0 -48 20t-20 48z" />
<glyph unicode="&#xd6;" horiz-adv-x="1390" d="M47 610q0 136 47.5 253.5t131.5 202t205 133t263 48.5q190 0 338.5 -83t229.5 -228t81 -326q0 -135 -47.5 -252t-131.5 -201.5t-205.5 -133t-264.5 -48.5q-142 0 -263 48.5t-205 133t-131.5 202t-47.5 251.5zM236 610q0 -211 124.5 -347t333.5 -136q207 0 334 136.5 t127 346.5q0 213 -127 349.5t-334 136.5q-209 0 -333.5 -136t-124.5 -350zM401 1423v95q0 34 23 57.5t57 23.5t58 -23.5t24 -57.5v-95q0 -34 -24 -57t-58 -23t-57 23t-23 57zM823 1423v95q0 34 23 57.5t57 23.5t58 -23.5t24 -57.5v-95q0 -34 -24 -57t-58 -23t-57 23t-23 57z " />
<glyph unicode="&#xd7;" horiz-adv-x="999" d="M135 266q0 25 17 39l270 266l-270 267q-17 14 -17 36q0 25 17 39q15 15 36 15q22 0 37 -15l275 -266l272 266q15 15 37 15q21 0 39 -15q14 -14 14 -39q0 -22 -14 -36l-273 -267l273 -266q14 -14 14 -39q0 -23 -14 -37q-19 -16 -39 -16q-21 0 -37 16l-272 267l-275 -267 q-16 -16 -37 -16q-20 0 -36 16q-17 14 -17 37z" />
<glyph unicode="&#xd9;" d="M115 473v660q0 37 26.5 63.5t63.5 26.5t63.5 -26.5t26.5 -63.5v-656q0 -350 348 -350q176 0 262 90t86 260v656q0 37 26.5 63.5t63.5 26.5t63.5 -26.5t26.5 -63.5v-658q0 -234 -134 -367t-394 -133q-258 0 -393 133t-135 365zM473.5 1600q3.5 29 26.5 49t53 17t49 -26 l115 -172q14 -19 11 -43t-21 -39q-19 -17 -43.5 -14.5t-42.5 21.5l-132 153q-19 25 -15.5 54z" />
<glyph unicode="&#xda;" d="M115 473v660q0 37 26.5 63.5t63.5 26.5t63.5 -26.5t26.5 -63.5v-656q0 -350 348 -350q176 0 262 90t86 260v656q0 37 26.5 63.5t63.5 26.5t63.5 -26.5t26.5 -63.5v-658q0 -234 -134 -367t-394 -133q-258 0 -393 133t-135 365zM599 1425q-3 24 11 43l115 172q19 23 49 26 t53 -17t26.5 -49t-15.5 -54l-131 -153q-18 -19 -42.5 -21.5t-43.5 14.5q-19 15 -22 39z" />
<glyph unicode="&#xdb;" d="M115 473v660q0 37 26.5 63.5t63.5 26.5t63.5 -26.5t26.5 -63.5v-656q0 -350 348 -350q176 0 262 90t86 260v656q0 37 26.5 63.5t63.5 26.5t63.5 -26.5t26.5 -63.5v-658q0 -234 -134 -367t-394 -133q-258 0 -393 133t-135 365zM397 1434q0 18 13 34l114 172q24 27 56 27 h131q31 0 55 -27l115 -172q12 -15 12 -34q0 -28 -23 -48q-14 -14 -39 -14q-29 0 -47 21l-131 153l-8 13l-8 -13l-131 -153q-18 -21 -47 -21q-25 0 -39 14q-23 20 -23 48z" />
<glyph unicode="&#xdc;" d="M115 473v660q0 37 26.5 63.5t63.5 26.5t63.5 -26.5t26.5 -63.5v-656q0 -350 348 -350q176 0 262 90t86 260v656q0 37 26.5 63.5t63.5 26.5t63.5 -26.5t26.5 -63.5v-658q0 -234 -134 -367t-394 -133q-258 0 -393 133t-135 365zM348 1423v95q0 34 23 57.5t57 23.5t58 -23.5 t24 -57.5v-95q0 -34 -24 -57t-58 -23t-57 23t-23 57zM770 1423v95q0 34 23 57.5t57 23.5t58 -23.5t24 -57.5v-95q0 -34 -24 -57t-58 -23t-57 23t-23 57z" />
<glyph unicode="&#xe0;" horiz-adv-x="1124" d="M98 287q0 68 25 122.5t65 91t99.5 64t119 42.5t134 24t133 11.5t127.5 2.5h49v14q-1 37 -6.5 65t-23 58.5t-46 50t-79.5 32t-120 12.5q-142 0 -274 -82q-23 -14 -51 -7t-41 31q-14 23 -7 51t31 41q168 103 342 103q98 0 176 -23t137.5 -70t91.5 -125.5t32 -183.5v-532 q0 -34 -24 -57t-58 -23t-57 23t-23 57v65q-135 -170 -346 -170q-94 0 -168.5 21.5t-117.5 54.5t-71.5 76.5t-38.5 82.5t-10 77zM268 287q0 -81 71.5 -127.5t178.5 -46.5q88 0 155.5 34t104 88.5t54.5 112.5t18 117v49h-49q-533 0 -533 -227zM377 1366.5q3 28.5 26 48.5 t53.5 17.5t49.5 -25.5l115 -172q14 -19 11 -43t-22 -39q-19 -17 -44 -15t-42 21l-131 154q-19 25 -16 53.5z" />
<glyph unicode="&#xe1;" horiz-adv-x="1124" d="M98 287q0 68 25 122.5t65 91t99.5 64t119 42.5t134 24t133 11.5t127.5 2.5h49v14q-1 37 -6.5 65t-23 58.5t-46 50t-79.5 32t-120 12.5q-142 0 -274 -82q-23 -14 -51 -7t-41 31q-14 23 -7 51t31 41q168 103 342 103q98 0 176 -23t137.5 -70t91.5 -125.5t32 -183.5v-532 q0 -34 -24 -57t-58 -23t-57 23t-23 57v65q-135 -170 -346 -170q-94 0 -168.5 21.5t-117.5 54.5t-71.5 76.5t-38.5 82.5t-10 77zM268 287q0 -81 71.5 -127.5t178.5 -46.5q88 0 155.5 34t104 88.5t54.5 112.5t18 117v49h-49q-533 0 -533 -227zM515 1192q-3 24 11 43l115 172 q19 23 49 25.5t53 -17.5t26.5 -48.5t-15.5 -53.5l-131 -154q-17 -19 -42 -21t-44 15q-19 15 -22 39z" />
<glyph unicode="&#xe2;" horiz-adv-x="1124" d="M98 287q0 68 25 122.5t65 91t99.5 64t119 42.5t134 24t133 11.5t127.5 2.5h49v14q-1 37 -6.5 65t-23 58.5t-46 50t-79.5 32t-120 12.5q-142 0 -274 -82q-23 -14 -51 -7t-41 31q-14 23 -7 51t31 41q168 103 342 103q98 0 176 -23t137.5 -70t91.5 -125.5t32 -183.5v-532 q0 -34 -24 -57t-58 -23t-57 23t-23 57v65q-135 -170 -346 -170q-94 0 -168.5 21.5t-117.5 54.5t-71.5 76.5t-38.5 82.5t-10 77zM268 287q0 -81 71.5 -127.5t178.5 -46.5q88 0 155.5 34t104 88.5t54.5 112.5t18 117v49h-49q-533 0 -533 -227zM334 1200q0 20 12 35l115 172 q24 27 55 27h131q31 0 55 -27l115 -172q12 -15 12 -35q0 -28 -22 -47q-14 -14 -39 -14q-30 0 -47 20l-131 154l-8 12l-9 -12l-131 -154q-17 -20 -47 -20q-25 0 -39 14q-22 19 -22 47z" />
<glyph unicode="&#xe3;" horiz-adv-x="1124" d="M98 287q0 68 25 122.5t65 91t99.5 64t119 42.5t134 24t133 11.5t127.5 2.5h49v14q-1 37 -6.5 65t-23 58.5t-46 50t-79.5 32t-120 12.5q-142 0 -274 -82q-23 -14 -51 -7t-41 31q-14 23 -7 51t31 41q168 103 342 103q98 0 176 -23t137.5 -70t91.5 -125.5t32 -183.5v-532 q0 -34 -24 -57t-58 -23t-57 23t-23 57v65q-135 -170 -346 -170q-94 0 -168.5 21.5t-117.5 54.5t-71.5 76.5t-38.5 82.5t-10 77zM238 1178q0 28 19.5 47.5t47.5 19.5h555q28 0 48 -19.5t20 -47.5t-20 -48t-48 -20h-555q-28 0 -47.5 20t-19.5 48zM268 287q0 -81 71.5 -127.5 t178.5 -46.5q88 0 155.5 34t104 88.5t54.5 112.5t18 117v49h-49q-533 0 -533 -227z" />
<glyph unicode="&#xe4;" horiz-adv-x="1124" d="M98 287q0 68 25 122.5t65 91t99.5 64t119 42.5t134 24t133 11.5t127.5 2.5h49v14q-1 37 -6.5 65t-23 58.5t-46 50t-79.5 32t-120 12.5q-142 0 -274 -82q-23 -14 -51 -7t-41 31q-14 23 -7 51t31 41q168 103 342 103q98 0 176 -23t137.5 -70t91.5 -125.5t32 -183.5v-532 q0 -34 -24 -57t-58 -23t-57 23t-23 57v65q-135 -170 -346 -170q-94 0 -168.5 21.5t-117.5 54.5t-71.5 76.5t-38.5 82.5t-10 77zM268 287q0 -81 71.5 -127.5t178.5 -46.5q88 0 155.5 34t104 88.5t54.5 112.5t18 117v49h-49q-533 0 -533 -227zM291 1190v94q0 34 23 58t57 24 t58 -24t24 -58v-94q0 -34 -24 -57t-58 -23t-57 23t-23 57zM713 1190v94q0 34 23 58t57 24t57.5 -24t23.5 -58v-94q0 -34 -23.5 -57t-57.5 -23t-57 23t-23 57z" />
<glyph unicode="&#xe6;" horiz-adv-x="1828" d="M53 287q0 68 25 122.5t65 91t99.5 64t119 42.5t134 24t133 11.5t127.5 2.5h49v14q-1 37 -6.5 65t-23 58.5t-46 50t-79.5 32t-120 12.5q-142 0 -274 -82q-23 -14 -51 -7t-41 31q-14 23 -7 51t31 41q168 103 342 103q299 0 396 -199q57 94 150 146.5t216 52.5 q108 0 200 -39.5t152 -104.5t94 -146t34 -165q0 -46 -34.5 -80.5t-80.5 -34.5h-690q8 -144 102.5 -237.5t251.5 -93.5q139 0 252 80q20 19 47.5 17t46.5 -24t17.5 -50.5t-23.5 -47.5q-56 -56 -153 -84.5t-197 -28.5q-221 0 -344 142v-37q0 -34 -24 -57t-58 -23t-57 23 t-23 57v65q-135 -170 -346 -170q-94 0 -168.5 21.5t-117.5 54.5t-71.5 76.5t-38.5 82.5t-10 77zM223 287q0 -81 71.5 -127.5t178.5 -46.5q70 0 127.5 21.5t94.5 56t62.5 80t36.5 91.5t11 91v61h-49q-533 0 -533 -227zM967 559h647q-1 57 -20.5 111.5t-56.5 101.5t-101.5 76 t-145.5 29q-78 0 -140.5 -28t-100.5 -75t-59 -102t-23 -113z" />
<glyph unicode="&#xe7;" horiz-adv-x="1087" d="M90 496q0 146 65 263.5t185.5 186t273.5 68.5q207 0 334 -121q20 -20 20 -49t-22 -49t-50 -20t-48 20q-85 82 -225 82q-163 0 -262 -107t-99 -274t99 -275t262 -108q143 0 225 82q20 20 49 19t49 -21q20 -22 20 -51.5t-22 -49.5q-110 -101 -278 -115l-68 -180 q-9 -25 -34.5 -36.5t-51.5 -2.5t-37.5 34.5t-1.5 51.5l51 140q-196 28 -315 170t-119 342z" />
<glyph unicode="&#xe8;" horiz-adv-x="1177" d="M98 496q0 218 142 368t356 150q108 0 199.5 -39.5t152 -104.5t94 -146t33.5 -165q0 -46 -34 -80.5t-80 -34.5h-691q8 -144 103 -237.5t252 -93.5q139 0 252 80q20 19 47.5 17t46.5 -24t17.5 -50.5t-23.5 -47.5q-56 -56 -153.5 -84.5t-197.5 -28.5q-227 0 -371.5 145 t-144.5 376zM270 559h648q-1 57 -20.5 111.5t-56.5 101.5t-101.5 76t-145.5 29q-63 0 -116 -18.5t-90 -50t-63.5 -73t-39.5 -86t-15 -90.5zM424.5 1366.5q3.5 28.5 26.5 48.5t53 17.5t49 -25.5l115 -172q14 -19 11 -43t-22 -39q-19 -17 -44 -15t-42 21l-131 154 q-19 25 -15.5 53.5z" />
<glyph unicode="&#xe9;" horiz-adv-x="1177" d="M98 496q0 218 142 368t356 150q108 0 199.5 -39.5t152 -104.5t94 -146t33.5 -165q0 -46 -34 -80.5t-80 -34.5h-691q8 -144 103 -237.5t252 -93.5q139 0 252 80q20 19 47.5 17t46.5 -24t17.5 -50.5t-23.5 -47.5q-56 -56 -153.5 -84.5t-197.5 -28.5q-227 0 -371.5 145 t-144.5 376zM270 559h648q-1 57 -20.5 111.5t-56.5 101.5t-101.5 76t-145.5 29q-63 0 -116 -18.5t-90 -50t-63.5 -73t-39.5 -86t-15 -90.5zM542 1192q-3 24 11 43l115 172q19 23 49 25.5t53 -17.5t26 -48.5t-16 -53.5l-131 -154q-17 -19 -42 -21t-44 15q-18 15 -21 39z" />
<glyph unicode="&#xea;" horiz-adv-x="1177" d="M98 496q0 218 142 368t356 150q108 0 199.5 -39.5t152 -104.5t94 -146t33.5 -165q0 -46 -34 -80.5t-80 -34.5h-691q8 -144 103 -237.5t252 -93.5q139 0 252 80q20 19 47.5 17t46.5 -24t17.5 -50.5t-23.5 -47.5q-56 -56 -153.5 -84.5t-197.5 -28.5q-227 0 -371.5 145 t-144.5 376zM270 559h648q-1 57 -20.5 111.5t-56.5 101.5t-101.5 76t-145.5 29q-63 0 -116 -18.5t-90 -50t-63.5 -73t-39.5 -86t-15 -90.5zM346 1200q0 20 12 35l115 172q24 27 55 27h131q32 0 56 -27l114 -172q13 -16 13 -35q0 -27 -23 -47q-14 -14 -39 -14q-30 0 -47 20 l-131 154l-8 12l-8 -12l-131 -154q-17 -20 -47 -20q-25 0 -39 14q-23 20 -23 47z" />
<glyph unicode="&#xeb;" horiz-adv-x="1177" d="M98 496q0 218 142 368t356 150q108 0 199.5 -39.5t152 -104.5t94 -146t33.5 -165q0 -46 -34 -80.5t-80 -34.5h-691q8 -144 103 -237.5t252 -93.5q139 0 252 80q20 19 47.5 17t46.5 -24t17.5 -50.5t-23.5 -47.5q-56 -56 -153.5 -84.5t-197.5 -28.5q-227 0 -371.5 145 t-144.5 376zM270 559h648q-1 57 -20.5 111.5t-56.5 101.5t-101.5 76t-145.5 29q-63 0 -116 -18.5t-90 -50t-63.5 -73t-39.5 -86t-15 -90.5zM305 1190v94q0 34 23 58t57 24t58 -24t24 -58v-94q0 -34 -24 -57t-58 -23t-57 23t-23 57zM727 1190v94q0 34 23 58t57 24t58 -24 t24 -58v-94q0 -34 -24 -57t-58 -23t-57 23t-23 57z" />
<glyph unicode="&#xec;" horiz-adv-x="485" d="M99 1366.5q3 28.5 26 48.5t53 17.5t49 -25.5l115 -172q14 -19 11 -43t-21 -39q-19 -17 -44 -15t-42 21l-131 154q-19 25 -16 53.5zM154 80v827q0 34 23 58t56 24q34 0 58 -24t24 -58v-827q0 -34 -24 -57t-58 -23t-56.5 23t-22.5 57z" />
<glyph unicode="&#xed;" horiz-adv-x="485" d="M154 80v827q0 34 23 58t56 24q34 0 58 -24t24 -58v-827q0 -34 -24 -57t-58 -23t-56.5 23t-22.5 57zM155 1192q-3 24 11 43l115 172q19 23 49 25.5t53 -17.5t26 -48.5t-16 -53.5l-131 -154q-17 -19 -42 -21t-44 15q-18 15 -21 39z" />
<glyph unicode="&#xee;" horiz-adv-x="485" d="M-14 1200q0 20 12 35l115 172q24 27 55 27h131q31 0 55 -27l115 -172q12 -15 12 -35q0 -28 -22 -47q-14 -14 -39 -14q-30 0 -47 20l-131 154l-9 12l-8 -12l-131 -154q-17 -20 -47 -20q-25 0 -39 14q-22 19 -22 47zM154 80v827q0 34 23 58t56 24q34 0 58 -24t24 -58v-827 q0 -34 -24 -57t-58 -23t-56.5 23t-22.5 57z" />
<glyph unicode="&#xef;" horiz-adv-x="485" d="M-59 1190v94q0 34 23 58t56 24q34 0 58 -24t24 -58v-94q0 -34 -24 -57t-58 -23t-56.5 23t-22.5 57zM154 80v827q0 34 23 58t56 24q34 0 58 -24t24 -58v-827q0 -34 -24 -57t-58 -23t-56.5 23t-22.5 57zM362 1190v94q0 34 23 58t57 24t58 -24t24 -58v-94q0 -34 -24 -57 t-58 -23t-57 23t-23 57z" />
<glyph unicode="&#xf1;" horiz-adv-x="1138" d="M115 80v827q0 34 23 58t57 24t57.5 -24t23.5 -58v-65q45 65 112 106t119.5 53.5t100.5 12.5q63 0 118 -10.5t111.5 -41t96 -79t65 -130t25.5 -188.5v-485q0 -34 -24 -57t-58 -23t-57 23t-23 57v450q0 35 -0.5 53t-2.5 52t-6.5 54t-13 48.5t-21 46t-32 37.5t-44 30.5 t-59 18t-75.5 7.5q-84 0 -149.5 -31t-104.5 -84.5t-58.5 -120.5t-19.5 -145v-416q0 -34 -23.5 -57t-57.5 -23t-57 23t-23 57zM246 1178q0 28 19.5 47.5t47.5 19.5h555q28 0 48 -19.5t20 -47.5t-20 -48t-48 -20h-555q-28 0 -47.5 20t-19.5 48z" />
<glyph unicode="&#xf2;" horiz-adv-x="1144" d="M53 496q0 144 62.5 261t182.5 187t275 70t274.5 -70t182 -187t62.5 -261q0 -107 -36.5 -202.5t-102.5 -166t-164.5 -111.5t-215.5 -41q-155 0 -275 70.5t-182.5 188.5t-62.5 262zM225 496q0 -160 93 -271.5t255 -111.5q108 0 188 54t119.5 140t39.5 189q0 159 -93.5 270 t-253.5 111q-108 0 -189 -54t-120 -139t-39 -188zM428.5 1366.5q3.5 28.5 26.5 48.5t53 17.5t49 -25.5l115 -172q14 -19 11 -43t-21 -39q-19 -17 -44.5 -15t-42.5 21l-131 154q-19 25 -15.5 53.5z" />
<glyph unicode="&#xf3;" horiz-adv-x="1144" d="M53 496q0 144 62.5 261t182.5 187t275 70t274.5 -70t182 -187t62.5 -261q0 -107 -36.5 -202.5t-102.5 -166t-164.5 -111.5t-215.5 -41q-155 0 -275 70.5t-182.5 188.5t-62.5 262zM225 496q0 -160 93 -271.5t255 -111.5q108 0 188 54t119.5 140t39.5 189q0 159 -93.5 270 t-253.5 111q-108 0 -189 -54t-120 -139t-39 -188zM526 1192q-3 24 11 43l114 172q19 23 49.5 25.5t53.5 -17.5t26 -48.5t-16 -53.5l-131 -154q-17 -19 -42 -21t-44 15q-18 15 -21 39z" />
<glyph unicode="&#xf4;" horiz-adv-x="1144" d="M53 496q0 144 62.5 261t182.5 187t275 70t274.5 -70t182 -187t62.5 -261q0 -107 -36.5 -202.5t-102.5 -166t-164.5 -111.5t-215.5 -41q-155 0 -275 70.5t-182.5 188.5t-62.5 262zM225 496q0 -160 93 -271.5t255 -111.5q108 0 188 54t119.5 140t39.5 189q0 159 -93.5 270 t-253.5 111q-108 0 -189 -54t-120 -139t-39 -188zM326 1200q0 20 12 35l115 172q24 27 55 27h131q31 0 55 -27l115 -172q12 -15 12 -35q0 -28 -22 -47q-14 -14 -39 -14q-30 0 -47 20l-131 154l-9 12l-8 -12l-131 -154q-17 -20 -47 -20q-25 0 -39 14q-22 19 -22 47z" />
<glyph unicode="&#xf5;" horiz-adv-x="1144" d="M53 496q0 144 62.5 261t182.5 187t275 70t274.5 -70t182 -187t62.5 -261q0 -107 -36.5 -202.5t-102.5 -166t-164.5 -111.5t-215.5 -41q-155 0 -275 70.5t-182.5 188.5t-62.5 262zM225 496q0 -160 93 -271.5t255 -111.5q108 0 188 54t119.5 140t39.5 189q0 159 -93.5 270 t-253.5 111q-108 0 -189 -54t-120 -139t-39 -188zM227 1178q0 28 20 47.5t48 19.5h555q28 0 48 -19.5t20 -47.5t-20 -48t-48 -20h-555q-28 0 -48 20t-20 48z" />
<glyph unicode="&#xf6;" horiz-adv-x="1218" d="M90 496q0 144 62.5 261t182.5 187t275 70t274.5 -70t181.5 -187t62 -261q0 -221 -142.5 -371t-375.5 -150q-155 0 -275 70.5t-182.5 188.5t-62.5 262zM262 496q0 -160 93 -271.5t255 -111.5q108 0 188 54t119 140t39 189q0 159 -93 270t-253 111q-108 0 -189 -54 t-120 -139t-39 -188zM317 1190v94q0 34 23 58t57 24t58 -24t24 -58v-94q0 -34 -24 -57t-58 -23t-57 23t-23 57zM739 1190v94q0 34 23 58t57 24t58 -24t24 -58v-94q0 -34 -24 -57t-58 -23t-57 23t-23 57z" />
<glyph unicode="&#xf7;" horiz-adv-x="1067" d="M92 573q0 22 15.5 38t37.5 16h803q22 0 37.5 -16t15.5 -38t-15.5 -37.5t-37.5 -15.5h-803q-22 0 -37.5 15.5t-15.5 37.5zM457 182q0 42 28.5 71.5t69.5 29.5t70.5 -30t29.5 -71t-29.5 -69.5t-70.5 -28.5t-69.5 28.5t-28.5 69.5zM457 954q0 42 28.5 71.5t69.5 29.5 t70.5 -30t29.5 -71t-29.5 -69.5t-70.5 -28.5t-69.5 28.5t-28.5 69.5z" />
<glyph unicode="&#xf9;" horiz-adv-x="1138" d="M115 424v485q0 34 24 57t58 23t56.5 -23t22.5 -57v-450q0 -35 0.5 -53t2.5 -52t6.5 -53.5t13 -48.5t21 -46t32 -37t44 -30.5t59 -18t75.5 -7.5q84 0 149.5 31t104.5 84.5t58.5 120.5t19.5 145v415q0 34 24 57t58 23t57 -23t23 -57v-827q0 -34 -23 -58t-57 -24t-58 24 t-24 58v65q-45 -65 -112 -106t-119.5 -53.5t-100.5 -12.5q-63 0 -117.5 10.5t-111 41t-96.5 79t-65 130t-25 188.5zM383.5 1366.5q3.5 28.5 26.5 48.5t53 17.5t49 -25.5l115 -172q14 -19 11 -43t-22 -39q-19 -17 -44 -15t-42 21l-131 154q-19 25 -15.5 53.5z" />
<glyph unicode="&#xfa;" horiz-adv-x="1138" d="M115 424v485q0 34 24 57t58 23t56.5 -23t22.5 -57v-450q0 -35 0.5 -53t2.5 -52t6.5 -53.5t13 -48.5t21 -46t32 -37t44 -30.5t59 -18t75.5 -7.5q84 0 149.5 31t104.5 84.5t58.5 120.5t19.5 145v415q0 34 24 57t58 23t57 -23t23 -57v-827q0 -34 -23 -58t-57 -24t-58 24 t-24 58v65q-45 -65 -112 -106t-119.5 -53.5t-100.5 -12.5q-63 0 -117.5 10.5t-111 41t-96.5 79t-65 130t-25 188.5zM460 1192q-3 24 11 43l115 172q19 23 49 25.5t53 -17.5t26 -48.5t-16 -53.5l-131 -154q-17 -19 -42 -21t-44 15q-18 15 -21 39z" />
<glyph unicode="&#xfb;" horiz-adv-x="1138" d="M115 424v485q0 34 24 57t58 23t56.5 -23t22.5 -57v-450q0 -35 0.5 -53t2.5 -52t6.5 -53.5t13 -48.5t21 -46t32 -37t44 -30.5t59 -18t75.5 -7.5q84 0 149.5 31t104.5 84.5t58.5 120.5t19.5 145v415q0 34 24 57t58 23t57 -23t23 -57v-827q0 -34 -23 -58t-57 -24t-58 24 t-24 58v65q-45 -65 -112 -106t-119.5 -53.5t-100.5 -12.5q-63 0 -117.5 10.5t-111 41t-96.5 79t-65 130t-25 188.5zM291 1200q0 20 12 35l115 172q24 27 55 27h131q31 0 55 -27l115 -172q12 -15 12 -35q0 -28 -22 -47q-14 -14 -39 -14q-30 0 -47 20l-131 154l-8 12l-9 -12 l-131 -154q-17 -20 -47 -20q-25 0 -39 14q-22 19 -22 47z" />
<glyph unicode="&#xfc;" horiz-adv-x="1138" d="M115 424v485q0 34 24 57t58 23t56.5 -23t22.5 -57v-450q0 -35 0.5 -53t2.5 -52t6.5 -53.5t13 -48.5t21 -46t32 -37t44 -30.5t59 -18t75.5 -7.5q84 0 149.5 31t104.5 84.5t58.5 120.5t19.5 145v415q0 34 24 57t58 23t57 -23t23 -57v-827q0 -34 -23 -58t-57 -24t-58 24 t-24 58v65q-45 -65 -112 -106t-119.5 -53.5t-100.5 -12.5q-63 0 -117.5 10.5t-111 41t-96.5 79t-65 130t-25 188.5zM471 1190v94q0 34 23 58t57 24t58 -24t24 -58v-94q0 -34 -24 -57t-58 -23t-57 23t-23 57zM893 1190v94q0 34 23 58t57 24t58 -24t24 -58v-94q0 -34 -24 -57 t-58 -23t-57 23t-23 57z" />
<glyph unicode="&#xff;" horiz-adv-x="1138" d="M115 424v483q0 34 23 58t57 24t57.5 -24t23.5 -58v-448q0 -35 0.5 -53t2.5 -52t6.5 -53.5t13 -48.5t21 -46t32 -37t44 -30.5t59 -18t75.5 -7.5q162 0 247 104t85 260v432q0 34 24 58t56 24q34 0 58 -24t24 -58v-819q0 -50 -1 -79.5t-10.5 -87t-27 -95t-54 -85t-87.5 -75 t-131.5 -47.5t-182.5 -20q-223 0 -376 100q-24 15 -29.5 44t10.5 52q15 24 43 30t53 -9q128 -80 299 -80q54 0 98.5 8.5t77 20t58 34.5t41.5 42.5t27.5 53.5t17 56.5t8.5 63.5t3.5 63.5t0.5 66.5q-45 -65 -112 -106t-119.5 -53.5t-100.5 -12.5q-63 0 -117.5 10.5t-111 40.5 t-96.5 78.5t-65 130t-25 189.5zM276 1190v94q0 34 23 58t57 24t58 -24t24 -58v-94q0 -34 -24 -57t-58 -23t-57 23t-23 57zM698 1190v94q0 34 23 58t57 24t58 -24t24 -58v-94q0 -34 -24 -57t-58 -23t-57 23t-23 57z" />
<glyph unicode="&#x152;" horiz-adv-x="2048" d="M47 610q0 136 47.5 253.5t131.5 202t205 133t263 48.5q302 0 461 -209v95q0 37 27.5 63.5t68.5 26.5h674q31 0 53.5 -22.5t22.5 -53.5t-23.5 -53.5t-58.5 -22.5h-584v-358h467q31 0 53.5 -22.5t22.5 -53.5t-23.5 -53.5t-58.5 -22.5h-461v-409h590q31 0 53.5 -22.5 t22.5 -53.5t-22.5 -53.5t-53.5 -22.5h-680q-37 0 -63.5 26.5t-26.5 63.5v94q-156 -209 -461 -209q-142 0 -263 48.5t-205 133t-131.5 202t-47.5 251.5zM236 610q0 -211 124.5 -347t333.5 -136q207 0 334 136.5t127 346.5q0 213 -127 349.5t-334 136.5q-209 0 -333.5 -136 t-124.5 -350z" />
<glyph unicode="&#x153;" horiz-adv-x="1994" d="M53 496q0 144 62.5 261t182.5 187t275 70q74 0 140 -20t112 -49.5t84.5 -69.5t60.5 -75t38 -71q60 130 177.5 207.5t268.5 77.5q108 0 199.5 -39.5t152 -104.5t94 -146t33.5 -165q0 -46 -34 -80.5t-80 -34.5h-691q8 -144 103 -237.5t252 -93.5q139 0 252 80q16 16 43 16 q34 0 51 -23q16 -16 16 -47q0 -34 -22 -51q-56 -56 -153 -84.5t-197 -28.5q-160 0 -283.5 75t-183.5 208q-18 -37 -40 -71.5t-60 -74.5t-83 -69t-110.5 -48.5t-139.5 -19.5q-155 0 -275 70.5t-182.5 188.5t-62.5 262zM225 496q0 -163 94.5 -273t253.5 -110t253 110t94 273 q0 161 -94 271t-253 110t-253.5 -110t-94.5 -271zM1128 559h648q-1 57 -20.5 111.5t-56.5 101.5t-101.5 76t-145.5 29q-63 0 -116 -18.5t-90 -50t-63.5 -73t-39.5 -86t-15 -90.5z" />
<glyph unicode="&#x178;" horiz-adv-x="1236" d="M91.5 1151q5.5 35 33.5 55q29 20 63 14.5t56 -34.5l377 -527l374 527q22 29 56 34.5t63 -14.5q28 -21 34 -55t-15 -64l-422 -581v-416q0 -38 -26.5 -64t-63.5 -26q-38 0 -64.5 26t-26.5 64v416l-424 581q-20 29 -14.5 64zM330 1423v95q0 34 23 57.5t57 23.5t58 -23.5 t24 -57.5v-95q0 -34 -24 -57t-58 -23t-57 23t-23 57zM752 1423v95q0 34 22.5 57.5t56.5 23.5t58 -23.5t24 -57.5v-95q0 -34 -24 -57t-58 -23t-56.5 23t-22.5 57z" />
<glyph unicode="&#x2c6;" horiz-adv-x="495" d="M0 1200q0 20 12 35l115 172q24 27 55 27h131q32 0 56 -27l114 -172q13 -16 13 -35q0 -27 -23 -47q-14 -14 -39 -14q-30 0 -47 20l-131 154l-8 12l-8 -12l-131 -154q-17 -20 -48 -20q-24 0 -38 14q-23 20 -23 47z" />
<glyph unicode="&#x2dc;" horiz-adv-x="690" d="M0 1178q0 28 20 47.5t48 19.5h555q28 0 47.5 -19.5t19.5 -47.5t-19.5 -48t-47.5 -20h-555q-28 0 -48 20t-20 48z" />
<glyph unicode="&#x2000;" horiz-adv-x="833" />
<glyph unicode="&#x2001;" horiz-adv-x="1667" />
<glyph unicode="&#x2002;" horiz-adv-x="833" />
<glyph unicode="&#x2003;" horiz-adv-x="1667" />
<glyph unicode="&#x2004;" horiz-adv-x="555" />
<glyph unicode="&#x2005;" horiz-adv-x="416" />
<glyph unicode="&#x2006;" horiz-adv-x="277" />
<glyph unicode="&#x2007;" horiz-adv-x="277" />
<glyph unicode="&#x2008;" horiz-adv-x="208" />
<glyph unicode="&#x2009;" horiz-adv-x="333" />
<glyph unicode="&#x200a;" horiz-adv-x="92" />
<glyph unicode="&#x2010;" horiz-adv-x="626" d="M66 496q0 28 19.5 47.5t47.5 19.5h385q28 0 48 -19.5t20 -47.5t-20 -48t-48 -20h-385q-28 0 -47.5 20t-19.5 48z" />
<glyph unicode="&#x2011;" horiz-adv-x="626" d="M66 496q0 28 19.5 47.5t47.5 19.5h385q28 0 48 -19.5t20 -47.5t-20 -48t-48 -20h-385q-28 0 -47.5 20t-19.5 48z" />
<glyph unicode="&#x2012;" horiz-adv-x="626" d="M66 496q0 28 19.5 47.5t47.5 19.5h385q28 0 48 -19.5t20 -47.5t-20 -48t-48 -20h-385q-28 0 -47.5 20t-19.5 48z" />
<glyph unicode="&#x2013;" horiz-adv-x="1239" d="M137 496q0 28 20 47.5t48 19.5h880q28 0 48 -19.5t20 -47.5t-20 -48t-48 -20h-880q-28 0 -48 20t-20 48z" />
<glyph unicode="&#x2014;" horiz-adv-x="1738" d="M137 496q0 28 20 47.5t48 19.5h1399q28 0 47.5 -19.5t19.5 -47.5t-19.5 -48t-47.5 -20h-1399q-28 0 -48 20t-20 48z" />
<glyph unicode="&#x2018;" horiz-adv-x="419" d="M127 1042v164q0 32 27 62l73 86q12 12 29 12q11 0 20 -6t13 -18t-2 -23l-39 -82q17 0 29 -11t12 -28v-156q0 -34 -23.5 -57.5t-56.5 -23.5q-34 0 -58 23.5t-24 57.5z" />
<glyph unicode="&#x2019;" horiz-adv-x="419" d="M128.5 985q-3.5 12 2.5 23l39 82q-18 0 -29.5 10.5t-11.5 27.5v156q0 34 24 58t56 24q34 0 58 -24t24 -58v-164q0 -31 -27 -61l-74 -86q-12 -12 -28 -12q-12 0 -21 6t-12.5 18z" />
<glyph unicode="&#x201a;" horiz-adv-x="440" d="M149.5 -105q-3.5 12 2.5 23l38 82q-17 0 -28.5 11t-11.5 28v156q0 34 23.5 57.5t55.5 23.5q34 0 58 -23.5t24 -57.5v-164q0 -33 -26 -62l-74 -86q-12 -12 -29 -12q-11 0 -20 6t-12.5 18z" />
<glyph unicode="&#x201c;" horiz-adv-x="645" d="M127 1042v164q0 32 27 62l73 86q12 12 29 12q11 0 20 -6t13 -18t-2 -23l-39 -82q17 0 29 -11t12 -28v-156q0 -34 -23.5 -57.5t-56.5 -23.5q-34 0 -58 23.5t-24 57.5zM352 1042v164q0 32 27 62l74 86q12 12 28 12q12 0 21 -6t12.5 -18t-2.5 -23l-39 -82q17 0 29 -11 t12 -28v-156q0 -34 -24 -57.5t-56 -23.5q-34 0 -58 23.5t-24 57.5z" />
<glyph unicode="&#x201d;" horiz-adv-x="645" d="M128.5 985q-3.5 12 2.5 23l39 82q-18 0 -29.5 10.5t-11.5 27.5v156q0 34 24 58t56 24q34 0 58 -24t24 -58v-164q0 -31 -27 -61l-74 -86q-12 -12 -28 -12q-12 0 -21 6t-12.5 18zM354 985q-4 12 2 23l39 82q-18 0 -29.5 10.5t-11.5 27.5v156q0 34 24 58t56 24q34 0 58 -24 t24 -58v-164q0 -31 -27 -61l-73 -86q-12 -12 -29 -12q-11 0 -20 6t-13 18z" />
<glyph unicode="&#x201e;" horiz-adv-x="632" d="M132.5 -105q-3.5 12 2.5 23l39 82q-17 0 -29 11t-12 28v156q0 33 23.5 57t56.5 24q34 0 58 -23.5t24 -57.5v-164q0 -32 -27 -62l-73 -86q-12 -12 -29 -12q-12 0 -21 6t-12.5 18zM358 39v156q0 33 24 57t56 24q34 0 58 -23.5t24 -57.5v-164q0 -33 -26 -62l-74 -86 q-12 -12 -29 -12q-11 0 -20 6t-13 18t2 23l39 82q-17 0 -29 11t-12 28z" />
<glyph unicode="&#x2022;" horiz-adv-x="749" d="M158 510q0 97 68 166t165 69t166.5 -69t69.5 -166t-69.5 -165.5t-166.5 -68.5t-165 68.5t-68 165.5z" />
<glyph unicode="&#x2026;" horiz-adv-x="1026" d="M109 80v115q0 34 22.5 57.5t56.5 23.5t58 -23.5t24 -57.5v-115q0 -34 -24 -57t-58 -23t-56.5 23t-22.5 57zM432 80v115q0 34 23 57.5t57 23.5t58 -23.5t24 -57.5v-115q0 -34 -24 -57t-58 -23t-57 23t-23 57zM756 80v115q0 34 23 57.5t57 23.5t58 -23.5t24 -57.5v-115 q0 -34 -24 -57t-58 -23t-57 23t-23 57z" />
<glyph unicode="&#x202f;" horiz-adv-x="333" />
<glyph unicode="&#x2039;" horiz-adv-x="524" d="M61 498q0 22 19 41l280 305q17 19 41 19t41 -17q19 -15 19 -39t-17 -43l-245 -266l245 -271q17 -19 16 -43t-20 -41q-17 -15 -42 -14t-40 18l-282 312q-15 19 -15 39z" />
<glyph unicode="&#x203a;" horiz-adv-x="524" d="M63 807q0 24 19 39q17 17 41 17t41 -19l280 -305q19 -19 19 -41t-14 -39l-283 -312q-15 -17 -40 -18t-42 14q-19 17 -20 41t16 43l246 271l-246 266q-17 19 -17 43z" />
<glyph unicode="&#x205f;" horiz-adv-x="416" />
<glyph unicode="&#x20ac;" horiz-adv-x="1368" d="M41 496q0 22 15.5 37.5t37.5 15.5h64q-2 20 -2 63q0 42 2 62h-64q-22 0 -37.5 15.5t-15.5 37.5t15.5 37.5t37.5 15.5h82q53 211 224 339t405 128q144 0 293.5 -67.5t208.5 -184.5q15 -31 5 -64t-40 -50q-29 -15 -62 -5.5t-53 39.5q-56 86 -147.5 133.5t-206.5 47.5 q-158 0 -273.5 -86t-160.5 -230h528q22 0 37.5 -15.5t15.5 -37.5t-15.5 -37.5t-37.5 -15.5h-551q-2 -20 -2 -64q0 -43 2 -61h551q22 0 37.5 -15.5t15.5 -37.5t-15.5 -38t-37.5 -16h-528q45 -144 160 -229.5t274 -85.5q118 0 211 46.5t145 133.5q17 29 49.5 39.5t63.5 -4.5 q29 -15 39.5 -48.5t-4.5 -64.5q-60 -121 -203.5 -187.5t-300.5 -66.5q-239 1 -407 129.5t-220 337.5h-82q-22 0 -37.5 16t-15.5 38z" />
<glyph unicode="&#x2122;" horiz-adv-x="1062" d="M37 1337q0 12 8.5 20.5t20.5 8.5h348q11 0 19.5 -8.5t8.5 -20.5q0 -10 -8.5 -18t-19.5 -8h-144v-363q0 -14 -8.5 -23.5t-21.5 -9.5q-14 0 -23.5 9.5t-9.5 23.5v363h-141q-12 0 -20.5 7.5t-8.5 18.5zM506 948v369q0 21 14 35t35 14q26 0 45 -27l168 -241l166 241 q19 27 45 27q21 0 35 -14t14 -35v-369q0 -14 -10 -23.5t-23 -9.5t-22.5 9.5t-9.5 23.5v332l-183 -264q-4 -8 -12 -8q-10 0 -14 8l-183 264v-332q0 -14 -9.5 -23.5t-22.5 -9.5t-23 9.5t-10 23.5z" />
<glyph unicode="&#x25fc;" horiz-adv-x="990" d="M0 0v990h990v-990h-990z" />
<glyph unicode="&#xfb01;" horiz-adv-x="954" d="M8 866q0 28 20 48t48 20h43q0 162 106 280.5t273 118.5q29 0 49 -20t20 -49q0 -26 -18.5 -46.5t-44.5 -21.5q-60 -8 -104 -34.5t-66 -56.5t-35 -68.5t-15.5 -60.5t-2.5 -42h125q28 0 47.5 -20t19.5 -48t-19.5 -47.5t-47.5 -19.5h-125v-719q0 -34 -24 -57t-58 -23t-57 23 t-23 57v719h-43q-28 0 -48 19.5t-20 47.5zM633 80v827q0 34 23 58t57 24t58 -24t24 -58v-827q0 -34 -24 -57t-58 -23t-57 23t-23 57zM633 1190v94q0 34 23 58t57 24t58 -24t24 -58v-94q0 -34 -24 -57t-58 -23t-57 23t-23 57z" />
<glyph unicode="&#xfb02;" horiz-adv-x="954" d="M8 866q0 28 20 48t48 20h43q0 162 106 280.5t273 118.5q29 0 49 -20t20 -49q0 -26 -18.5 -46.5t-44.5 -21.5q-60 -8 -104 -34.5t-66 -56.5t-35 -68.5t-15.5 -60.5t-2.5 -42h125q28 0 47.5 -20t19.5 -48t-19.5 -47.5t-47.5 -19.5h-125v-719q0 -34 -24 -57t-58 -23t-57 23 t-23 57v719h-43q-28 0 -48 19.5t-20 47.5zM633 80v1163q0 34 23 58t57 24t58 -24t24 -58v-1163q0 -34 -24 -57t-58 -23t-57 23t-23 57z" />
</font>
</defs>
</svg>
